*
*
G04 PADS 9.3 Build Number: 433611 generated Gerber (RS-274-X) file*
G04 PC Version=2.1*
*
%IN "WG1300E00T-PCB-D01_2012"*%
*
%MOIN*%
*
%FSLAX35Y35*%
*
*
*
*
G04 PC Standard Apertures*
*
*
G04 Thermal Relief Aperture macro.*
%AMTER*
1,1,$1,0,0*
1,0,$1-$2,0,0*
21,0,$3,$4,0,0,45*
21,0,$3,$4,0,0,135*
%
*
*
G04 Annular Aperture macro.*
%AMANN*
1,1,$1,0,0*
1,0,$2,0,0*
%
*
*
G04 Odd Aperture macro.*
%AMODD*
1,1,$1,0,0*
1,0,$1-0.005,0,0*
%
*
*
G04 PC Custom Aperture Macros*
*
*
*
*
*
*
G04 PC Aperture Table*
*
%ADD014C,0.01*%
%ADD137C,0.00004*%
%ADD149R,0.06X0.06*%
%ADD150C,0.06*%
%ADD182C,0.05354*%
%ADD187R,0.03228X0.0811*%
*
*
*
*
G04 PC Circuitry*
G04 Layer Name WG1300E00T-PCB-D01_2012 - circuitry*
%LPD*%
*
*
G04 PC Custom Flashes*
G04 Layer Name WG1300E00T-PCB-D01_2012 - flashes*
%LPD*%
*
*
G04 PC Circuitry*
G04 Layer Name WG1300E00T-PCB-D01_2012 - circuitry*
%LPD*%
*
G54D14*
G01X1935000Y1522500D02*
X2065000D01*
Y1677500*
X1935000*
Y1522500*
G54D137*
G54D149*
X2031500Y1641500D03*
Y1558500D03*
G54D150*
X2023626Y1641500D03*
X2015752D03*
X2007878D03*
X2000004D03*
X1992130D03*
X1984256D03*
X1976382D03*
X1968508D03*
X1960634D03*
X1952760D03*
X1944886D03*
X2023626Y1558500D03*
X2015752D03*
X2007878D03*
X2000004D03*
X1992130D03*
X1984256D03*
X1976382D03*
X1968508D03*
X1960634D03*
X1952760D03*
G54D182*
X2015260Y1543862D03*
X2023134D03*
X2027400Y1660400D03*
X2019526D03*
X2011652D03*
G54D187*
X1993507Y1667480D03*
Y1652520D03*
X1988507Y1667480D03*
Y1652520D03*
X1983507Y1667480D03*
Y1652520D03*
X1978507Y1667480D03*
Y1652520D03*
X1973507Y1667480D03*
Y1652520D03*
X1968507Y1667480D03*
Y1652520D03*
X1963507Y1667480D03*
Y1652520D03*
X1958507Y1667480D03*
Y1652520D03*
X1953507Y1667480D03*
Y1652520D03*
X1948507Y1667480D03*
Y1652520D03*
X1993487Y1547480D03*
Y1532520D03*
X1988487Y1547480D03*
Y1532520D03*
X1983487Y1547480D03*
Y1532520D03*
X1978487Y1547480D03*
Y1532520D03*
X1973487Y1547480D03*
Y1532520D03*
X1968487Y1547480D03*
Y1532520D03*
X1963487Y1547480D03*
Y1532520D03*
X1958487Y1547480D03*
Y1532520D03*
X1953487Y1547480D03*
Y1532520D03*
X1948487Y1547480D03*
Y1532520D03*
X0Y0D02*
M02*
