*
*
G04 PADS 9.3 Build Number: 433611 generated Gerber (RS-274-X) file*
G04 PC Version=2.1*
*
%IN "WG1300E00T-PCB-D01_2012"*%
*
%MOIN*%
*
%FSLAX35Y35*%
*
*
*
*
G04 PC Standard Apertures*
*
*
G04 Thermal Relief Aperture macro.*
%AMTER*
1,1,$1,0,0*
1,0,$1-$2,0,0*
21,0,$3,$4,0,0,45*
21,0,$3,$4,0,0,135*
%
*
*
G04 Annular Aperture macro.*
%AMANN*
1,1,$1,0,0*
1,0,$2,0,0*
%
*
*
G04 Odd Aperture macro.*
%AMODD*
1,1,$1,0,0*
1,0,$1-0.005,0,0*
%
*
*
G04 PC Custom Aperture Macros*
*
*
*
*
*
*
G04 PC Aperture Table*
*
%ADD014C,0.01*%
%ADD137C,0.00004*%
%ADD144C,0.05118*%
%ADD149R,0.06X0.06*%
%ADD150C,0.06*%
%ADD152C,0.02*%
%ADD154C,0.018*%
*
*
*
*
G04 PC Circuitry*
G04 Layer Name WG1300E00T-PCB-D01_2012 - circuitry*
%LPD*%
*
*
G04 PC Custom Flashes*
G04 Layer Name WG1300E00T-PCB-D01_2012 - flashes*
%LPD*%
*
*
G04 PC Circuitry*
G04 Layer Name WG1300E00T-PCB-D01_2012 - circuitry*
%LPD*%
*
G54D14*
G01X2003286Y1540000D02*
G75*
G03X2003286I-3756J0D01*
G01X1960700Y1542200D02*
G03X1960700I-2100J0D01*
G01X1996056Y1566900D02*
G03X1996056I-2100J0D01*
G01X1990300D02*
G03X1990300I-2100J0D01*
G01X1991356Y1632500D02*
G03X1991356I-2100J0D01*
G01X1981356D02*
G03X1981356I-2100J0D01*
G01X1965106Y1573000D02*
G03X1965106I-2100J0D01*
G01X1945412Y1540000D02*
G03X1945412I-2969J0D01*
G01X2003306Y1660000D02*
G03X2003306I-3756J0D01*
G01X1945432D02*
G03X1945432I-2969J0D01*
G01X2063256Y1525000D02*
Y1635670D01*
G03X2062756Y1636170I-500J-0*
G01X2032740*
X2032240Y1636670D02*
G03X2032740Y1636170I500J-0D01*
G01X2032240Y1636670D02*
Y1636800D01*
G03X2031740Y1637300I-500J-0*
G01X2028500*
X2027337Y1638205D02*
G03X2028500Y1637300I1163J295D01*
G01X2027337Y1638205D02*
G03X2026509Y1638446I-485J-123D01*
G01X2020108Y1639206D02*
G03X2026509Y1638446I3518J2294D01*
G01X2020108Y1639206D02*
G03X2019270I-419J-273D01*
G01X2012234D02*
G03X2019270I3518J2294D01*
G01X2012234D02*
G03X2011396I-419J-273D01*
G01X2004360D02*
G03X2011396I3518J2294D01*
G01X2004360D02*
G03X2003522I-419J-273D01*
G01X1996486D02*
G03X2003522I3518J2294D01*
G01X1996486D02*
G03X1995648I-419J-273D01*
G01X1988612D02*
G03X1995648I3518J2294D01*
G01X1988612D02*
G03X1987774I-419J-273D01*
G01X1980738D02*
G03X1987774I3518J2294D01*
G01X1980738D02*
G03X1979900I-419J-273D01*
G01X1972864D02*
G03X1979900I3518J2294D01*
G01X1972864D02*
G03X1972026I-419J-273D01*
G01X1964990D02*
G03X1972026I3518J2294D01*
G01X1964990D02*
G03X1964152I-419J-273D01*
G01X1957116D02*
G03X1964152I3518J2294D01*
G01X1957116D02*
G03X1956278I-419J-273D01*
G01X1949242D02*
G03X1956278I3518J2294D01*
G01X1949242D02*
G03X1948404I-419J-273D01*
G01X1946031Y1645541D02*
G03X1948404Y1639206I-1145J-4041D01*
G01X1946031Y1645541D02*
G03X1946565Y1646326I137J481D01*
G01X1948052Y1645510D02*
G03X1946565Y1646326I180J2092D01*
G01X1948052Y1645510D02*
G03X1947677Y1644638I-43J-498D01*
G01X1948404Y1643794D02*
G03X1947677Y1644638I-3518J-2294D01*
G01X1948404Y1643794D02*
G03X1949242I419J273D01*
G01X1956278D02*
G03X1949242I-3518J-2294D01*
G01X1956278D02*
G03X1957116I419J273D01*
G01X1957212Y1643936D02*
G03X1957116Y1643794I3422J-2436D01*
G01X1957212Y1643936D02*
G03X1957125Y1644610I-407J290D01*
G01X1960568Y1646188D02*
G03X1957125Y1644610I-2100J36D01*
G01X1960568Y1646188D02*
G03X1961022Y1645682I500J-8D01*
G01X1961611Y1645585D02*
G03X1961022Y1645682I-977J-4085D01*
G01X1961611Y1645585D02*
G03X1962146Y1646346I117J486D01*
G01X1963883Y1645400D02*
G03X1962146Y1646346I17J2100D01*
G01X1963883Y1645400D02*
G03X1963534Y1644538I-4J-500D01*
G01X1964152Y1643794D02*
G03X1963533Y1644538I-3518J-2294D01*
G01X1964152Y1643794D02*
G03X1964990I419J273D01*
G01X1972026D02*
G03X1964990I-3518J-2294D01*
G01X1972026D02*
G03X1972864I419J273D01*
G01X1979900D02*
G03X1972864I-3518J-2294D01*
G01X1979900D02*
G03X1980738I419J273D01*
G01X1987774D02*
G03X1980738I-3518J-2294D01*
G01X1987774D02*
G03X1988612I419J273D01*
G01X1995648D02*
G03X1988612I-3518J-2294D01*
G01X1995648D02*
G03X1996486I419J273D01*
G01X2003522D02*
G03X1996486I-3518J-2294D01*
G01X2003522D02*
G03X2004360I419J273D01*
G01X2011396D02*
G03X2004360I-3518J-2294D01*
G01X2011396D02*
G03X2012234I419J273D01*
G01X2019270D02*
G03X2012234I-3518J-2294D01*
G01X2019270D02*
G03X2020108I419J273D01*
G01X2026509Y1644554D02*
G03X2020108Y1643794I-2883J-3054D01*
G01X2026509Y1644554D02*
G03X2027337Y1644795I343J364D01*
G01X2028500Y1645700D02*
G03X2027337Y1644795I-0J-1200D01*
G01X2028500Y1645700D02*
X2031740D01*
G03X2032240Y1646200I-0J500*
G01Y1675000*
G03X2031740Y1675500I-500J0*
G01X1937256*
G03X1936756Y1675000I-0J-500*
G01Y1525000*
G03X1937256Y1524500I500J0*
G01X2062756*
G03X2063256Y1525000I-0J500*
G01X2019659Y1542428D02*
G03Y1545296I3475J1434D01*
G01Y1542428D02*
G03X2018735I-462J-191D01*
G01Y1545296D02*
G03Y1542428I-3475J-1434D01*
G01Y1545296D02*
G03X2019659I462J191D01*
G01X2003286Y1540000D02*
G03X2003286I-3756J0D01*
G01X1980269Y1541769D02*
G03X1977311Y1544631I-1769J1131D01*
G01X1980269Y1541769D02*
G03Y1541231I422J-269D01*
G01X1977450Y1538281D02*
G03X1980269Y1541231I1050J1819D01*
G01X1977450Y1538281D02*
G03X1976950I-250J-433D01*
G01X1974931Y1538237D02*
G03X1976950Y1538281I969J1863D01*
G01X1974931Y1538237D02*
G03X1974469I-231J-444D01*
G01X1971730Y1541231D02*
G03X1974469Y1538237I1770J-1131D01*
G01X1971730Y1541231D02*
G03Y1541769I-421J269D01*
G01X1974624Y1544674D02*
G03X1971730Y1541769I-1124J-1774D01*
G01X1974624Y1544674D02*
G03X1975085Y1544636I267J422D01*
G01X1976811Y1544592D02*
G03X1975085Y1544636I-911J-1892D01*
G01X1976811Y1544592D02*
G03X1977311Y1544631I216J451D01*
G01X1960700Y1542200D02*
G03X1960700I-2100J0D01*
G01X2035700Y1561500D02*
Y1555500D01*
X2034500Y1554300D02*
G03X2035700Y1555500I-0J1200D01*
G01X2034500Y1554300D02*
X2028500D01*
X2027337Y1555205D02*
G03X2028500Y1554300I1163J295D01*
G01X2027337Y1555205D02*
G03X2026509Y1555446I-485J-123D01*
G01X2020108Y1556206D02*
G03X2026509Y1555446I3518J2294D01*
G01X2020108Y1556206D02*
G03X2019270I-419J-273D01*
G01X2012234D02*
G03X2019270I3518J2294D01*
G01X2012234D02*
G03X2011396I-419J-273D01*
G01X2004360D02*
G03X2011396I3518J2294D01*
G01X2004360D02*
G03X2003522I-419J-273D01*
G01X1996486D02*
G03X2003522I3518J2294D01*
G01X1996486D02*
G03X1995648I-419J-273D01*
G01X1988612D02*
G03X1995648I3518J2294D01*
G01X1988612D02*
G03X1987774I-419J-273D01*
G01X1980738D02*
G03X1987774I3518J2294D01*
G01X1980738D02*
G03X1979900I-419J-273D01*
G01X1972864D02*
G03X1979900I3518J2294D01*
G01X1972864D02*
G03X1972026I-419J-273D01*
G01X1964990D02*
G03X1972026I3518J2294D01*
G01X1964990D02*
G03X1964152I-419J-273D01*
G01X1957116D02*
G03X1964152I3518J2294D01*
G01X1957116D02*
G03X1956278I-419J-273D01*
G01Y1560794D02*
G03Y1556206I-3518J-2294D01*
G01Y1560794D02*
G03X1957116I419J273D01*
G01X1964152D02*
G03X1957116I-3518J-2294D01*
G01X1964152D02*
G03X1964990I419J273D01*
G01X1972026D02*
G03X1964990I-3518J-2294D01*
G01X1972026D02*
G03X1972864I419J273D01*
G01X1979900D02*
G03X1972864I-3518J-2294D01*
G01X1979900D02*
G03X1980738I419J273D01*
G01X1987774D02*
G03X1980738I-3518J-2294D01*
G01X1987774D02*
G03X1988612I419J273D01*
G01X1995648D02*
G03X1988612I-3518J-2294D01*
G01X1995648D02*
G03X1996486I419J273D01*
G01X2003522D02*
G03X1996486I-3518J-2294D01*
G01X2003522D02*
G03X2004360I419J273D01*
G01X2011396D02*
G03X2004360I-3518J-2294D01*
G01X2011396D02*
G03X2012234I419J273D01*
G01X2019270D02*
G03X2012234I-3518J-2294D01*
G01X2019270D02*
G03X2020108I419J273D01*
G01X2026509Y1561554D02*
G03X2020108Y1560794I-2883J-3054D01*
G01X2026509Y1561554D02*
G03X2027337Y1561795I343J364D01*
G01X2028500Y1562700D02*
G03X2027337Y1561795I-0J-1200D01*
G01X2028500Y1562700D02*
X2034500D01*
X2035700Y1561500D02*
G03X2034500Y1562700I-1200J0D01*
G01X1996056Y1566900D02*
G03X1996056I-2100J0D01*
G01X1990300D02*
G03X1990300I-2100J0D01*
G01X1991356Y1632500D02*
G03X1991356I-2100J0D01*
G01X1981356D02*
G03X1981356I-2100J0D01*
G01X1965106Y1573000D02*
G03X1965106I-2100J0D01*
G01X1945412Y1540000D02*
G03X1945412I-2969J0D01*
G01X2023925Y1658966D02*
G03Y1661834I3475J1434D01*
G01Y1658966D02*
G03X2023001I-462J-191D01*
G01X2016051D02*
G03X2023001I3475J1434D01*
G01X2016051D02*
G03X2015127I-462J-191D01*
G01Y1661834D02*
G03Y1658966I-3475J-1434D01*
G01Y1661834D02*
G03X2016051I462J191D01*
G01X2023001D02*
G03X2016051I-3475J-1434D01*
G01X2023001D02*
G03X2023925I462J191D01*
G01X2003306Y1660000D02*
G03X2003306I-3756J0D01*
G01X1982275Y1660671D02*
G03X1982098Y1663768I1325J1629D01*
G01X1982275Y1660671D02*
G03X1981602Y1660632I-316J-388D01*
G01X1981425Y1663729D02*
G03X1981602Y1660632I-1325J-1629D01*
G01X1981425Y1663729D02*
G03X1982098Y1663768I315J388D01*
G01X1945432Y1660000D02*
G03X1945432I-2969J0D01*
G01X1936756Y1635199D02*
X2063256D01*
X1990340Y1634299D02*
X2063256D01*
X1991154Y1633399D02*
X2063256D01*
X1991356Y1632499D02*
X2063256D01*
X1991153Y1631599D02*
X2063256D01*
X1990335Y1630699D02*
X2063256D01*
X1936756Y1629799D02*
X2063256D01*
X1936756Y1628899D02*
X2063256D01*
X1936756Y1627999D02*
X2063256D01*
X1936756Y1627099D02*
X2063256D01*
X1936756Y1626199D02*
X2063256D01*
X1936756Y1625299D02*
X2063256D01*
X1936756Y1624399D02*
X2063256D01*
X1936756Y1623499D02*
X2063256D01*
X1936756Y1622599D02*
X2063256D01*
X1936756Y1621699D02*
X2063256D01*
X1936756Y1620799D02*
X2063256D01*
X1936756Y1619899D02*
X2063256D01*
X1936756Y1618999D02*
X2063256D01*
X1936756Y1618099D02*
X2063256D01*
X1936756Y1617199D02*
X2063256D01*
X1936756Y1616299D02*
X2063256D01*
X1936756Y1615399D02*
X2063256D01*
X1936756Y1614499D02*
X2063256D01*
X1936756Y1613599D02*
X2063256D01*
X1936756Y1612699D02*
X2063256D01*
X1936756Y1611799D02*
X2063256D01*
X1936756Y1610899D02*
X2063256D01*
X1936756Y1609999D02*
X2063256D01*
X1936756Y1609099D02*
X2063256D01*
X1936756Y1608199D02*
X2063256D01*
X1936756Y1607299D02*
X2063256D01*
X1936756Y1606399D02*
X2063256D01*
X1936756Y1605499D02*
X2063256D01*
X1936756Y1604599D02*
X2063256D01*
X1936756Y1603699D02*
X2063256D01*
X1936756Y1602799D02*
X2063256D01*
X1936756Y1601899D02*
X2063256D01*
X1936756Y1600999D02*
X2063256D01*
X1936756Y1600099D02*
X2063256D01*
X1936756Y1599199D02*
X2063256D01*
X1936756Y1598299D02*
X2063256D01*
X1936756Y1597399D02*
X2063256D01*
X1936756Y1596499D02*
X2063256D01*
X1936756Y1595599D02*
X2063256D01*
X1936756Y1594699D02*
X2063256D01*
X1936756Y1593799D02*
X2063256D01*
X1936756Y1592899D02*
X2063256D01*
X1936756Y1591999D02*
X2063256D01*
X1936756Y1591099D02*
X2063256D01*
X1936756Y1590199D02*
X2063256D01*
X1936756Y1589299D02*
X2063256D01*
X1936756Y1588399D02*
X2063256D01*
X1936756Y1587499D02*
X2063256D01*
X1936756Y1586599D02*
X2063256D01*
X1936756Y1585699D02*
X2063256D01*
X1936756Y1584799D02*
X2063256D01*
X1936756Y1583899D02*
X2063256D01*
X1936756Y1582999D02*
X2063256D01*
X1936756Y1582099D02*
X2063256D01*
X1936756Y1581199D02*
X2063256D01*
X1936756Y1580299D02*
X2063256D01*
X1936756Y1579399D02*
X2063256D01*
X1936756Y1578499D02*
X2063256D01*
X1936756Y1577599D02*
X2063256D01*
X1936756Y1576699D02*
X2063256D01*
X1936756Y1575799D02*
X2063256D01*
X1963903Y1574899D02*
X2063256D01*
X1964853Y1573999D02*
X2063256D01*
X1965104Y1573099D02*
X2063256D01*
X1964947Y1572199D02*
X2063256D01*
X1964237Y1571299D02*
X2063256D01*
X1936756Y1570399D02*
X2063256D01*
X1936756Y1569499D02*
X2063256D01*
X1995191Y1568599D02*
X2063256D01*
X1995898Y1567699D02*
X2063256D01*
X1996053Y1566799D02*
X2063256D01*
X1995802Y1565899D02*
X2063256D01*
X1994848Y1564999D02*
X2063256D01*
X1936756Y1564099D02*
X2063256D01*
X1936756Y1563199D02*
X2063256D01*
X2035396Y1562299D02*
X2063256D01*
X2035700Y1561399D02*
X2063256D01*
X2035700Y1560499D02*
X2063256D01*
X2035700Y1559599D02*
X2063256D01*
X2035700Y1558699D02*
X2063256D01*
X2035700Y1557799D02*
X2063256D01*
X2035700Y1556899D02*
X2063256D01*
X2035700Y1555999D02*
X2063256D01*
X2035631Y1555099D02*
X2063256D01*
X1936756Y1554199D02*
X2063256D01*
X1936756Y1553299D02*
X2063256D01*
X1936756Y1552399D02*
X2063256D01*
X1936756Y1551499D02*
X2063256D01*
X1936756Y1550599D02*
X2063256D01*
X1936756Y1549699D02*
X2063256D01*
X1936756Y1548799D02*
X2063256D01*
X1936756Y1547899D02*
X2063256D01*
X2025206Y1546999D02*
X2063256D01*
X2026155Y1546099D02*
X2063256D01*
X2026647Y1545199D02*
X2063256D01*
X2026867Y1544299D02*
X2063256D01*
X2026864Y1543399D02*
X2063256D01*
X2026637Y1542499D02*
X2063256D01*
X2026135Y1541599D02*
X2063256D01*
X2025164Y1540699D02*
X2063256D01*
X2003280Y1539799D02*
X2063256D01*
X2003121Y1538899D02*
X2063256D01*
X2002708Y1537999D02*
X2063256D01*
X2001915Y1537099D02*
X2063256D01*
X1936756Y1536199D02*
X2063256D01*
X1936756Y1535299D02*
X2063256D01*
X1936756Y1534399D02*
X2063256D01*
X1936756Y1533499D02*
X2063256D01*
X1936756Y1532599D02*
X2063256D01*
X1936756Y1531699D02*
X2063256D01*
X1936756Y1530799D02*
X2063256D01*
X1936756Y1529899D02*
X2063256D01*
X1936756Y1528999D02*
X2063256D01*
X1936756Y1528099D02*
X2063256D01*
X1936756Y1527199D02*
X2063256D01*
X1936756Y1526299D02*
X2063256D01*
X1936756Y1525399D02*
X2063256D01*
X1936756Y1636099D02*
X2063013D01*
X1965912Y1646899D02*
X2032240D01*
X1965979Y1647799D02*
X2032240D01*
X1965624Y1648699D02*
X2032240D01*
X1963975Y1649599D02*
X2032240D01*
X1936756Y1650499D02*
X2032240D01*
X1936756Y1651399D02*
X2032240D01*
X1936756Y1652299D02*
X2032240D01*
X1936756Y1653199D02*
X2032240D01*
X1936756Y1654099D02*
X2032240D01*
X1936756Y1654999D02*
X2032240D01*
X1936756Y1655899D02*
X2032240D01*
X2028478Y1656799D02*
X2032240D01*
X2030014Y1657699D02*
X2032240D01*
X2030699Y1658599D02*
X2032240D01*
X2031049Y1659499D02*
X2032240D01*
X2031159Y1660399D02*
X2032240D01*
X2031050Y1661299D02*
X2032240D01*
X2030701Y1662199D02*
X2032240D01*
X2030017Y1663099D02*
X2032240D01*
X2028486Y1663999D02*
X2032240D01*
X1936756Y1664899D02*
X2032240D01*
X1936756Y1665799D02*
X2032240D01*
X1936756Y1666699D02*
X2032240D01*
X1936756Y1667599D02*
X2032240D01*
X1936756Y1668499D02*
X2032240D01*
X1936756Y1669399D02*
X2032240D01*
X1936756Y1670299D02*
X2032240D01*
X1936756Y1671199D02*
X2032240D01*
X1936756Y1672099D02*
X2032240D01*
X1936756Y1672999D02*
X2032240D01*
X1936756Y1673899D02*
X2032240D01*
X1936756Y1674799D02*
X2032240D01*
X1936756Y1636999D02*
X2032199D01*
X1965368Y1645999D02*
X2032198D01*
X2025418Y1562299D02*
X2027604D01*
X2025787Y1637899D02*
X2027461D01*
X2025791Y1645099D02*
X2027460D01*
X2026090Y1555099D02*
X2027369D01*
X2020604Y1656799D02*
X2026322D01*
X2020612Y1663999D02*
X2026314D01*
X2022140Y1657699D02*
X2024786D01*
X2022143Y1663099D02*
X2024783D01*
X2022825Y1658599D02*
X2024101D01*
X2022827Y1662199D02*
X2024099D01*
X2017544Y1562299D02*
X2021834D01*
X2017913Y1637899D02*
X2021465D01*
X2017917Y1645099D02*
X2021460D01*
X2018216Y1555099D02*
X2021162D01*
X2017290Y1540699D02*
X2021103D01*
X2017332Y1546999D02*
X2021062D01*
X2018791Y1561399D02*
X2020587D01*
X2018968Y1638799D02*
X2020410D01*
X2018970Y1644199D02*
X2020408D01*
X2019126Y1555999D02*
X2020252D01*
X2018261Y1541599D02*
X2020133D01*
X2018281Y1546099D02*
X2020112D01*
X2018770Y1542499D02*
X2019623D01*
X2018788Y1545199D02*
X2019605D01*
X2012730Y1656799D02*
X2018448D01*
X2012738Y1663999D02*
X2018440D01*
X2014266Y1657699D02*
X2016912D01*
X2014269Y1663099D02*
X2016909D01*
X2014951Y1658599D02*
X2016227D01*
X2014953Y1662199D02*
X2016225D01*
X2009670Y1562299D02*
X2013960D01*
X2010039Y1637899D02*
X2013591D01*
X2010043Y1645099D02*
X2013586D01*
X2010342Y1555099D02*
X2013288D01*
X2003220Y1540699D02*
X2013229D01*
X1936756Y1546999D02*
X2013188D01*
X2010917Y1561399D02*
X2012713D01*
X2011094Y1638799D02*
X2012536D01*
X2011096Y1644199D02*
X2012534D01*
X2011252Y1555999D02*
X2012378D01*
X2002929Y1541599D02*
X2012259D01*
X1936756Y1546099D02*
X2012238D01*
X2002334Y1542499D02*
X2011757D01*
X1936756Y1545199D02*
X2011746D01*
X2001129Y1543399D02*
X2011529D01*
X1980066Y1544299D02*
X2011526D01*
X2001514Y1656799D02*
X2010574D01*
X1984835Y1663999D02*
X2010566D01*
X2002518Y1657699D02*
X2009038D01*
X2001672Y1663099D02*
X2009035D01*
X2003035Y1658599D02*
X2008353D01*
X2002595Y1662199D02*
X2008351D01*
X2003272Y1659499D02*
X2008003D01*
X2003074Y1661299D02*
X2008002D01*
X2003285Y1660399D02*
X2007893D01*
X2001796Y1562299D02*
X2006086D01*
X2002165Y1637899D02*
X2005717D01*
X2002169Y1645099D02*
X2005712D01*
X2002468Y1555099D02*
X2005414D01*
X2003043Y1561399D02*
X2004838D01*
X2003220Y1638799D02*
X2004662D01*
X2003222Y1644199D02*
X2004660D01*
X2003378Y1555999D02*
X2004504D01*
X1993922Y1562299D02*
X1998212D01*
X1980540Y1543399D02*
X1997931D01*
X1994291Y1637899D02*
X1997843D01*
X1994295Y1645099D02*
X1997838D01*
X1936756Y1656799D02*
X1997586D01*
X1994594Y1555099D02*
X1997540D01*
X1985542Y1663099D02*
X1997427D01*
X1943071Y1537099D02*
X1997145D01*
X1995169Y1561399D02*
X1996964D01*
X1995346Y1638799D02*
X1996788D01*
X1995348Y1644199D02*
X1996786D01*
X1980561Y1542499D02*
X1996726D01*
X1995504Y1555999D02*
X1996630D01*
X1944338Y1657699D02*
X1996582D01*
X1985697Y1662199D02*
X1996505D01*
X1944636Y1537999D02*
X1996352D01*
X1980201Y1541599D02*
X1996131D01*
X1945080Y1658599D02*
X1996065D01*
X1985446Y1661299D02*
X1996026D01*
X1980222Y1538899D02*
X1995939D01*
X1980513Y1540699D02*
X1995840D01*
X1945389Y1659499D02*
X1995828D01*
X1984492Y1660399D02*
X1995815D01*
X1980578Y1539799D02*
X1995779D01*
X1989092Y1564999D02*
X1993064D01*
X1989435Y1568599D02*
X1992721D01*
X1990046Y1565899D02*
X1992110D01*
X1990142Y1567699D02*
X1992014D01*
X1990297Y1566799D02*
X1991858D01*
X1986047Y1562299D02*
X1990338D01*
X1986417Y1637899D02*
X1989969D01*
X1986421Y1645099D02*
X1989964D01*
X1986720Y1555099D02*
X1989666D01*
X1987295Y1561399D02*
X1989090D01*
X1987472Y1638799D02*
X1988914D01*
X1987474Y1644199D02*
X1988912D01*
X1987630Y1555999D02*
X1988756D01*
X1980335Y1630699D02*
X1988176D01*
X1980340Y1634299D02*
X1988172D01*
X1981153Y1631599D02*
X1987359D01*
X1981154Y1633399D02*
X1987358D01*
X1936756Y1564999D02*
X1987308D01*
X1981356Y1632499D02*
X1987156D01*
X1936756Y1568599D02*
X1986965D01*
X1936756Y1565899D02*
X1986354D01*
X1936756Y1567699D02*
X1986258D01*
X1936756Y1566799D02*
X1986102D01*
X1981331Y1660399D02*
X1982708D01*
X1978173Y1562299D02*
X1982464D01*
X1980997Y1663999D02*
X1982365D01*
X1978543Y1637899D02*
X1982095D01*
X1978547Y1645099D02*
X1982090D01*
X1978846Y1555099D02*
X1981792D01*
X1979421Y1561399D02*
X1981216D01*
X1979598Y1638799D02*
X1981040D01*
X1979600Y1644199D02*
X1981038D01*
X1979756Y1555999D02*
X1980882D01*
X1936756Y1663999D02*
X1979203D01*
X1945405Y1660399D02*
X1978869D01*
X1936756Y1663099D02*
X1978253D01*
X1936756Y1630699D02*
X1978176D01*
X1936756Y1634299D02*
X1978172D01*
X1945133Y1661299D02*
X1978159D01*
X1944458Y1662199D02*
X1978002D01*
X1936756Y1631599D02*
X1977359D01*
X1936756Y1633399D02*
X1977358D01*
X1936756Y1632499D02*
X1977156D01*
X1970299Y1562299D02*
X1974590D01*
X1970669Y1637899D02*
X1974221D01*
X1970673Y1645099D02*
X1974216D01*
X1970972Y1555099D02*
X1973918D01*
X1971547Y1561399D02*
X1973342D01*
X1971724Y1638799D02*
X1973166D01*
X1971726Y1644199D02*
X1973164D01*
X1971882Y1555999D02*
X1973008D01*
X1958675Y1544299D02*
X1971933D01*
X1960612Y1541599D02*
X1971799D01*
X1945200Y1538899D02*
X1971777D01*
X1960068Y1540699D02*
X1971487D01*
X1960324Y1543399D02*
X1971460D01*
X1960679Y1542499D02*
X1971439D01*
X1945405Y1539799D02*
X1971422D01*
X1962425Y1562299D02*
X1966716D01*
X1962795Y1637899D02*
X1966347D01*
X1963420Y1645099D02*
X1966342D01*
X1963098Y1555099D02*
X1966044D01*
X1963673Y1561399D02*
X1965468D01*
X1963850Y1638799D02*
X1965292D01*
X1963852Y1644199D02*
X1965289D01*
X1964008Y1555999D02*
X1965134D01*
X1948884Y1649599D02*
X1963825D01*
X1960602Y1645999D02*
X1962223D01*
X1950023Y1648699D02*
X1962176D01*
X1936756Y1574899D02*
X1962109D01*
X1960457Y1646899D02*
X1961888D01*
X1959858Y1647799D02*
X1961821D01*
X1936756Y1571299D02*
X1961775D01*
X1936756Y1573999D02*
X1961159D01*
X1936756Y1572199D02*
X1961065D01*
X1936756Y1573099D02*
X1960908D01*
X1954551Y1562299D02*
X1958842D01*
X1936756Y1544299D02*
X1958525D01*
X1954921Y1637899D02*
X1958473D01*
X1955224Y1555099D02*
X1958170D01*
X1955799Y1561399D02*
X1957594D01*
X1955976Y1638799D02*
X1957418D01*
X1955978Y1644199D02*
X1957304D01*
X1956134Y1555999D02*
X1957260D01*
X1945328Y1540699D02*
X1957132D01*
X1950323Y1647799D02*
X1957079D01*
X1936756Y1543399D02*
X1956876D01*
X1954925Y1645099D02*
X1956696D01*
X1944945Y1541599D02*
X1956588D01*
X1944046Y1542499D02*
X1956521D01*
X1950211Y1646899D02*
X1956480D01*
X1949588Y1645999D02*
X1956381D01*
X1936756Y1562299D02*
X1950968D01*
X1947047Y1637899D02*
X1950599D01*
X1947517Y1645099D02*
X1950594D01*
X1936756Y1555099D02*
X1950296D01*
X1936756Y1561399D02*
X1949720D01*
X1948102Y1638799D02*
X1949544D01*
X1948104Y1644199D02*
X1949541D01*
X1936756Y1555999D02*
X1949386D01*
X1936756Y1560499D02*
X1949066D01*
X1936756Y1556899D02*
X1948877D01*
X1936756Y1559599D02*
X1948706D01*
X1936756Y1557799D02*
X1948619D01*
X1936756Y1558699D02*
X1948564D01*
X1936756Y1649599D02*
X1947580D01*
X1936756Y1645999D02*
X1946667D01*
X1936756Y1648699D02*
X1946441D01*
X1936756Y1646899D02*
X1946254D01*
X1936756Y1647799D02*
X1946141D01*
X1936756Y1637899D02*
X1942725D01*
X1936756Y1645099D02*
X1942720D01*
X1936756Y1537099D02*
X1941815D01*
X1936756Y1638799D02*
X1941670D01*
X1936756Y1644199D02*
X1941667D01*
X1936756Y1639699D02*
X1941092D01*
X1936756Y1643299D02*
X1941090D01*
X1936756Y1542499D02*
X1940841D01*
X1936756Y1640599D02*
X1940784D01*
X1936756Y1642399D02*
X1940783D01*
X1936756Y1641499D02*
X1940686D01*
X1936756Y1657699D02*
X1940588D01*
X1936756Y1662199D02*
X1940469D01*
X1936756Y1537999D02*
X1940251D01*
X1936756Y1541599D02*
X1939942D01*
X1936756Y1658599D02*
X1939846D01*
X1936756Y1661299D02*
X1939794D01*
X1936756Y1538899D02*
X1939687D01*
X1936756Y1540699D02*
X1939558D01*
X1936756Y1659499D02*
X1939537D01*
X1936756Y1660399D02*
X1939522D01*
X1936756Y1539799D02*
X1939482D01*
X1935000Y1522500D02*
X2065000D01*
Y1677500*
X1935000*
Y1522500*
G54D137*
G54D144*
X2015260Y1543862D03*
X2023134D03*
X2027400Y1660400D03*
X2019526D03*
X2011652D03*
G54D149*
X2031500Y1641500D03*
Y1558500D03*
G54D150*
X2023626Y1641500D03*
X2015752D03*
X2007878D03*
X2000004D03*
X1992130D03*
X1984256D03*
X1976382D03*
X1968508D03*
X1960634D03*
X1952760D03*
X1944886D03*
X2023626Y1558500D03*
X2015752D03*
X2007878D03*
X2000004D03*
X1992130D03*
X1984256D03*
X1976382D03*
X1968508D03*
X1960634D03*
X1952760D03*
G54D152*
X1992130Y1554300D02*
Y1555500D01*
Y1562700D02*
Y1561500D01*
X1984256Y1554300D02*
Y1555500D01*
Y1562700D02*
Y1561500D01*
Y1637300D02*
Y1638500D01*
Y1645700D02*
Y1644500D01*
X1960634Y1554300D02*
Y1555500D01*
Y1562700D02*
Y1561500D01*
X2031500Y1645700D02*
Y1644500D01*
Y1637300D02*
Y1638500D01*
X2027400Y1656641D02*
Y1657841D01*
X2031159Y1660400D02*
X2029959D01*
X2027400Y1664159D02*
Y1662959D01*
G54D154*
X1941500Y1531500D03*
X1993500Y1527500D03*
X2001500Y1531500D03*
X2011500D03*
X2021500D03*
X2031500D03*
X2041500D03*
X2051500D03*
X2061500D03*
X1941500Y1551500D03*
X1973500Y1540100D03*
Y1542900D03*
X1975900Y1540100D03*
Y1542700D03*
X1961900Y1540700D03*
X1968500Y1540000D03*
X1958600Y1542200D03*
X1978500Y1542900D03*
Y1540100D03*
X1988500Y1540000D03*
X1993500Y1537500D03*
X2006500Y1539000D03*
X2004000Y1551500D03*
X2011500D03*
X2021500D03*
X2031500D03*
Y1539000D03*
X2019000D03*
X2051500Y1551500D03*
Y1541500D03*
X2041500D03*
X2061500D03*
Y1551500D03*
X1944900Y1556100D03*
X1941500Y1571400D03*
Y1561500D03*
X1938000Y1567400D03*
X1957300Y1570100D03*
X1974000D03*
X1967700Y1573200D03*
X1976800Y1572700D03*
X1959600Y1572300D03*
X1961900Y1569700D03*
X1963006Y1573000D03*
X1991300Y1573300D03*
X1992800Y1570100D03*
X1993956Y1566900D03*
X1988200D03*
X1987700Y1570100D03*
X2013900Y1573300D03*
X2031500Y1571500D03*
X2051500D03*
Y1561500D03*
X2041500Y1571500D03*
X2061500Y1561500D03*
Y1571500D03*
X1941500Y1591500D03*
Y1581500D03*
X1951500Y1577000D03*
Y1583500D03*
X1951750Y1592750D03*
X1941256Y1595500D03*
X1961500Y1589000D03*
X1975000Y1589500D03*
X1966500Y1581500D03*
X1976500D03*
X1959500Y1593000D03*
X1991500Y1581500D03*
X1989500Y1589500D03*
X2001500Y1581500D03*
X2003500Y1589500D03*
X2016750Y1593000D03*
X2016800Y1577100D03*
X2026400Y1585800D03*
X2031500Y1581500D03*
Y1591500D03*
X2021500D03*
X2040000Y1594500D03*
X2045500Y1592000D03*
X2048000Y1591000D03*
X2051000D03*
X2054000Y1587000D03*
X2055500Y1593500D03*
X2051500Y1581500D03*
X2042500Y1592500D03*
X2041500Y1581500D03*
X2059000Y1587000D03*
X2058500Y1594000D03*
X2062000Y1586500D03*
Y1591500D03*
X2061500Y1581500D03*
X1940756Y1615500D03*
X1961500Y1596500D03*
Y1604000D03*
Y1611500D03*
X1975000Y1610500D03*
Y1604000D03*
Y1596500D03*
X1989500Y1610500D03*
Y1604000D03*
Y1596500D03*
X2007000Y1613500D03*
Y1610000D03*
X2009000Y1607000D03*
X2003500Y1596500D03*
Y1603500D03*
Y1610500D03*
X2016750Y1602250D03*
Y1597500D03*
X2017000Y1607500D03*
X2020000D03*
X2023000D03*
X2026000D03*
X2029000D03*
X2032000D03*
X2035000D03*
X2031500Y1601500D03*
X2021500D03*
X2046000Y1604000D03*
X2055500Y1596500D03*
X2037500Y1607500D03*
Y1604500D03*
X2038000Y1597500D03*
X2050000Y1601500D03*
X2055500Y1599000D03*
X2054900Y1609100D03*
X2052200Y1607900D03*
X2046000Y1600500D03*
Y1607500D03*
X2049200Y1607600D03*
X2037500Y1601000D03*
X2058500Y1599000D03*
X2057000Y1610900D03*
X2062000Y1596500D03*
Y1601500D03*
X2058800Y1613600D03*
X2062000Y1606500D03*
X1941500Y1631500D03*
Y1621500D03*
X1956700Y1627100D03*
X1940900Y1634500D03*
X1967750Y1626750D03*
X1974000Y1616500D03*
X1959500D03*
X1963000Y1626750D03*
Y1619250D03*
X1967750D03*
X1984000Y1616500D03*
X1996500D03*
X1979256Y1632500D03*
X1989256D03*
X2008500Y1623000D03*
X2009000Y1616500D03*
X2016750Y1623000D03*
X2035000Y1616000D03*
X2032000D03*
X2029000D03*
X2026000D03*
X2023000D03*
X2020000D03*
X2017000D03*
X2026500Y1621500D03*
Y1626500D03*
X2021500Y1621500D03*
X2051000Y1625000D03*
X2041000Y1616000D03*
X2038000D03*
X2051000Y1619300D03*
X2044000Y1616000D03*
X2047000D03*
X2051000Y1630400D03*
X2049200Y1622300D03*
X2050000Y1616000D03*
X2051000Y1627700D03*
X2048900Y1633100D03*
X2059700Y1616900D03*
Y1629800D03*
Y1623500D03*
Y1620500D03*
Y1626800D03*
Y1635500D03*
Y1632800D03*
X1943500Y1647700D03*
X1939256Y1653500D03*
X1948232Y1647602D03*
X1963900Y1647500D03*
X1958468Y1646224D03*
X2001500Y1651500D03*
X2031500Y1654000D03*
Y1637300D03*
Y1651500D03*
X2021500D03*
X2031500Y1649000D03*
X2033900Y1635800D03*
X2036600D03*
X2031500Y1646500D03*
X2042000Y1635800D03*
X2049800D03*
X2047400D03*
X2039300D03*
X2044700D03*
X1948429Y1672602D03*
X1941500Y1666500D03*
Y1671500D03*
X1948527Y1662366D03*
X1958500Y1659000D03*
X1980100Y1662100D03*
X1978500Y1659000D03*
X1988500D03*
X1993508Y1672602D03*
X1983600Y1662300D03*
X1993508Y1662268D03*
X2001500Y1671500D03*
X2011500D03*
X2031500Y1674000D03*
Y1666500D03*
Y1664000D03*
Y1661500D03*
Y1659000D03*
X2021500Y1671500D03*
X2031500D03*
Y1669000D03*
Y1656500D03*
G74*
X0Y0D02*
M02*
