*
*
G04 PADS 9.3 Build Number: 433611 generated Gerber (RS-274-X) file*
G04 PC Version=2.1*
*
%IN "WG1300E00T-PCB-D01_2012"*%
*
%MOIN*%
*
%FSLAX35Y35*%
*
*
*
*
G04 PC Standard Apertures*
*
*
G04 Thermal Relief Aperture macro.*
%AMTER*
1,1,$1,0,0*
1,0,$1-$2,0,0*
21,0,$3,$4,0,0,45*
21,0,$3,$4,0,0,135*
%
*
*
G04 Annular Aperture macro.*
%AMANN*
1,1,$1,0,0*
1,0,$2,0,0*
%
*
*
G04 Odd Aperture macro.*
%AMODD*
1,1,$1,0,0*
1,0,$1-0.005,0,0*
%
*
*
G04 PC Custom Aperture Macros*
*
*
*
*
*
*
G04 PC Aperture Table*
*
%ADD014C,0.01*%
%ADD024C,0.015*%
%ADD042C,0.01969*%
%ADD048C,0.004*%
%ADD137C,0.00004*%
%ADD144C,0.05118*%
%ADD149R,0.06X0.06*%
%ADD150C,0.06*%
%ADD151C,0.007*%
%ADD152C,0.02*%
%ADD153C,0.006*%
%ADD154C,0.018*%
%ADD156R,0.02992X0.07874*%
%ADD157C,0.025*%
%ADD158C,0.003*%
%ADD159C,0.03*%
*
*
*
*
G04 PC Circuitry*
G04 Layer Name WG1300E00T-PCB-D01_2012 - circuitry*
%LPD*%
*
*
G04 PC Custom Flashes*
G04 Layer Name WG1300E00T-PCB-D01_2012 - flashes*
%LPD*%
*
*
G04 PC Circuitry*
G04 Layer Name WG1300E00T-PCB-D01_2012 - circuitry*
%LPD*%
*
G54D14*
G01X1945432Y1660000D02*
G75*
G03X1945432I-2969J0D01*
G01X1945412Y1540000D02*
G03X1945412I-2969J0D01*
G01X2063256Y1525000D02*
Y1635670D01*
G03X2062756Y1636170I-500J-0*
G01X2032740*
X2032240Y1636670D02*
G03X2032740Y1636170I500J-0D01*
G01X2032240Y1636670D02*
Y1636800D01*
G03X2031740Y1637300I-500J-0*
G01X2028500*
X2027337Y1638205D02*
G03X2028500Y1637300I1163J295D01*
G01X2027337Y1638205D02*
G03X2026509Y1638446I-485J-123D01*
G01X2020108Y1639206D02*
G03X2026509Y1638446I3518J2294D01*
G01X2020108Y1639206D02*
G03X2019270I-419J-273D01*
G01X2014058Y1637657D02*
G03X2019270Y1639206I1694J3843D01*
G01X2014058Y1637657D02*
G03X2013356Y1637199I-202J-458D01*
G01Y1636100*
X2012917Y1635039D02*
G03X2013356Y1636100I-1061J1061D01*
G01X2012917Y1635039D02*
X2009317Y1631439D01*
X2008256Y1631000D02*
G03X2009317Y1631439I-0J1500D01*
G01X2008256Y1631000D02*
X1990917D01*
G03X1990598Y1630885I0J-500*
G01X1987195Y1632904D02*
G03X1990598Y1630885I2061J-404D01*
G01X1987195Y1632904D02*
G03X1986704Y1633500I-491J96D01*
G01X1982584*
G03X1982231Y1633354I0J-500*
G01X1981491Y1632614*
G03X1981347Y1632307I354J-353*
G01X1977301Y1633267D02*
G03X1981347Y1632307I1955J-767D01*
G01X1977301Y1633267D02*
G03X1976836Y1633950I-465J183D01*
G01X1974355*
G03X1974001Y1633804I0J-500*
G01X1971852Y1631654*
X1970756Y1631200D02*
G03X1971852Y1631654I-0J1550D01*
G01X1970756Y1631200D02*
X1959399D01*
G03X1959045Y1631054I0J-500*
G01X1955796Y1627804*
G03X1955650Y1627451I354J-353*
G01Y1570755*
G03X1955796Y1570402I500J0*
G01X1961001Y1565196*
X1961001D02*
G03X1961355Y1565050I354J354D01*
G01X1965930*
G03X1966284Y1565904I0J500*
G01X1961097Y1571091*
X1964915Y1574909D02*
G03X1961097Y1571091I-1909J-1909D01*
G01X1964915Y1574909D02*
X1970084Y1569740D01*
G03X1970438Y1569594I354J354*
G01X1988194*
X2036106*
X2038015Y1568803D02*
G03X2036106Y1569594I-1909J-1909D01*
G01X2038015Y1568803D02*
X2043409Y1563409D01*
X2044200Y1561500D02*
G03X2043409Y1563409I-2700J0D01*
G01X2044200Y1561500D02*
Y1552583D01*
X2043409Y1550673D02*
G03X2044200Y1552583I-1909J1910D01*
G01X2043409Y1550673D02*
X2034689Y1541953D01*
X2032779Y1541162D02*
G03X2034689Y1541953I0J2700D01*
G01X2032779Y1541162D02*
X2025944D01*
G03X2025614Y1541038I0J-500*
G01X2019659Y1542428D02*
G03X2025614Y1541038I3475J1434D01*
G01X2019659Y1542428D02*
G03X2018735I-462J-191D01*
G01Y1545296D02*
G03Y1542428I-3475J-1434D01*
G01Y1545296D02*
G03X2019659I462J191D01*
G01X2025614Y1546687D02*
G03X2019659Y1545296I-2480J-2825D01*
G01X2025614Y1546687D02*
G03X2025944Y1546562I330J375D01*
G01X2031454*
G03X2031807Y1546709I-0J500*
G01X2038653Y1553555*
G03X2038800Y1553908I-353J353*
G01Y1560175*
G03X2038653Y1560528I-500J-0*
G01X2035134Y1564047*
G03X2034781Y1564194I-353J-353*
G01X1997709*
G03X1997356Y1563340I0J-500*
G01X1998109Y1562587*
G03X1998627Y1562468I354J353*
G01X2003522Y1560794D02*
G03X1998627Y1562468I-3518J-2294D01*
G01X2003522Y1560794D02*
G03X2004360I419J273D01*
G01X2011396D02*
G03X2004360I-3518J-2294D01*
G01X2011396D02*
G03X2012234I419J273D01*
G01X2019270D02*
G03X2012234I-3518J-2294D01*
G01X2019270D02*
G03X2020108I419J273D01*
G01X2026509Y1561554D02*
G03X2020108Y1560794I-2883J-3054D01*
G01X2026509Y1561554D02*
G03X2027337Y1561795I343J364D01*
G01X2028500Y1562700D02*
G03X2027337Y1561795I-0J-1200D01*
G01X2028500Y1562700D02*
X2034500D01*
X2035700Y1561500D02*
G03X2034500Y1562700I-1200J0D01*
G01X2035700Y1561500D02*
Y1555500D01*
X2034500Y1554300D02*
G03X2035700Y1555500I-0J1200D01*
G01X2034500Y1554300D02*
X2028500D01*
X2027337Y1555205D02*
G03X2028500Y1554300I1163J295D01*
G01X2027337Y1555205D02*
G03X2026509Y1555446I-485J-123D01*
G01X2020108Y1556206D02*
G03X2026509Y1555446I3518J2294D01*
G01X2020108Y1556206D02*
G03X2019270I-419J-273D01*
G01X2012234D02*
G03X2019270I3518J2294D01*
G01X2012234D02*
G03X2011396I-419J-273D01*
G01X2004360D02*
G03X2011396I3518J2294D01*
G01X2004360D02*
G03X2003522I-419J-273D01*
G01X1996486D02*
G03X2003522I3518J2294D01*
G01X1996486D02*
G03X1995648I-419J-273D01*
G01X1988612D02*
G03X1995648I3518J2294D01*
G01X1988612D02*
G03X1987774I-419J-273D01*
G01X1980738D02*
G03X1987774I3518J2294D01*
G01X1980738D02*
G03X1979900I-419J-273D01*
G01X1972864D02*
G03X1979900I3518J2294D01*
G01X1972864D02*
G03X1972026I-419J-273D01*
G01X1964990D02*
G03X1972026I3518J2294D01*
G01X1964990D02*
G03X1964152I-419J-273D01*
G01X1957116D02*
G03X1964152I3518J2294D01*
G01X1957116D02*
G03X1956278I-419J-273D01*
G01Y1560794D02*
G03Y1556206I-3518J-2294D01*
G01Y1560794D02*
G03X1957116I419J273D01*
G01X1958679Y1562218D02*
G03X1957116Y1560794I1955J-3718D01*
G01X1958679Y1562218D02*
G03X1958800Y1563014I-232J442D01*
G01X1953004Y1568810*
X1952550Y1569906D02*
G03X1953004Y1568810I1550J0D01*
G01X1952550Y1569906D02*
Y1628300D01*
X1953004Y1629396D02*
G03X1952550Y1628300I1096J-1096D01*
G01X1953004Y1629396D02*
X1957454Y1633846D01*
X1958550Y1634300D02*
G03X1957454Y1633846I-0J-1550D01*
G01X1958550Y1634300D02*
X1969907D01*
G03X1970260Y1634446I-0J500*
G01X1972410Y1636596*
X1973506Y1637050D02*
G03X1972410Y1636596I-0J-1550D01*
G01X1973506Y1637050D02*
X1973835D01*
G03X1974106Y1637970I-0J500*
G01X1972864Y1639206D02*
G03X1974106Y1637970I3518J2294D01*
G01X1972864Y1639206D02*
G03X1972026I-419J-273D01*
G01X1964990D02*
G03X1972026I3518J2294D01*
G01X1964990D02*
G03X1964152I-419J-273D01*
G01X1957116D02*
G03X1964152I3518J2294D01*
G01X1957116D02*
G03X1956278I-419J-273D01*
G01X1949242D02*
G03X1956278I3518J2294D01*
G01X1949242D02*
G03X1948404I-419J-273D01*
G01X1946031Y1645541D02*
G03X1948404Y1639206I-1145J-4041D01*
G01X1946031Y1645541D02*
G03X1946565Y1646326I137J481D01*
G01X1946132Y1647590D02*
G03X1946565Y1646326I2100J12D01*
G01X1946132Y1647590D02*
G03X1946038Y1647880I-500J-2D01*
G01X1945811Y1648583D02*
G03X1946038Y1647880I1200J-0D01*
G01X1945810Y1648583D02*
Y1656457D01*
X1947011Y1657657D02*
G03X1945810Y1656457I-0J-1200D01*
G01X1947011Y1657657D02*
X1950003D01*
X1950711Y1657425D02*
G03X1950003Y1657657I-708J-968D01*
G01X1950711Y1657425D02*
G03X1951302I296J404D01*
G01X1952011Y1657657D02*
G03X1951302Y1657425I-0J-1200D01*
G01X1952011Y1657657D02*
X1955003D01*
X1955711Y1657425D02*
G03X1955003Y1657657I-708J-968D01*
G01X1955711Y1657425D02*
G03X1956302I296J404D01*
G01X1957011Y1657657D02*
G03X1956302Y1657425I-0J-1200D01*
G01X1957011Y1657657D02*
X1960003D01*
X1960711Y1657425D02*
G03X1960003Y1657657I-708J-968D01*
G01X1960711Y1657425D02*
G03X1961302I296J404D01*
G01X1962011Y1657657D02*
G03X1961302Y1657425I-0J-1200D01*
G01X1962011Y1657657D02*
X1965003D01*
X1965711Y1657425D02*
G03X1965003Y1657657I-708J-968D01*
G01X1965711Y1657425D02*
G03X1966302I296J404D01*
G01X1967011Y1657657D02*
G03X1966302Y1657425I-0J-1200D01*
G01X1967011Y1657657D02*
X1970003D01*
X1970711Y1657425D02*
G03X1970003Y1657657I-708J-968D01*
G01X1970711Y1657425D02*
G03X1971302I296J404D01*
G01X1972011Y1657657D02*
G03X1971302Y1657425I-0J-1200D01*
G01X1972011Y1657657D02*
X1975003D01*
X1975711Y1657425D02*
G03X1975003Y1657657I-708J-968D01*
G01X1975711Y1657425D02*
G03X1976302I296J404D01*
G01X1977011Y1657657D02*
G03X1976302Y1657425I-0J-1200D01*
G01X1977011Y1657657D02*
X1980003D01*
X1980711Y1657425D02*
G03X1980003Y1657657I-708J-968D01*
G01X1980711Y1657425D02*
G03X1981302I296J404D01*
G01X1982011Y1657657D02*
G03X1981302Y1657425I-0J-1200D01*
G01X1982011Y1657657D02*
X1985003D01*
X1985711Y1657425D02*
G03X1985003Y1657657I-708J-968D01*
G01X1985711Y1657425D02*
G03X1986302I296J404D01*
G01X1987011Y1657657D02*
G03X1986302Y1657425I-0J-1200D01*
G01X1987011Y1657657D02*
X1990003D01*
X1990711Y1657425D02*
G03X1990003Y1657657I-708J-968D01*
G01X1990711Y1657425D02*
G03X1991302I296J404D01*
G01X1992011Y1657657D02*
G03X1991302Y1657425I-0J-1200D01*
G01X1992011Y1657657D02*
X1995003D01*
X1995581Y1657508D02*
G03X1995003Y1657657I-578J-1051D01*
G01X1995581Y1657508D02*
G03X1996260Y1658187I241J438D01*
G01Y1661813D02*
G03Y1658187I3290J-1813D01*
G01Y1661813D02*
G03X1995581Y1662492I-438J241D01*
G01X1995003Y1662343D02*
G03X1995581Y1662492I-0J1200D01*
G01X1995003Y1662343D02*
X1992011D01*
X1991302Y1662575D02*
G03X1992011Y1662343I709J968D01*
G01X1991302Y1662575D02*
G03X1990711I-295J-404D01*
G01X1990003Y1662343D02*
G03X1990711Y1662575I-0J1200D01*
G01X1990003Y1662343D02*
X1987011D01*
X1986430Y1662493D02*
G03X1987011Y1662343I581J1050D01*
G01X1986430Y1662493D02*
G03X1985691Y1662102I-242J-438D01*
G01X1982275Y1660671D02*
G03X1985691Y1662102I1325J1629D01*
G01X1982275Y1660671D02*
G03X1981602Y1660632I-316J-388D01*
G01X1978010Y1661893D02*
G03X1981602Y1660632I2090J207D01*
G01X1978010Y1661893D02*
G03X1977513Y1662343I-497J-50D01*
G01X1977011*
X1976302Y1662575D02*
G03X1977011Y1662343I709J968D01*
G01X1976302Y1662575D02*
G03X1975711I-295J-404D01*
G01X1975003Y1662343D02*
G03X1975711Y1662575I-0J1200D01*
G01X1975003Y1662343D02*
X1972011D01*
X1971302Y1662575D02*
G03X1972011Y1662343I709J968D01*
G01X1971302Y1662575D02*
G03X1970711I-295J-404D01*
G01X1970003Y1662343D02*
G03X1970711Y1662575I-0J1200D01*
G01X1970003Y1662343D02*
X1967011D01*
X1966302Y1662575D02*
G03X1967011Y1662343I709J968D01*
G01X1966302Y1662575D02*
G03X1965711I-295J-404D01*
G01X1965003Y1662343D02*
G03X1965711Y1662575I-0J1200D01*
G01X1965003Y1662343D02*
X1962011D01*
X1961302Y1662575D02*
G03X1962011Y1662343I709J968D01*
G01X1961302Y1662575D02*
G03X1960711I-295J-404D01*
G01X1960003Y1662343D02*
G03X1960711Y1662575I-0J1200D01*
G01X1960003Y1662343D02*
X1957011D01*
X1956302Y1662575D02*
G03X1957011Y1662343I709J968D01*
G01X1956302Y1662575D02*
G03X1955711I-295J-404D01*
G01X1955003Y1662343D02*
G03X1955711Y1662575I-0J1200D01*
G01X1955003Y1662343D02*
X1952011D01*
X1951302Y1662575D02*
G03X1952011Y1662343I709J968D01*
G01X1951302Y1662575D02*
G03X1950711I-295J-404D01*
G01X1950003Y1662343D02*
G03X1950711Y1662575I-0J1200D01*
G01X1950003Y1662343D02*
X1947011D01*
X1945810Y1663543D02*
G03X1947011Y1662343I1201J0D01*
G01X1945810Y1663543D02*
Y1671417D01*
X1947011Y1672617D02*
G03X1945810Y1671417I-0J-1200D01*
G01X1947011Y1672617D02*
X1950003D01*
X1950711Y1672386D02*
G03X1950003Y1672617I-708J-969D01*
G01X1950711Y1672386D02*
G03X1951302I296J403D01*
G01X1952011Y1672617D02*
G03X1951302Y1672386I-0J-1200D01*
G01X1952011Y1672617D02*
X1955003D01*
X1955711Y1672386D02*
G03X1955003Y1672617I-708J-969D01*
G01X1955711Y1672386D02*
G03X1956302I296J403D01*
G01X1957011Y1672617D02*
G03X1956302Y1672386I-0J-1200D01*
G01X1957011Y1672617D02*
X1960003D01*
X1960711Y1672386D02*
G03X1960003Y1672617I-708J-969D01*
G01X1960711Y1672386D02*
G03X1961302I296J403D01*
G01X1962011Y1672617D02*
G03X1961302Y1672386I-0J-1200D01*
G01X1962011Y1672617D02*
X1965003D01*
X1965711Y1672386D02*
G03X1965003Y1672617I-708J-969D01*
G01X1965711Y1672386D02*
G03X1966302I296J403D01*
G01X1967011Y1672617D02*
G03X1966302Y1672386I-0J-1200D01*
G01X1967011Y1672617D02*
X1970003D01*
X1970711Y1672386D02*
G03X1970003Y1672617I-708J-969D01*
G01X1970711Y1672386D02*
G03X1971302I296J403D01*
G01X1972011Y1672617D02*
G03X1971302Y1672386I-0J-1200D01*
G01X1972011Y1672617D02*
X1975003D01*
X1975711Y1672386D02*
G03X1975003Y1672617I-708J-969D01*
G01X1975711Y1672386D02*
G03X1976302I296J403D01*
G01X1977011Y1672617D02*
G03X1976302Y1672386I-0J-1200D01*
G01X1977011Y1672617D02*
X1980003D01*
X1980711Y1672386D02*
G03X1980003Y1672617I-708J-969D01*
G01X1980711Y1672386D02*
G03X1981302I296J403D01*
G01X1982011Y1672617D02*
G03X1981302Y1672386I-0J-1200D01*
G01X1982011Y1672617D02*
X1985003D01*
X1985711Y1672386D02*
G03X1985003Y1672617I-708J-969D01*
G01X1985711Y1672386D02*
G03X1986302I296J403D01*
G01X1987011Y1672617D02*
G03X1986302Y1672386I-0J-1200D01*
G01X1987011Y1672617D02*
X1990003D01*
X1990711Y1672386D02*
G03X1990003Y1672617I-708J-969D01*
G01X1990711Y1672386D02*
G03X1991302I296J403D01*
G01X1992011Y1672617D02*
G03X1991302Y1672386I-0J-1200D01*
G01X1992011Y1672617D02*
X1995003D01*
X1996203Y1671417D02*
G03X1995003Y1672617I-1200J0D01*
G01X1996203Y1671417D02*
Y1663543D01*
X1996163Y1663239D02*
G03X1996203Y1663543I-1160J304D01*
G01X1996163Y1663239D02*
G03X1996988Y1662747I484J-127D01*
G01Y1657253D02*
G03Y1662747I2562J2747D01*
G01Y1657253D02*
G03X1996163Y1656761I-341J-365D01*
G01X1996203Y1656457D02*
G03X1996163Y1656761I-1200J-0D01*
G01X1996203Y1656457D02*
Y1648583D01*
X1995003Y1647383D02*
G03X1996203Y1648583I-0J1200D01*
G01X1995003Y1647383D02*
X1992011D01*
X1991302Y1647614D02*
G03X1992011Y1647383I709J969D01*
G01X1991302Y1647614D02*
G03X1990711I-295J-403D01*
G01X1990003Y1647383D02*
G03X1990711Y1647614I-0J1200D01*
G01X1990003Y1647383D02*
X1987011D01*
X1986302Y1647614D02*
G03X1987011Y1647383I709J969D01*
G01X1986302Y1647614D02*
G03X1985711I-295J-403D01*
G01X1985003Y1647383D02*
G03X1985711Y1647614I-0J1200D01*
G01X1985003Y1647383D02*
X1982011D01*
X1981302Y1647614D02*
G03X1982011Y1647383I709J969D01*
G01X1981302Y1647614D02*
G03X1980711I-295J-403D01*
G01X1980017Y1647383D02*
G03X1980711Y1647614I-14J1200D01*
G01X1980017Y1647383D02*
G03X1979669Y1646529I5J-500D01*
G01X1981204Y1644994*
G03X1981844Y1644939I353J354*
G01X1987774Y1643794D02*
G03X1981844Y1644939I-3518J-2294D01*
G01X1987774Y1643794D02*
G03X1988612I419J273D01*
G01X1995648D02*
G03X1988612I-3518J-2294D01*
G01X1995648D02*
G03X1996486I419J273D01*
G01X2001793Y1645300D02*
G03X1996486Y1643794I-1789J-3800D01*
G01X2001793Y1645300D02*
G03X2002506Y1645752I213J452D01*
G01Y1652754*
X2002945Y1653815D02*
G03X2002506Y1652754I1061J-1061D01*
G01X2002945Y1653815D02*
X2007932Y1658802D01*
G03X2008057Y1659301I-353J353*
G01X2015127Y1661834D02*
G03X2008057Y1659301I-3475J-1434D01*
G01X2015127Y1661834D02*
G03X2016051I462J191D01*
G01X2023001D02*
G03X2016051I-3475J-1434D01*
G01X2023001D02*
G03X2023925I462J191D01*
G01Y1658966D02*
G03Y1661834I3475J1434D01*
G01Y1658966D02*
G03X2023001I-462J-191D01*
G01X2018427Y1656805D02*
G03X2023001Y1658966I1099J3595D01*
G01X2018427Y1656805D02*
G03X2017928Y1656680I-146J-478D01*
G01X2013502Y1652255*
G03X2013356Y1651901I354J-354*
G01Y1645801*
G03X2014058Y1645343I500J-0*
G01X2019270Y1643794D02*
G03X2014058Y1645343I-3518J-2294D01*
G01X2019270Y1643794D02*
G03X2020108I419J273D01*
G01X2026509Y1644554D02*
G03X2020108Y1643794I-2883J-3054D01*
G01X2026509Y1644554D02*
G03X2027337Y1644795I343J364D01*
G01X2028500Y1645700D02*
G03X2027337Y1644795I-0J-1200D01*
G01X2028500Y1645700D02*
X2031740D01*
G03X2032240Y1646200I-0J500*
G01Y1675000*
G03X2031740Y1675500I-500J0*
G01X1937256*
G03X1936756Y1675000I-0J-500*
G01Y1525000*
G03X1937256Y1524500I500J0*
G01X2062756*
G03X2063256Y1525000I-0J500*
G01X1996240Y1541813D02*
G03X1995561Y1542492I-438J241D01*
G01X1994983Y1542343D02*
G03X1995561Y1542492I-0J1200D01*
G01X1994983Y1542343D02*
X1991991D01*
X1991282Y1542575D02*
G03X1991991Y1542343I709J968D01*
G01X1991282Y1542575D02*
G03X1990691I-295J-404D01*
G01X1989983Y1542343D02*
G03X1990691Y1542575I-0J1200D01*
G01X1989983Y1542343D02*
X1986991D01*
X1986282Y1542575D02*
G03X1986991Y1542343I709J968D01*
G01X1986282Y1542575D02*
G03X1985691I-295J-404D01*
G01X1984983Y1542343D02*
G03X1985691Y1542575I-0J1200D01*
G01X1984983Y1542343D02*
X1981991D01*
X1981715Y1542375D02*
G03X1981991Y1542343I276J1168D01*
G01X1981715Y1542375D02*
G03X1981100Y1541889I-115J-486D01*
G01Y1539100*
X1980830Y1538274D02*
G03X1981100Y1539100I-1130J826D01*
G01X1980830Y1538274D02*
G03X1981457Y1537531I404J-295D01*
G01X1981991Y1537657D02*
G03X1981457Y1537531I-0J-1200D01*
G01X1981991Y1537657D02*
X1984983D01*
X1985691Y1537425D02*
G03X1984983Y1537657I-708J-968D01*
G01X1985691Y1537425D02*
G03X1986282I296J404D01*
G01X1986991Y1537657D02*
G03X1986282Y1537425I-0J-1200D01*
G01X1986991Y1537657D02*
X1989983D01*
X1990691Y1537425D02*
G03X1989983Y1537657I-708J-968D01*
G01X1990691Y1537425D02*
G03X1991282I296J404D01*
G01X1991991Y1537657D02*
G03X1991282Y1537425I-0J-1200D01*
G01X1991991Y1537657D02*
X1994983D01*
X1995561Y1537508D02*
G03X1994983Y1537657I-578J-1051D01*
G01X1995561Y1537508D02*
G03X1996240Y1538187I241J438D01*
G01Y1541813D02*
G03Y1538187I3290J-1813D01*
G01X1996968Y1537253D02*
G03Y1542747I2562J2747D01*
G01Y1537253D02*
G03X1996143Y1536761I-341J-365D01*
G01X1996183Y1536457D02*
G03X1996143Y1536761I-1200J-0D01*
G01X1996183Y1536457D02*
Y1528583D01*
X1994983Y1527383D02*
G03X1996183Y1528583I-0J1200D01*
G01X1994983Y1527383D02*
X1991991D01*
X1991282Y1527614D02*
G03X1991991Y1527383I709J969D01*
G01X1991282Y1527614D02*
G03X1990691I-295J-403D01*
G01X1989983Y1527383D02*
G03X1990691Y1527614I-0J1200D01*
G01X1989983Y1527383D02*
X1986991D01*
X1986282Y1527614D02*
G03X1986991Y1527383I709J969D01*
G01X1986282Y1527614D02*
G03X1985691I-295J-403D01*
G01X1984983Y1527383D02*
G03X1985691Y1527614I-0J1200D01*
G01X1984983Y1527383D02*
X1981991D01*
X1981282Y1527614D02*
G03X1981991Y1527383I709J969D01*
G01X1981282Y1527614D02*
G03X1980691I-295J-403D01*
G01X1979983Y1527383D02*
G03X1980691Y1527614I-0J1200D01*
G01X1979983Y1527383D02*
X1976991D01*
X1976282Y1527614D02*
G03X1976991Y1527383I709J969D01*
G01X1976282Y1527614D02*
G03X1975691I-295J-403D01*
G01X1974983Y1527383D02*
G03X1975691Y1527614I-0J1200D01*
G01X1974983Y1527383D02*
X1971991D01*
X1971282Y1527614D02*
G03X1971991Y1527383I709J969D01*
G01X1971282Y1527614D02*
G03X1970691I-295J-403D01*
G01X1969983Y1527383D02*
G03X1970691Y1527614I-0J1200D01*
G01X1969983Y1527383D02*
X1966991D01*
X1966282Y1527614D02*
G03X1966991Y1527383I709J969D01*
G01X1966282Y1527614D02*
G03X1965691I-295J-403D01*
G01X1964983Y1527383D02*
G03X1965691Y1527614I-0J1200D01*
G01X1964983Y1527383D02*
X1961991D01*
X1961282Y1527614D02*
G03X1961991Y1527383I709J969D01*
G01X1961282Y1527614D02*
G03X1960691I-295J-403D01*
G01X1959983Y1527383D02*
G03X1960691Y1527614I-0J1200D01*
G01X1959983Y1527383D02*
X1956991D01*
X1956282Y1527614D02*
G03X1956991Y1527383I709J969D01*
G01X1956282Y1527614D02*
G03X1955691I-295J-403D01*
G01X1954983Y1527383D02*
G03X1955691Y1527614I-0J1200D01*
G01X1954983Y1527383D02*
X1951991D01*
X1951282Y1527614D02*
G03X1951991Y1527383I709J969D01*
G01X1951282Y1527614D02*
G03X1950691I-295J-403D01*
G01X1949983Y1527383D02*
G03X1950691Y1527614I-0J1200D01*
G01X1949983Y1527383D02*
X1946991D01*
X1945790Y1528583D02*
G03X1946991Y1527383I1201J-0D01*
G01X1945790Y1528583D02*
Y1536457D01*
X1946991Y1537657D02*
G03X1945790Y1536457I-0J-1200D01*
G01X1946991Y1537657D02*
X1949983D01*
X1950691Y1537425D02*
G03X1949983Y1537657I-708J-968D01*
G01X1950691Y1537425D02*
G03X1951282I296J404D01*
G01X1951991Y1537657D02*
G03X1951282Y1537425I-0J-1200D01*
G01X1951991Y1537657D02*
X1954983D01*
X1955691Y1537425D02*
G03X1954983Y1537657I-708J-968D01*
G01X1955691Y1537425D02*
G03X1956282I296J404D01*
G01X1956991Y1537657D02*
G03X1956282Y1537425I-0J-1200D01*
G01X1956991Y1537657D02*
X1959983D01*
X1960691Y1537425D02*
G03X1959983Y1537657I-708J-968D01*
G01X1960691Y1537425D02*
G03X1961282I296J404D01*
G01X1961991Y1537657D02*
G03X1961282Y1537425I-0J-1200D01*
G01X1961991Y1537657D02*
X1964983D01*
X1965691Y1537425D02*
G03X1964983Y1537657I-708J-968D01*
G01X1965691Y1537425D02*
G03X1966282I296J404D01*
G01X1966991Y1537657D02*
G03X1966282Y1537425I-0J-1200D01*
G01X1966991Y1537657D02*
X1969983D01*
X1970547Y1537516D02*
G03X1969983Y1537657I-564J-1059D01*
G01X1970547Y1537516D02*
G03X1971182Y1538258I235J441D01*
G01X1970900Y1539100D02*
G03X1971182Y1538258I1400J0D01*
G01X1970900Y1539100D02*
Y1541895D01*
G03X1970277Y1542380I-500J0*
G01X1969983Y1542343D02*
G03X1970277Y1542380I-0J1200D01*
G01X1969983Y1542343D02*
X1966991D01*
X1966282Y1542575D02*
G03X1966991Y1542343I709J968D01*
G01X1966282Y1542575D02*
G03X1965691I-295J-404D01*
G01X1964983Y1542343D02*
G03X1965691Y1542575I-0J1200D01*
G01X1964983Y1542343D02*
X1961991D01*
X1961429Y1542483D02*
G03X1961991Y1542343I562J1060D01*
G01X1961429Y1542483D02*
G03X1960696Y1542071I-234J-442D01*
G01X1956500Y1542169D02*
G03X1960696Y1542071I2100J31D01*
G01X1956500Y1542169D02*
G03X1956291Y1542568I-500J-7D01*
G01X1956282Y1542575D02*
G03X1956291Y1542568I709J968D01*
G01X1956282Y1542575D02*
G03X1955691I-295J-404D01*
G01X1954983Y1542343D02*
G03X1955691Y1542575I-0J1200D01*
G01X1954983Y1542343D02*
X1951991D01*
X1951282Y1542575D02*
G03X1951991Y1542343I709J968D01*
G01X1951282Y1542575D02*
G03X1950691I-295J-404D01*
G01X1949983Y1542343D02*
G03X1950691Y1542575I-0J1200D01*
G01X1949983Y1542343D02*
X1946991D01*
X1945790Y1543543D02*
G03X1946991Y1542343I1201J0D01*
G01X1945790Y1543543D02*
Y1551417D01*
X1946991Y1552617D02*
G03X1945790Y1551417I-0J-1200D01*
G01X1946991Y1552617D02*
X1949983D01*
X1950691Y1552386D02*
G03X1949983Y1552617I-708J-969D01*
G01X1950691Y1552386D02*
G03X1951282I296J403D01*
G01X1951991Y1552617D02*
G03X1951282Y1552386I-0J-1200D01*
G01X1951991Y1552617D02*
X1954983D01*
X1955691Y1552386D02*
G03X1954983Y1552617I-708J-969D01*
G01X1955691Y1552386D02*
G03X1956282I296J403D01*
G01X1956991Y1552617D02*
G03X1956282Y1552386I-0J-1200D01*
G01X1956991Y1552617D02*
X1959983D01*
X1960691Y1552386D02*
G03X1959983Y1552617I-708J-969D01*
G01X1960691Y1552386D02*
G03X1961282I296J403D01*
G01X1961991Y1552617D02*
G03X1961282Y1552386I-0J-1200D01*
G01X1961991Y1552617D02*
X1964983D01*
X1965691Y1552386D02*
G03X1964983Y1552617I-708J-969D01*
G01X1965691Y1552386D02*
G03X1966282I296J403D01*
G01X1966991Y1552617D02*
G03X1966282Y1552386I-0J-1200D01*
G01X1966991Y1552617D02*
X1969983D01*
X1970691Y1552386D02*
G03X1969983Y1552617I-708J-969D01*
G01X1970691Y1552386D02*
G03X1971282I296J403D01*
G01X1971991Y1552617D02*
G03X1971282Y1552386I-0J-1200D01*
G01X1971991Y1552617D02*
X1974983D01*
X1975691Y1552386D02*
G03X1974983Y1552617I-708J-969D01*
G01X1975691Y1552386D02*
G03X1976282I296J403D01*
G01X1976991Y1552617D02*
G03X1976282Y1552386I-0J-1200D01*
G01X1976991Y1552617D02*
X1979983D01*
X1980691Y1552386D02*
G03X1979983Y1552617I-708J-969D01*
G01X1980691Y1552386D02*
G03X1981282I296J403D01*
G01X1981991Y1552617D02*
G03X1981282Y1552386I-0J-1200D01*
G01X1981991Y1552617D02*
X1984983D01*
X1985691Y1552386D02*
G03X1984983Y1552617I-708J-969D01*
G01X1985691Y1552386D02*
G03X1986282I296J403D01*
G01X1986991Y1552617D02*
G03X1986282Y1552386I-0J-1200D01*
G01X1986991Y1552617D02*
X1989983D01*
X1990691Y1552386D02*
G03X1989983Y1552617I-708J-969D01*
G01X1990691Y1552386D02*
G03X1991282I296J403D01*
G01X1991991Y1552617D02*
G03X1991282Y1552386I-0J-1200D01*
G01X1991991Y1552617D02*
X1994983D01*
X1996183Y1551417D02*
G03X1994983Y1552617I-1200J0D01*
G01X1996183Y1551417D02*
Y1543543D01*
X1996143Y1543239D02*
G03X1996183Y1543543I-1160J304D01*
G01X1996143Y1543239D02*
G03X1996968Y1542747I484J-127D01*
G01X1945432Y1660000D02*
G03X1945432I-2969J0D01*
G01X1945412Y1540000D02*
G03X1945412I-2969J0D01*
G01X1980734Y1537999D02*
X1996300D01*
X1981100Y1541599D02*
X1996131D01*
X1995574Y1542499D02*
X1996031D01*
X1981085Y1538899D02*
X1995939D01*
X1981100Y1540699D02*
X1995840D01*
X1981100Y1539799D02*
X1995779D01*
X1990573Y1542499D02*
X1991400D01*
X1985573D02*
X1986400D01*
X2013055Y1635199D02*
X2063256D01*
X2012176Y1634299D02*
X2063256D01*
X2011276Y1633399D02*
X2063256D01*
X2010376Y1632499D02*
X2063256D01*
X2009476Y1631599D02*
X2063256D01*
X1990335Y1630699D02*
X2063256D01*
X1957791Y1629799D02*
X2063256D01*
X1956891Y1628899D02*
X2063256D01*
X1955991Y1627999D02*
X2063256D01*
X1955650Y1627099D02*
X2063256D01*
X1955650Y1626199D02*
X2063256D01*
X1955650Y1625299D02*
X2063256D01*
X1955650Y1624399D02*
X2063256D01*
X1955650Y1623499D02*
X2063256D01*
X1955650Y1622599D02*
X2063256D01*
X1955650Y1621699D02*
X2063256D01*
X1955650Y1620799D02*
X2063256D01*
X1955650Y1619899D02*
X2063256D01*
X1955650Y1618999D02*
X2063256D01*
X1955650Y1618099D02*
X2063256D01*
X1955650Y1617199D02*
X2063256D01*
X1955650Y1616299D02*
X2063256D01*
X1955650Y1615399D02*
X2063256D01*
X1955650Y1614499D02*
X2063256D01*
X1955650Y1613599D02*
X2063256D01*
X1955650Y1612699D02*
X2063256D01*
X1955650Y1611799D02*
X2063256D01*
X1955650Y1610899D02*
X2063256D01*
X1955650Y1609999D02*
X2063256D01*
X1955650Y1609099D02*
X2063256D01*
X1955650Y1608199D02*
X2063256D01*
X1955650Y1607299D02*
X2063256D01*
X1955650Y1606399D02*
X2063256D01*
X1955650Y1605499D02*
X2063256D01*
X1955650Y1604599D02*
X2063256D01*
X1955650Y1603699D02*
X2063256D01*
X1955650Y1602799D02*
X2063256D01*
X1955650Y1601899D02*
X2063256D01*
X1955650Y1600999D02*
X2063256D01*
X1955650Y1600099D02*
X2063256D01*
X1955650Y1599199D02*
X2063256D01*
X1955650Y1598299D02*
X2063256D01*
X1955650Y1597399D02*
X2063256D01*
X1955650Y1596499D02*
X2063256D01*
X1955650Y1595599D02*
X2063256D01*
X1955650Y1594699D02*
X2063256D01*
X1955650Y1593799D02*
X2063256D01*
X1955650Y1592899D02*
X2063256D01*
X1955650Y1591999D02*
X2063256D01*
X1955650Y1591099D02*
X2063256D01*
X1955650Y1590199D02*
X2063256D01*
X1955650Y1589299D02*
X2063256D01*
X1955650Y1588399D02*
X2063256D01*
X1955650Y1587499D02*
X2063256D01*
X1955650Y1586599D02*
X2063256D01*
X1955650Y1585699D02*
X2063256D01*
X1955650Y1584799D02*
X2063256D01*
X1955650Y1583899D02*
X2063256D01*
X1955650Y1582999D02*
X2063256D01*
X1955650Y1582099D02*
X2063256D01*
X1955650Y1581199D02*
X2063256D01*
X1955650Y1580299D02*
X2063256D01*
X1955650Y1579399D02*
X2063256D01*
X1955650Y1578499D02*
X2063256D01*
X1955650Y1577599D02*
X2063256D01*
X1955650Y1576699D02*
X2063256D01*
X1955650Y1575799D02*
X2063256D01*
X1964926Y1574899D02*
X2063256D01*
X1965826Y1573999D02*
X2063256D01*
X1966726Y1573099D02*
X2063256D01*
X1967626Y1572199D02*
X2063256D01*
X1968526Y1571299D02*
X2063256D01*
X1969426Y1570399D02*
X2063256D01*
X2036816Y1569499D02*
X2063256D01*
X2038220Y1568599D02*
X2063256D01*
X2039120Y1567699D02*
X2063256D01*
X2040020Y1566799D02*
X2063256D01*
X2040920Y1565899D02*
X2063256D01*
X2041820Y1564999D02*
X2063256D01*
X2042720Y1564099D02*
X2063256D01*
X2043599Y1563199D02*
X2063256D01*
X2044079Y1562299D02*
X2063256D01*
X2044200Y1561399D02*
X2063256D01*
X2044200Y1560499D02*
X2063256D01*
X2044200Y1559599D02*
X2063256D01*
X2044200Y1558699D02*
X2063256D01*
X2044200Y1557799D02*
X2063256D01*
X2044200Y1556899D02*
X2063256D01*
X2044200Y1555999D02*
X2063256D01*
X2044200Y1555099D02*
X2063256D01*
X2044200Y1554199D02*
X2063256D01*
X2044200Y1553299D02*
X2063256D01*
X2044194Y1552399D02*
X2063256D01*
X2043973Y1551499D02*
X2063256D01*
X2043334Y1550599D02*
X2063256D01*
X2042434Y1549699D02*
X2063256D01*
X2041534Y1548799D02*
X2063256D01*
X2040634Y1547899D02*
X2063256D01*
X2039734Y1546999D02*
X2063256D01*
X2038834Y1546099D02*
X2063256D01*
X2037934Y1545199D02*
X2063256D01*
X2037034Y1544299D02*
X2063256D01*
X2036134Y1543399D02*
X2063256D01*
X2035234Y1542499D02*
X2063256D01*
X2034251Y1541599D02*
X2063256D01*
X2025164Y1540699D02*
X2063256D01*
X2003280Y1539799D02*
X2063256D01*
X2003121Y1538899D02*
X2063256D01*
X2002708Y1537999D02*
X2063256D01*
X2001915Y1537099D02*
X2063256D01*
X1996183Y1536199D02*
X2063256D01*
X1996183Y1535299D02*
X2063256D01*
X1996183Y1534399D02*
X2063256D01*
X1996183Y1533499D02*
X2063256D01*
X1996183Y1532599D02*
X2063256D01*
X1996183Y1531699D02*
X2063256D01*
X1996183Y1530799D02*
X2063256D01*
X1996183Y1529899D02*
X2063256D01*
X1996183Y1528999D02*
X2063256D01*
X1996081Y1528099D02*
X2063256D01*
X1936756Y1527199D02*
X2063256D01*
X1936756Y1526299D02*
X2063256D01*
X1936756Y1525399D02*
X2063256D01*
X2013356Y1636099D02*
X2063013D01*
X2035700Y1559599D02*
X2038800D01*
X2035700Y1558699D02*
X2038800D01*
X2035700Y1557799D02*
X2038800D01*
X2035700Y1556899D02*
X2038800D01*
X2035700Y1555999D02*
X2038800D01*
X2035631Y1555099D02*
X2038800D01*
X1936756Y1554199D02*
X2038800D01*
X2035700Y1560499D02*
X2038681D01*
X1936756Y1553299D02*
X2038397D01*
X2035700Y1561399D02*
X2037783D01*
X1995673Y1552399D02*
X2037497D01*
X2035396Y1562299D02*
X2036883D01*
X1996180Y1551499D02*
X2036597D01*
X1997497Y1563199D02*
X2035983D01*
X1996183Y1550599D02*
X2035697D01*
X1997416Y1564099D02*
X2035074D01*
X1996183Y1549699D02*
X2034797D01*
X1996183Y1548799D02*
X2033897D01*
X1996183Y1547899D02*
X2032997D01*
X2013356Y1646899D02*
X2032240D01*
X2013356Y1647799D02*
X2032240D01*
X2013356Y1648699D02*
X2032240D01*
X2013356Y1649599D02*
X2032240D01*
X2013356Y1650499D02*
X2032240D01*
X2013356Y1651399D02*
X2032240D01*
X2013546Y1652299D02*
X2032240D01*
X2014446Y1653199D02*
X2032240D01*
X2015346Y1654099D02*
X2032240D01*
X2016246Y1654999D02*
X2032240D01*
X2017146Y1655899D02*
X2032240D01*
X2028478Y1656799D02*
X2032240D01*
X2030014Y1657699D02*
X2032240D01*
X2030699Y1658599D02*
X2032240D01*
X2031049Y1659499D02*
X2032240D01*
X2031159Y1660399D02*
X2032240D01*
X2031050Y1661299D02*
X2032240D01*
X2030701Y1662199D02*
X2032240D01*
X2030017Y1663099D02*
X2032240D01*
X2028486Y1663999D02*
X2032240D01*
X1996203Y1664899D02*
X2032240D01*
X1996203Y1665799D02*
X2032240D01*
X1996203Y1666699D02*
X2032240D01*
X1996203Y1667599D02*
X2032240D01*
X1996203Y1668499D02*
X2032240D01*
X1996203Y1669399D02*
X2032240D01*
X1996203Y1670299D02*
X2032240D01*
X1996203Y1671199D02*
X2032240D01*
X1995990Y1672099D02*
X2032240D01*
X1936756Y1672999D02*
X2032240D01*
X1936756Y1673899D02*
X2032240D01*
X1936756Y1674799D02*
X2032240D01*
X2013356Y1636999D02*
X2032199D01*
X2013356Y1645999D02*
X2032198D01*
X2025206Y1546999D02*
X2032097D01*
X2025418Y1562299D02*
X2027604D01*
X2025787Y1637899D02*
X2027461D01*
X2025791Y1645099D02*
X2027460D01*
X2026090Y1555099D02*
X2027369D01*
X2020604Y1656799D02*
X2026322D01*
X2020612Y1663999D02*
X2026314D01*
X2022140Y1657699D02*
X2024786D01*
X2022143Y1663099D02*
X2024783D01*
X2022825Y1658599D02*
X2024101D01*
X2022827Y1662199D02*
X2024099D01*
X2017544Y1562299D02*
X2021834D01*
X2017913Y1637899D02*
X2021465D01*
X2017917Y1645099D02*
X2021460D01*
X2018216Y1555099D02*
X2021162D01*
X2017290Y1540699D02*
X2021103D01*
X2017332Y1546999D02*
X2021062D01*
X2018791Y1561399D02*
X2020587D01*
X2018968Y1638799D02*
X2020410D01*
X2018970Y1644199D02*
X2020408D01*
X2019126Y1555999D02*
X2020252D01*
X2018261Y1541599D02*
X2020133D01*
X2018281Y1546099D02*
X2020112D01*
X2018770Y1542499D02*
X2019623D01*
X2018788Y1545199D02*
X2019605D01*
X2018116Y1656799D02*
X2018448D01*
X2012738Y1663999D02*
X2018440D01*
X2014269Y1663099D02*
X2016909D01*
X2014953Y1662199D02*
X2016225D01*
X2009670Y1562299D02*
X2013960D01*
X2010342Y1555099D02*
X2013288D01*
X2003220Y1540699D02*
X2013229D01*
X1996183Y1546999D02*
X2013188D01*
X2010917Y1561399D02*
X2012713D01*
X2011252Y1555999D02*
X2012378D01*
X2002929Y1541599D02*
X2012259D01*
X1996183Y1546099D02*
X2012238D01*
X2002334Y1542499D02*
X2011757D01*
X1996183Y1545199D02*
X2011746D01*
X2001129Y1543399D02*
X2011529D01*
X1996183Y1544299D02*
X2011526D01*
X1996203Y1663999D02*
X2010566D01*
X2001672Y1663099D02*
X2009035D01*
X2002595Y1662199D02*
X2008351D01*
X2003272Y1659499D02*
X2008003D01*
X2003074Y1661299D02*
X2008002D01*
X2003285Y1660399D02*
X2007893D01*
X2003035Y1658599D02*
X2007729D01*
X2002518Y1657699D02*
X2006829D01*
X2001796Y1562299D02*
X2006086D01*
X2001514Y1656799D02*
X2005929D01*
X2002468Y1555099D02*
X2005414D01*
X1996203Y1655899D02*
X2005029D01*
X2003043Y1561399D02*
X2004838D01*
X2003378Y1555999D02*
X2004504D01*
X1996203Y1654999D02*
X2004129D01*
X1996203Y1654099D02*
X2003229D01*
X1996203Y1653199D02*
X2002573D01*
X1996203Y1652299D02*
X2002506D01*
X1996203Y1651399D02*
X2002506D01*
X1996203Y1650499D02*
X2002506D01*
X1996203Y1649599D02*
X2002506D01*
X1996203Y1648699D02*
X2002506D01*
X1995911Y1647799D02*
X2002506D01*
X1979523Y1646899D02*
X2002506D01*
X1980199Y1645999D02*
X2002506D01*
X1996174Y1543399D02*
X1997931D01*
X1994295Y1645099D02*
X1997838D01*
X1996155Y1656799D02*
X1997586D01*
X1994594Y1555099D02*
X1997540D01*
X1996147Y1663099D02*
X1997427D01*
X1996174Y1537099D02*
X1997145D01*
X1995348Y1644199D02*
X1996786D01*
X1995504Y1555999D02*
X1996630D01*
X1985709Y1662199D02*
X1996301D01*
X1944338Y1657699D02*
X1996257D01*
X1945080Y1658599D02*
X1996065D01*
X1985446Y1661299D02*
X1996026D01*
X1945389Y1659499D02*
X1995828D01*
X1984492Y1660399D02*
X1995815D01*
X1990673Y1552399D02*
X1991300D01*
X1986421Y1645099D02*
X1989964D01*
X1986720Y1555099D02*
X1989666D01*
X1987474Y1644199D02*
X1988912D01*
X1987630Y1555999D02*
X1988756D01*
X1980335Y1630699D02*
X1988176D01*
X1981153Y1631599D02*
X1987359D01*
X1981405Y1632499D02*
X1987156D01*
X1982283Y1633399D02*
X1987006D01*
X1985673Y1552399D02*
X1986300D01*
X1981331Y1660399D02*
X1982708D01*
X1981099Y1645099D02*
X1982090D01*
X1978846Y1555099D02*
X1981792D01*
X1980673Y1552399D02*
X1981300D01*
X1979756Y1555999D02*
X1980882D01*
X1945405Y1660399D02*
X1978869D01*
X1958691Y1630699D02*
X1978176D01*
X1945133Y1661299D02*
X1978159D01*
X1944458Y1662199D02*
X1977864D01*
X1971794Y1631599D02*
X1977359D01*
X1973597Y1633399D02*
X1977333D01*
X1972697Y1632499D02*
X1977156D01*
X1975673Y1552399D02*
X1976300D01*
X1970669Y1637899D02*
X1974193D01*
X1970972Y1555099D02*
X1973918D01*
X1971724Y1638799D02*
X1973166D01*
X1936756Y1636999D02*
X1973110D01*
X1971882Y1555999D02*
X1973008D01*
X1936756Y1636099D02*
X1971913D01*
X1970673Y1552399D02*
X1971300D01*
X1944636Y1537999D02*
X1971280D01*
X1936756Y1635199D02*
X1971013D01*
X1945200Y1538899D02*
X1970914D01*
X1960612Y1541599D02*
X1970900D01*
X1960068Y1540699D02*
X1970900D01*
X1945405Y1539799D02*
X1970900D01*
X1965573Y1542499D02*
X1966400D01*
X1962795Y1637899D02*
X1966347D01*
X1965673Y1552399D02*
X1966300D01*
X1960299Y1565899D02*
X1966289D01*
X1963098Y1555099D02*
X1966044D01*
X1959399Y1566799D02*
X1965389D01*
X1963850Y1638799D02*
X1965292D01*
X1964008Y1555999D02*
X1965134D01*
X1958499Y1567699D02*
X1964489D01*
X1957599Y1568599D02*
X1963589D01*
X1956699Y1569499D02*
X1962689D01*
X1955799Y1570399D02*
X1961789D01*
X1960994Y1542499D02*
X1961396D01*
X1960673Y1552399D02*
X1961300D01*
X1955650Y1574899D02*
X1961086D01*
X1955650Y1571299D02*
X1960909D01*
X1955650Y1573999D02*
X1960497D01*
X1955650Y1572199D02*
X1960428D01*
X1955650Y1573099D02*
X1960308D01*
X1954551Y1562299D02*
X1958792D01*
X1936756Y1563199D02*
X1958615D01*
X1936756Y1634299D02*
X1958486D01*
X1954921Y1637899D02*
X1958473D01*
X1955224Y1555099D02*
X1958170D01*
X1936756Y1564099D02*
X1957715D01*
X1955799Y1561399D02*
X1957594D01*
X1955976Y1638799D02*
X1957418D01*
X1956134Y1555999D02*
X1957260D01*
X1945328Y1540699D02*
X1957132D01*
X1936756Y1633399D02*
X1957007D01*
X1936756Y1564999D02*
X1956815D01*
X1944945Y1541599D02*
X1956588D01*
X1955573Y1542499D02*
X1956369D01*
X1955673Y1552399D02*
X1956300D01*
X1936756Y1632499D02*
X1956107D01*
X1936756Y1565899D02*
X1955915D01*
X1936756Y1631599D02*
X1955207D01*
X1936756Y1566799D02*
X1955015D01*
X1936756Y1630699D02*
X1954307D01*
X1936756Y1567699D02*
X1954115D01*
X1936756Y1629799D02*
X1953407D01*
X1936756Y1568599D02*
X1953215D01*
X1936756Y1628899D02*
X1952670D01*
X1936756Y1569499D02*
X1952604D01*
X1936756Y1627999D02*
X1952550D01*
X1936756Y1627099D02*
X1952550D01*
X1936756Y1626199D02*
X1952550D01*
X1936756Y1625299D02*
X1952550D01*
X1936756Y1624399D02*
X1952550D01*
X1936756Y1623499D02*
X1952550D01*
X1936756Y1622599D02*
X1952550D01*
X1936756Y1621699D02*
X1952550D01*
X1936756Y1620799D02*
X1952550D01*
X1936756Y1619899D02*
X1952550D01*
X1936756Y1618999D02*
X1952550D01*
X1936756Y1618099D02*
X1952550D01*
X1936756Y1617199D02*
X1952550D01*
X1936756Y1616299D02*
X1952550D01*
X1936756Y1615399D02*
X1952550D01*
X1936756Y1614499D02*
X1952550D01*
X1936756Y1613599D02*
X1952550D01*
X1936756Y1612699D02*
X1952550D01*
X1936756Y1611799D02*
X1952550D01*
X1936756Y1610899D02*
X1952550D01*
X1936756Y1609999D02*
X1952550D01*
X1936756Y1609099D02*
X1952550D01*
X1936756Y1608199D02*
X1952550D01*
X1936756Y1607299D02*
X1952550D01*
X1936756Y1606399D02*
X1952550D01*
X1936756Y1605499D02*
X1952550D01*
X1936756Y1604599D02*
X1952550D01*
X1936756Y1603699D02*
X1952550D01*
X1936756Y1602799D02*
X1952550D01*
X1936756Y1601899D02*
X1952550D01*
X1936756Y1600999D02*
X1952550D01*
X1936756Y1600099D02*
X1952550D01*
X1936756Y1599199D02*
X1952550D01*
X1936756Y1598299D02*
X1952550D01*
X1936756Y1597399D02*
X1952550D01*
X1936756Y1596499D02*
X1952550D01*
X1936756Y1595599D02*
X1952550D01*
X1936756Y1594699D02*
X1952550D01*
X1936756Y1593799D02*
X1952550D01*
X1936756Y1592899D02*
X1952550D01*
X1936756Y1591999D02*
X1952550D01*
X1936756Y1591099D02*
X1952550D01*
X1936756Y1590199D02*
X1952550D01*
X1936756Y1589299D02*
X1952550D01*
X1936756Y1588399D02*
X1952550D01*
X1936756Y1587499D02*
X1952550D01*
X1936756Y1586599D02*
X1952550D01*
X1936756Y1585699D02*
X1952550D01*
X1936756Y1584799D02*
X1952550D01*
X1936756Y1583899D02*
X1952550D01*
X1936756Y1582999D02*
X1952550D01*
X1936756Y1582099D02*
X1952550D01*
X1936756Y1581199D02*
X1952550D01*
X1936756Y1580299D02*
X1952550D01*
X1936756Y1579399D02*
X1952550D01*
X1936756Y1578499D02*
X1952550D01*
X1936756Y1577599D02*
X1952550D01*
X1936756Y1576699D02*
X1952550D01*
X1936756Y1575799D02*
X1952550D01*
X1936756Y1574899D02*
X1952550D01*
X1936756Y1573999D02*
X1952550D01*
X1936756Y1573099D02*
X1952550D01*
X1936756Y1572199D02*
X1952550D01*
X1936756Y1571299D02*
X1952550D01*
X1936756Y1570399D02*
X1952550D01*
X1950573Y1542499D02*
X1951400D01*
X1950673Y1552399D02*
X1951300D01*
X1936756Y1562299D02*
X1950968D01*
X1947047Y1637899D02*
X1950599D01*
X1936756Y1555099D02*
X1950296D01*
X1936756Y1561399D02*
X1949720D01*
X1948102Y1638799D02*
X1949544D01*
X1936756Y1555999D02*
X1949386D01*
X1936756Y1560499D02*
X1949066D01*
X1936756Y1556899D02*
X1948877D01*
X1936756Y1559599D02*
X1948706D01*
X1936756Y1557799D02*
X1948619D01*
X1936756Y1558699D02*
X1948564D01*
X1936756Y1645999D02*
X1946667D01*
X1944046Y1542499D02*
X1946400D01*
X1936756Y1552399D02*
X1946300D01*
X1936756Y1646899D02*
X1946254D01*
X1936756Y1647799D02*
X1946085D01*
X1936756Y1672099D02*
X1946023D01*
X1943071Y1537099D02*
X1945977D01*
X1936756Y1663099D02*
X1945896D01*
X1936756Y1528099D02*
X1945892D01*
X1936756Y1656799D02*
X1945860D01*
X1936756Y1671199D02*
X1945810D01*
X1936756Y1670299D02*
X1945810D01*
X1936756Y1669399D02*
X1945810D01*
X1936756Y1668499D02*
X1945810D01*
X1936756Y1667599D02*
X1945810D01*
X1936756Y1666699D02*
X1945810D01*
X1936756Y1665799D02*
X1945810D01*
X1936756Y1664899D02*
X1945810D01*
X1936756Y1663999D02*
X1945810D01*
X1936756Y1655899D02*
X1945810D01*
X1936756Y1654999D02*
X1945810D01*
X1936756Y1654099D02*
X1945810D01*
X1936756Y1653199D02*
X1945810D01*
X1936756Y1652299D02*
X1945810D01*
X1936756Y1651399D02*
X1945810D01*
X1936756Y1650499D02*
X1945810D01*
X1936756Y1649599D02*
X1945810D01*
X1936756Y1648699D02*
X1945810D01*
X1936756Y1543399D02*
X1945799D01*
X1936756Y1551499D02*
X1945793D01*
X1936756Y1550599D02*
X1945790D01*
X1936756Y1549699D02*
X1945790D01*
X1936756Y1548799D02*
X1945790D01*
X1936756Y1547899D02*
X1945790D01*
X1936756Y1546999D02*
X1945790D01*
X1936756Y1546099D02*
X1945790D01*
X1936756Y1545199D02*
X1945790D01*
X1936756Y1544299D02*
X1945790D01*
X1936756Y1536199D02*
X1945790D01*
X1936756Y1535299D02*
X1945790D01*
X1936756Y1534399D02*
X1945790D01*
X1936756Y1533499D02*
X1945790D01*
X1936756Y1532599D02*
X1945790D01*
X1936756Y1531699D02*
X1945790D01*
X1936756Y1530799D02*
X1945790D01*
X1936756Y1529899D02*
X1945790D01*
X1936756Y1528999D02*
X1945790D01*
X1936756Y1637899D02*
X1942725D01*
X1936756Y1645099D02*
X1942720D01*
X1936756Y1537099D02*
X1941815D01*
X1936756Y1638799D02*
X1941670D01*
X1936756Y1644199D02*
X1941667D01*
X1936756Y1639699D02*
X1941092D01*
X1936756Y1643299D02*
X1941090D01*
X1936756Y1542499D02*
X1940841D01*
X1936756Y1640599D02*
X1940784D01*
X1936756Y1642399D02*
X1940783D01*
X1936756Y1641499D02*
X1940686D01*
X1936756Y1657699D02*
X1940588D01*
X1936756Y1662199D02*
X1940469D01*
X1936756Y1537999D02*
X1940251D01*
X1936756Y1541599D02*
X1939942D01*
X1936756Y1658599D02*
X1939846D01*
X1936756Y1661299D02*
X1939794D01*
X1936756Y1538899D02*
X1939687D01*
X1936756Y1540699D02*
X1939558D01*
X1936756Y1659499D02*
X1939537D01*
X1936756Y1660399D02*
X1939522D01*
X1936756Y1539799D02*
X1939482D01*
X1935000Y1522500D02*
X2065000D01*
Y1677500*
X1935000*
Y1522500*
G54D24*
X1993487Y1537657D02*
Y1536457D01*
X1996183Y1532520D02*
X1994983D01*
X1993487Y1527383D02*
Y1528583D01*
X1993507Y1672617D02*
Y1671417D01*
X1996203Y1667480D02*
X1995003D01*
X1993507Y1662343D02*
Y1663543D01*
X1945811Y1667480D02*
X1947011D01*
X1948507Y1672617D02*
Y1671417D01*
Y1662343D02*
Y1663543D01*
G54D42*
Y1667480D02*
Y1662366D01*
X1948527*
X1948429Y1672602D02*
X1948507D01*
Y1667480*
X1993507D02*
Y1672601D01*
X1993508Y1672602*
X1993507Y1667480D02*
Y1662269D01*
X1993508Y1662268*
G54D48*
X1979700Y1539100D02*
X1972300D01*
Y1544700*
X1979700*
Y1539100*
X1972300Y1544499D02*
X1979700D01*
X1972300Y1544139D02*
X1979700D01*
X1972300Y1543779D02*
X1979700D01*
X1972300Y1543419D02*
X1979700D01*
X1972300Y1543059D02*
X1979700D01*
X1972300Y1542699D02*
X1979700D01*
X1972300Y1542339D02*
X1979700D01*
X1972300Y1541979D02*
X1979700D01*
X1972300Y1541619D02*
X1979700D01*
X1972300Y1541259D02*
X1979700D01*
X1972300Y1540899D02*
X1979700D01*
X1972300Y1540539D02*
X1979700D01*
X1972300Y1540179D02*
X1979700D01*
X1972300Y1539819D02*
X1979700D01*
X1972300Y1539459D02*
X1979700D01*
G54D137*
G54D144*
X2015260Y1543862D03*
X2023134D03*
X2027400Y1660400D03*
X2019526D03*
X2011652D03*
G54D149*
X2031500Y1641500D03*
Y1558500D03*
G54D150*
X2023626Y1641500D03*
X2015752D03*
X2007878D03*
X2000004D03*
X1992130D03*
X1984256D03*
X1976382D03*
X1968508D03*
X1960634D03*
X1952760D03*
X1944886D03*
X2023626Y1558500D03*
X2015752D03*
X2007878D03*
X2000004D03*
X1992130D03*
X1984256D03*
X1976382D03*
X1968508D03*
X1960634D03*
X1952760D03*
G54D151*
X1973487Y1548100D02*
X1973500Y1548087D01*
Y1542900*
Y1540100*
X1975900*
Y1542700D02*
Y1542900D01*
X1978500*
X1975900Y1542700D02*
Y1540100D01*
X1958487Y1547480D02*
Y1542200D01*
X1958600*
X1978487Y1547480D02*
Y1542400D01*
Y1542900*
X1978500*
X1978487Y1542400D02*
X1978500Y1542387D01*
Y1540100*
X1954100Y1569906D02*
Y1628300D01*
X1958550Y1632750*
X1970756*
X1973506Y1635500*
X1978006*
X1980356Y1637850*
X1954100Y1569906D02*
X1960506Y1563500D01*
X1995004*
X2000004Y1558500*
X1988194Y1566894D02*
X1988200Y1566900D01*
X1952760Y1641500D02*
X1953256D01*
Y1652269*
X1953507Y1652520*
X1948232Y1647602D02*
Y1652520D01*
X1948507*
X1963507D02*
X1963900D01*
Y1647500*
X1968507Y1652520D02*
X1968508Y1652519D01*
X1960634Y1641500D02*
Y1643272D01*
X1962996Y1645634*
X1966342*
X1968508Y1647799*
Y1652519*
X1958468Y1646224D02*
Y1652481D01*
X1958507Y1652520*
X1973429Y1647406D02*
Y1652442D01*
X1973507Y1652520*
X1973429Y1647406D02*
X1974807Y1646028D01*
X1977978*
X1980356Y1643650*
Y1637850*
X1983507Y1667480D02*
X1983600Y1667387D01*
Y1662300*
G54D152*
X1993487Y1532520D02*
Y1537487D01*
X1993500Y1537500*
X1993487Y1532520D02*
Y1527513D01*
X1993500Y1527500*
X1992130Y1554300D02*
Y1555500D01*
X1984256Y1554300D02*
Y1555500D01*
Y1645700D02*
Y1644500D01*
X1960634Y1554300D02*
Y1555500D01*
X2031500Y1645700D02*
Y1644500D01*
Y1637300D02*
Y1638500D01*
X2027400Y1656641D02*
Y1657841D01*
X2031159Y1660400D02*
X2029959D01*
X2027400Y1664159D02*
Y1662959D01*
G54D153*
X1979256Y1632500D02*
X1981756Y1635000D01*
X2000756*
X2004006Y1638250*
Y1652754*
X2011652Y1660400*
X1989256Y1632500D02*
X2008256D01*
X2011856Y1636100*
Y1652730*
X2019526Y1660400*
G54D154*
X1941500Y1531500D03*
X1993500Y1527500D03*
X2001500Y1531500D03*
X2011500D03*
X2021500D03*
X2031500D03*
X2041500D03*
X2051500D03*
X2061500D03*
X1941500Y1551500D03*
X1973500Y1540100D03*
Y1542900D03*
X1975900Y1540100D03*
Y1542700D03*
X1961900Y1540700D03*
X1968500Y1540000D03*
X1958600Y1542200D03*
X1978500Y1542900D03*
Y1540100D03*
X1988500Y1540000D03*
X1993500Y1537500D03*
X2006500Y1539000D03*
X2004000Y1551500D03*
X2011500D03*
X2021500D03*
X2031500D03*
Y1539000D03*
X2019000D03*
X2051500Y1551500D03*
Y1541500D03*
X2041500D03*
X2061500D03*
Y1551500D03*
X1944900Y1556100D03*
X1941500Y1571400D03*
Y1561500D03*
X1938000Y1567400D03*
X1957300Y1570100D03*
X1974000D03*
X1967700Y1573200D03*
X1976800Y1572700D03*
X1959600Y1572300D03*
X1961900Y1569700D03*
X1963006Y1573000D03*
X1991300Y1573300D03*
X1992800Y1570100D03*
X1993956Y1566900D03*
X1988200D03*
X1987700Y1570100D03*
X2013900Y1573300D03*
X2031500Y1571500D03*
X2051500D03*
Y1561500D03*
X2041500Y1571500D03*
X2061500Y1561500D03*
Y1571500D03*
X1941500Y1591500D03*
Y1581500D03*
X1951500Y1577000D03*
Y1583500D03*
X1951750Y1592750D03*
X1941256Y1595500D03*
X1961500Y1589000D03*
X1975000Y1589500D03*
X1966500Y1581500D03*
X1976500D03*
X1959500Y1593000D03*
X1991500Y1581500D03*
X1989500Y1589500D03*
X2001500Y1581500D03*
X2003500Y1589500D03*
X2016750Y1593000D03*
X2016800Y1577100D03*
X2026400Y1585800D03*
X2031500Y1581500D03*
Y1591500D03*
X2021500D03*
X2040000Y1594500D03*
X2045500Y1592000D03*
X2048000Y1591000D03*
X2051000D03*
X2054000Y1587000D03*
X2055500Y1593500D03*
X2051500Y1581500D03*
X2042500Y1592500D03*
X2041500Y1581500D03*
X2059000Y1587000D03*
X2058500Y1594000D03*
X2062000Y1586500D03*
Y1591500D03*
X2061500Y1581500D03*
X1940756Y1615500D03*
X1961500Y1596500D03*
Y1604000D03*
Y1611500D03*
X1975000Y1610500D03*
Y1604000D03*
Y1596500D03*
X1989500Y1610500D03*
Y1604000D03*
Y1596500D03*
X2007000Y1613500D03*
Y1610000D03*
X2009000Y1607000D03*
X2003500Y1596500D03*
Y1603500D03*
Y1610500D03*
X2016750Y1602250D03*
Y1597500D03*
X2017000Y1607500D03*
X2020000D03*
X2023000D03*
X2026000D03*
X2029000D03*
X2032000D03*
X2035000D03*
X2031500Y1601500D03*
X2021500D03*
X2046000Y1604000D03*
X2055500Y1596500D03*
X2037500Y1607500D03*
Y1604500D03*
X2038000Y1597500D03*
X2050000Y1601500D03*
X2055500Y1599000D03*
X2054900Y1609100D03*
X2052200Y1607900D03*
X2046000Y1600500D03*
Y1607500D03*
X2049200Y1607600D03*
X2037500Y1601000D03*
X2058500Y1599000D03*
X2057000Y1610900D03*
X2062000Y1596500D03*
Y1601500D03*
X2058800Y1613600D03*
X2062000Y1606500D03*
X1941500Y1631500D03*
Y1621500D03*
X1956700Y1627100D03*
X1940900Y1634500D03*
X1967750Y1626750D03*
X1974000Y1616500D03*
X1959500D03*
X1963000Y1626750D03*
Y1619250D03*
X1967750D03*
X1984000Y1616500D03*
X1996500D03*
X1979256Y1632500D03*
X1989256D03*
X2008500Y1623000D03*
X2009000Y1616500D03*
X2016750Y1623000D03*
X2035000Y1616000D03*
X2032000D03*
X2029000D03*
X2026000D03*
X2023000D03*
X2020000D03*
X2017000D03*
X2026500Y1621500D03*
Y1626500D03*
X2021500Y1621500D03*
X2051000Y1625000D03*
X2041000Y1616000D03*
X2038000D03*
X2051000Y1619300D03*
X2044000Y1616000D03*
X2047000D03*
X2051000Y1630400D03*
X2049200Y1622300D03*
X2050000Y1616000D03*
X2051000Y1627700D03*
X2048900Y1633100D03*
X2059700Y1616900D03*
Y1629800D03*
Y1623500D03*
Y1620500D03*
Y1626800D03*
Y1635500D03*
Y1632800D03*
X1943500Y1647700D03*
X1939256Y1653500D03*
X1948232Y1647602D03*
X1963900Y1647500D03*
X1958468Y1646224D03*
X2001500Y1651500D03*
X2031500Y1654000D03*
Y1637300D03*
Y1651500D03*
X2021500D03*
X2031500Y1649000D03*
X2033900Y1635800D03*
X2036600D03*
X2031500Y1646500D03*
X2042000Y1635800D03*
X2049800D03*
X2047400D03*
X2039300D03*
X2044700D03*
X1948429Y1672602D03*
X1941500Y1666500D03*
Y1671500D03*
X1948527Y1662366D03*
X1958500Y1659000D03*
X1980100Y1662100D03*
X1978500Y1659000D03*
X1988500D03*
X1993508Y1672602D03*
X1983600Y1662300D03*
X1993508Y1662268D03*
X2001500Y1671500D03*
X2011500D03*
X2031500Y1674000D03*
Y1666500D03*
Y1664000D03*
Y1661500D03*
Y1659000D03*
X2021500Y1671500D03*
X2031500D03*
Y1669000D03*
Y1656500D03*
G54D156*
X1993507Y1667480D03*
Y1652520D03*
X1988507Y1667480D03*
Y1652520D03*
X1983507Y1667480D03*
Y1652520D03*
X1978507Y1667480D03*
Y1652520D03*
X1973507Y1667480D03*
Y1652520D03*
X1968507Y1667480D03*
Y1652520D03*
X1963507Y1667480D03*
Y1652520D03*
X1958507Y1667480D03*
Y1652520D03*
X1953507Y1667480D03*
Y1652520D03*
X1948507Y1667480D03*
Y1652520D03*
X1993487Y1547480D03*
Y1532520D03*
X1988487Y1547480D03*
Y1532520D03*
X1983487Y1547480D03*
Y1532520D03*
X1978487Y1547480D03*
Y1532520D03*
X1973487Y1547480D03*
Y1532520D03*
X1968487Y1547480D03*
Y1532520D03*
X1963487Y1547480D03*
Y1532520D03*
X1958487Y1547480D03*
Y1532520D03*
X1953487Y1547480D03*
Y1532520D03*
X1948487Y1547480D03*
Y1532520D03*
G54D157*
X1973487Y1547480D02*
Y1548100D01*
G54D158*
X1978500Y1540100D02*
Y1539300D01*
X1979700*
G54D159*
X2023134Y1543862D02*
X2032779D01*
X2041500Y1552583*
Y1561500*
X1963006Y1573000D02*
X1969112Y1566894D01*
X1988194*
X2036106*
X2041500Y1561500*
G74*
X0Y0D02*
M02*
