*
*
G04 PADS 9.3 Build Number: 433611 generated Gerber (RS-274-X) file*
G04 PC Version=2.1*
*
%IN "WG1300E00T-PCB-D01_2012"*%
*
%MOIN*%
*
%FSLAX35Y35*%
*
*
*
*
G04 PC Standard Apertures*
*
*
G04 Thermal Relief Aperture macro.*
%AMTER*
1,1,$1,0,0*
1,0,$1-$2,0,0*
21,0,$3,$4,0,0,45*
21,0,$3,$4,0,0,135*
%
*
*
G04 Annular Aperture macro.*
%AMANN*
1,1,$1,0,0*
1,0,$2,0,0*
%
*
*
G04 Odd Aperture macro.*
%AMODD*
1,1,$1,0,0*
1,0,$1-0.005,0,0*
%
*
*
G04 PC Custom Aperture Macros*
*
*
*
*
*
*
G04 PC Aperture Table*
*
%ADD014C,0.01*%
%ADD024C,0.015*%
%ADD137C,0.00004*%
%ADD138R,0.02165X0.02362*%
%ADD139R,0.01969X0.01969*%
%ADD140R,0.02756X0.04724*%
%ADD141R,0.04724X0.02756*%
%ADD142R,0.0748X0.09449*%
%ADD143R,0.04724X0.04724*%
%ADD144C,0.05118*%
%ADD145R,0.0315X0.03543*%
%ADD146R,0.04134X0.03937*%
%ADD147R,0.08661X0.04134*%
%ADD148R,0.07874X0.04921*%
%ADD149R,0.06X0.06*%
%ADD150C,0.06*%
%ADD151C,0.007*%
%ADD152C,0.02*%
%ADD153C,0.006*%
%ADD154C,0.018*%
*
*
*
*
G04 PC Circuitry*
G04 Layer Name WG1300E00T-PCB-D01_2012 - circuitry*
%LPD*%
*
*
G04 PC Custom Flashes*
G04 Layer Name WG1300E00T-PCB-D01_2012 - flashes*
%LPD*%
*
*
G04 PC Circuitry*
G04 Layer Name WG1300E00T-PCB-D01_2012 - circuitry*
%LPD*%
*
G54D14*
G01X1940300Y1596456D02*
Y1614544D01*
X2003286Y1540000D02*
G75*
G03X2003286I-3756J0D01*
G01X2003306Y1660000D02*
G03X2003306I-3756J0D01*
G01X1945432D02*
G03X1945432I-2969J0D01*
G01X1945412Y1540000D02*
G03X1945412I-2969J0D01*
G01X2063256Y1525000D02*
Y1635670D01*
G03X2062756Y1636170I-500J-0*
G01X2059400*
G03X2058900Y1635670I-0J-500*
G01Y1635317*
G03X2058927Y1635155I500J0*
G01X2059072Y1634281D02*
G03X2058927Y1635155I-2700J0D01*
G01X2059072Y1634281D02*
Y1631919D01*
X2058927Y1631045D02*
G03X2059072Y1631919I-2555J874D01*
G01X2058927Y1631045D02*
G03X2058900Y1630883I473J-162D01*
G01Y1629275*
X2058886Y1628955D02*
G03X2058900Y1629275I-3686J320D01*
G01X2058886Y1628955D02*
G03X2058884Y1628911I498J-44D01*
G01Y1628291*
X2058838Y1627792D02*
G03X2058884Y1628291I-2654J499D01*
G01X2058838Y1627792D02*
G03Y1627608I491J-92D01*
G01X2058884Y1627109D02*
G03X2058838Y1627608I-2700J0D01*
G01X2058884Y1627109D02*
Y1626489D01*
G03X2058886Y1626445I500J-0*
G01X2058900Y1626125D02*
G03X2058886Y1626445I-3700J0D01*
G01X2058900Y1626125D02*
Y1624517D01*
G03X2058927Y1624355I500J0*
G01X2059072Y1623481D02*
G03X2058927Y1624355I-2700J0D01*
G01X2059072Y1623481D02*
Y1621119D01*
X2058927Y1620245D02*
G03X2059072Y1621119I-2555J874D01*
G01X2058927Y1620245D02*
G03X2058900Y1620083I473J-162D01*
G01Y1617500*
X2049500Y1608100D02*
G03X2058900Y1617500I-0J9400D01*
G01X2049500Y1608100D02*
X2045900D01*
G03X2045400Y1607600I-0J-500*
G01Y1600700*
G03X2045626Y1600148I787J0*
X2046327Y1600137I356J351*
G01X2048189Y1600882D02*
G03X2046327Y1600137I-0J-2700D01*
G01X2048189Y1600882D02*
X2050229D01*
G03X2050729Y1601382I0J500*
G01Y1604185*
X2051929Y1605385D02*
G03X2050729Y1604185I0J-1200D01*
G01X2051929Y1605385D02*
X2060591D01*
X2061791Y1604185D02*
G03X2060591Y1605385I-1200J0D01*
G01X2061791Y1604185D02*
Y1600052D01*
X2060591Y1598852D02*
G03X2061791Y1600052I-0J1200D01*
G01X2060591Y1598852D02*
X2055518D01*
G03X2055019Y1598325I0J-500*
G01X2055023Y1598182D02*
G03X2055019Y1598325I-2700J-0D01*
G01X2055023Y1598182D02*
Y1594244D01*
X2055019Y1594101D02*
G03X2055023Y1594244I-2696J143D01*
G01X2055019Y1594101D02*
G03X2055518Y1593574I499J-27D01*
G01X2060591*
X2061791Y1592374D02*
G03X2060591Y1593574I-1200J0D01*
G01X2061791Y1592374D02*
Y1588241D01*
X2060591Y1587041D02*
G03X2061791Y1588241I-0J1200D01*
G01X2060591Y1587041D02*
X2051929D01*
X2050729Y1588241D02*
G03X2051929Y1587041I1200J-0D01*
G01X2050729Y1588241D02*
Y1591044D01*
G03X2050229Y1591544I-500J0*
G01X2048189*
X2046250Y1592366D02*
G03X2048189Y1591544I1939J1878D01*
G01X2046250Y1592366D02*
G03X2045908Y1592518I-359J-348D01*
G01X2038000Y1600700D02*
G03X2045908Y1592518I8187J0D01*
G01X2038000Y1600700D02*
Y1607611D01*
G03X2037500Y1608111I-500J0*
G01X2016861*
G03X2016361Y1607611I0J-500*
G01Y1605709*
X2016140Y1605014D02*
G03X2016361Y1605709I-979J695D01*
G01X2016140Y1605014D02*
G03Y1604435I408J-290D01*
G01X2016361Y1603740D02*
G03X2016140Y1604435I-1200J0D01*
G01X2016361Y1603740D02*
Y1600984D01*
X2016140Y1600289D02*
G03X2016361Y1600984I-979J695D01*
G01X2016140Y1600289D02*
G03Y1599711I408J-289D01*
G01X2016361Y1599016D02*
G03X2016140Y1599711I-1200J-0D01*
G01X2016361Y1599016D02*
Y1596260D01*
X2016140Y1595565D02*
G03X2016361Y1596260I-979J695D01*
G01X2016140Y1595565D02*
G03Y1594986I408J-289D01*
G01X2016361Y1594291D02*
G03X2016140Y1594986I-1200J0D01*
G01X2016361Y1594291D02*
Y1591535D01*
X2016140Y1590841D02*
G03X2016361Y1591535I-979J694D01*
G01X2016140Y1590841D02*
G03Y1590262I408J-290D01*
G01X2016260Y1590049D02*
G03X2016140Y1590262I-1099J-482D01*
G01X2016260Y1590049D02*
G03X2016718Y1589750I458J201D01*
G01X2018581*
X2019677Y1589296D02*
G03X2018581Y1589750I-1096J-1096D01*
G01X2019677Y1589296D02*
X2025977Y1582996D01*
X2026431Y1581900D02*
G03X2025977Y1582996I-1550J0D01*
G01X2026431Y1581900D02*
Y1572168D01*
G03X2026577Y1571815I500J0*
G01X2027177Y1571215*
X2027506Y1570730D02*
G03X2027177Y1571215I-1425J-611D01*
G01X2027506Y1570730D02*
G03X2027700Y1570502I459J196D01*
G01X2028265Y1569484D02*
G03X2027700Y1570502I-1200J0D01*
G01X2028265Y1569484D02*
Y1567516D01*
X2027817Y1566581D02*
G03X2028265Y1567516I-752J935D01*
G01X2027817Y1566581D02*
G03X2027631Y1566191I314J-390D01*
G01Y1564749*
G03X2027777Y1564396I500J0*
G01X2028120Y1564053*
G03X2028163Y1564015I353J353*
G01X2028296Y1563896D02*
G03X2028163Y1564015I-1096J-1096D01*
G01X2028296Y1563896D02*
X2029345Y1562846D01*
X2029345D02*
G03X2029699Y1562700I354J354D01*
G01X2034500*
X2035700Y1561500D02*
G03X2034500Y1562700I-1200J0D01*
G01X2035700Y1561500D02*
Y1555500D01*
X2034500Y1554300D02*
G03X2035700Y1555500I-0J1200D01*
G01X2034500Y1554300D02*
X2028500D01*
X2027337Y1555205D02*
G03X2028500Y1554300I1163J295D01*
G01X2027337Y1555205D02*
G03X2026509Y1555446I-485J-123D01*
G01X2020108Y1556206D02*
G03X2026509Y1555446I3518J2294D01*
G01X2020108Y1556206D02*
G03X2019270I-419J-273D01*
G01X2012234D02*
G03X2019270I3518J2294D01*
G01X2012234D02*
G03X2011396I-419J-273D01*
G01X2004360D02*
G03X2011396I3518J2294D01*
G01X2004360D02*
G03X2003522I-419J-273D01*
G01X1996486D02*
G03X2003522I3518J2294D01*
G01X1996486D02*
G03X1995648I-419J-273D01*
G01X1988612D02*
G03X1995648I3518J2294D01*
G01X1988612D02*
G03X1987774I-419J-273D01*
G01X1980738D02*
G03X1987774I3518J2294D01*
G01X1980738D02*
G03X1979900I-419J-273D01*
G01X1977788Y1554543D02*
G03X1979900Y1556206I-1406J3957D01*
G01X1977788Y1554543D02*
G03X1977456Y1554071I168J-472D01*
G01Y1552546*
G03X1977625Y1552171I500J0*
G01X1978031Y1551272D02*
G03X1977625Y1552171I-1200J-0D01*
G01X1978031Y1551272D02*
Y1547728D01*
X1976831Y1546528D02*
G03X1978031Y1547728I-0J1200D01*
G01X1976831Y1546528D02*
X1973681D01*
X1972847Y1546865D02*
G03X1973681Y1546528I834J863D01*
G01X1972847Y1546865D02*
G03X1972153I-347J-359D01*
G01X1971319Y1546528D02*
G03X1972153Y1546865I-0J1200D01*
G01X1971319Y1546528D02*
X1968169D01*
X1966969Y1547728D02*
G03X1968169Y1546528I1200J0D01*
G01X1966969Y1547728D02*
Y1551272D01*
X1967379Y1552175D02*
G03X1966969Y1551272I790J-903D01*
G01X1967379Y1552175D02*
G03X1967550Y1552551I-329J376D01*
G01Y1554032*
G03X1967205Y1554507I-500J-0*
G01X1964990Y1556206D02*
G03X1967205Y1554507I3518J2294D01*
G01X1964990Y1556206D02*
G03X1964152I-419J-273D01*
G01X1957116D02*
G03X1964152I3518J2294D01*
G01X1957116D02*
G03X1956278I-419J-273D01*
G01X1954592Y1554721D02*
G03X1956278Y1556206I-1832J3779D01*
G01X1954592Y1554721D02*
G03X1954310Y1554271I218J-450D01*
G01Y1548214*
G03X1954456Y1547861I500J0*
G01X1955386Y1546931*
G03X1955740Y1546784I354J353*
G01X1956509*
X1956926Y1546710D02*
G03X1956509Y1546784I-417J-1126D01*
G01X1956926Y1546710D02*
G03X1957274I174J468D01*
G01X1957690Y1546784D02*
G03X1957274Y1546710I0J-1200D01*
G01X1957690Y1546784D02*
X1959659D01*
X1960859Y1545584D02*
G03X1959659Y1546784I-1200J0D01*
G01X1960859Y1545584D02*
Y1543616D01*
X1960701Y1543021D02*
G03X1960859Y1543616I-1042J595D01*
G01X1960701Y1543021D02*
G03X1960648Y1542663I435J-247D01*
G01X1956512Y1541970D02*
G03X1960648Y1542663I2088J230D01*
G01X1956512Y1541970D02*
G03X1956015Y1542416I-497J-54D01*
G01X1954541*
X1953341Y1543616D02*
G03X1954541Y1542416I1200J-0D01*
G01X1953341Y1543616D02*
Y1544385D01*
G03X1953194Y1544739I-500J0*
G01X1951664Y1546269*
X1951210Y1547365D02*
G03X1951664Y1546269I1550J0D01*
G01X1951210Y1547365D02*
Y1554271D01*
G03X1950928Y1554721I-500J-0*
G01Y1562279D02*
G03Y1554721I1832J-3779D01*
G01Y1562279D02*
G03X1951210Y1562729I-218J450D01*
G01Y1564481*
G03X1950925Y1564932I-500J-0*
G01X1950241Y1566016D02*
G03X1950925Y1564932I1200J-0D01*
G01X1950241Y1566016D02*
Y1567984D01*
X1951441Y1569184D02*
G03X1950241Y1567984I-0J-1200D01*
G01X1951441Y1569184D02*
X1953409D01*
X1953826Y1569110D02*
G03X1953409Y1569184I-417J-1126D01*
G01X1953826Y1569110D02*
G03X1954174I174J468D01*
G01X1954590Y1569184D02*
G03X1954174Y1569110I0J-1200D01*
G01X1954590Y1569184D02*
X1956559D01*
X1956740Y1569171D02*
G03X1956559Y1569184I-181J-1187D01*
G01X1956740Y1569171D02*
G03X1957316Y1569665I76J494D01*
G01Y1571059*
X1958516Y1572259D02*
G03X1957316Y1571059I-0J-1200D01*
G01X1958516Y1572259D02*
X1960308D01*
G03X1960806Y1572806I-0J500*
G01X1960796Y1573010D02*
G03X1960806Y1572806I2200J-0D01*
G01X1960796Y1573010D02*
Y1573538D01*
G03X1960685Y1573852I-500J-0*
G01X1960418Y1574606D02*
G03X1960685Y1573852I1200J0D01*
G01X1960418Y1574606D02*
Y1579331D01*
X1961618Y1580531D02*
G03X1960418Y1579331I0J-1200D01*
G01X1961618Y1580531D02*
X1964374D01*
X1965069Y1580309D02*
G03X1964374Y1580531I-695J-978D01*
G01X1965069Y1580309D02*
G03X1965648I289J408D01*
G01X1966343Y1580531D02*
G03X1965648Y1580309I-0J-1200D01*
G01X1966343Y1580531D02*
X1969098D01*
X1969793Y1580309D02*
G03X1969098Y1580531I-695J-978D01*
G01X1969793Y1580309D02*
G03X1970372I290J408D01*
G01X1971067Y1580531D02*
G03X1970372Y1580309I-0J-1200D01*
G01X1971067Y1580531D02*
X1973823D01*
X1974518Y1580309D02*
G03X1973823Y1580531I-695J-978D01*
G01X1974518Y1580309D02*
G03X1975097I289J408D01*
G01X1975791Y1580531D02*
G03X1975097Y1580309I0J-1200D01*
G01X1975791Y1580531D02*
X1978547D01*
X1979242Y1580309D02*
G03X1978547Y1580531I-695J-978D01*
G01X1979242Y1580309D02*
G03X1979821I289J408D01*
G01X1980516Y1580531D02*
G03X1979821Y1580309I-0J-1200D01*
G01X1980516Y1580531D02*
X1983272D01*
X1983966Y1580309D02*
G03X1983272Y1580531I-694J-978D01*
G01X1983966Y1580309D02*
G03X1984545I290J408D01*
G01X1985240Y1580531D02*
G03X1984545Y1580309I0J-1200D01*
G01X1985240Y1580531D02*
X1987996D01*
X1988691Y1580309D02*
G03X1987996Y1580531I-695J-978D01*
G01X1988691Y1580309D02*
G03X1989270I289J408D01*
G01X1989965Y1580531D02*
G03X1989270Y1580309I-0J-1200D01*
G01X1989965Y1580531D02*
X1992720D01*
X1993415Y1580309D02*
G03X1992720Y1580531I-695J-978D01*
G01X1993415Y1580309D02*
G03X1993994I290J408D01*
G01X1994689Y1580531D02*
G03X1993994Y1580309I-0J-1200D01*
G01X1994689Y1580531D02*
X1997445D01*
X1998140Y1580309D02*
G03X1997445Y1580531I-695J-978D01*
G01X1998140Y1580309D02*
G03X1998719I289J408D01*
G01X1999413Y1580531D02*
G03X1998719Y1580309I0J-1200D01*
G01X1999413Y1580531D02*
X2002169D01*
X2002864Y1580309D02*
G03X2002169Y1580531I-695J-978D01*
G01X2002864Y1580309D02*
G03X2003443I290J408D01*
G01X2004138Y1580531D02*
G03X2003443Y1580309I-0J-1200D01*
G01X2004138Y1580531D02*
X2006894D01*
X2008094Y1579331D02*
G03X2006894Y1580531I-1200J-0D01*
G01X2008094Y1579331D02*
Y1575150D01*
G03X2008594Y1574650I500J0*
G01X2008737*
G03X2009237Y1575150I-0J500*
G01Y1579331*
X2009734Y1580303D02*
G03X2009237Y1579331I703J-972D01*
G01X2009734Y1580303D02*
G03Y1581114I-293J406D01*
G01X2009237Y1582087D02*
G03X2009734Y1581114I1200J-0D01*
G01X2009237Y1582087D02*
Y1584843D01*
X2009459Y1585537D02*
G03X2009237Y1584843I978J-694D01*
G01X2009459Y1585537D02*
G03Y1586116I-408J290D01*
G01X2009237Y1586811D02*
G03X2009459Y1586116I1200J0D01*
G01X2009237Y1586811D02*
Y1589567D01*
X2009459Y1590262D02*
G03X2009237Y1589567I978J-695D01*
G01X2009459Y1590262D02*
G03Y1590841I-408J289D01*
G01X2009237Y1591535D02*
G03X2009459Y1590841I1200J0D01*
G01X2009237Y1591535D02*
Y1594291D01*
X2009459Y1594986D02*
G03X2009237Y1594291I978J-695D01*
G01X2009459Y1594986D02*
G03Y1595565I-408J290D01*
G01X2009237Y1596260D02*
G03X2009459Y1595565I1200J-0D01*
G01X2009237Y1596260D02*
Y1599016D01*
X2009459Y1599711D02*
G03X2009237Y1599016I978J-695D01*
G01X2009459Y1599711D02*
G03Y1600289I-408J289D01*
G01X2009237Y1600984D02*
G03X2009459Y1600289I1200J0D01*
G01X2009237Y1600984D02*
Y1603740D01*
X2009459Y1604435D02*
G03X2009237Y1603740I978J-695D01*
G01X2009459Y1604435D02*
G03Y1605014I-408J289D01*
G01X2009237Y1605709D02*
G03X2009459Y1605014I1200J-0D01*
G01X2009237Y1605709D02*
Y1607722D01*
G03X2009003Y1608146I-500J-0*
G01X2007737Y1610433D02*
G03X2009003Y1608146I2700J0D01*
G01X2007737Y1610433D02*
Y1613189D01*
X2009003Y1615476D02*
G03X2007737Y1613189I1434J-2287D01*
G01X2009003Y1615476D02*
G03X2009237Y1615900I-266J424D01*
G01Y1617913*
X2009734Y1618886D02*
G03X2009237Y1617913I703J-973D01*
G01X2009734Y1618886D02*
G03Y1619697I-293J405D01*
G01X2009237Y1620669D02*
G03X2009734Y1619697I1200J0D01*
G01X2009237Y1620669D02*
Y1624450D01*
G03X2008737Y1624950I-500J-0*
G01X2008594*
G03X2008094Y1624450I-0J-500*
G01Y1620669*
X2006894Y1619469D02*
G03X2008094Y1620669I-0J1200D01*
G01X2006894Y1619469D02*
X2004138D01*
X2003443Y1619691D02*
G03X2004138Y1619469I695J978D01*
G01X2003443Y1619691D02*
G03X2002864I-289J-408D01*
G01X2002169Y1619469D02*
G03X2002864Y1619691I0J1200D01*
G01X2002169Y1619469D02*
X1999413D01*
X1998719Y1619691D02*
G03X1999413Y1619469I694J978D01*
G01X1998719Y1619691D02*
G03X1998140I-290J-408D01*
G01X1997445Y1619469D02*
G03X1998140Y1619691I-0J1200D01*
G01X1997445Y1619469D02*
X1994689D01*
X1993994Y1619691D02*
G03X1994689Y1619469I695J978D01*
G01X1993994Y1619691D02*
G03X1993415I-289J-408D01*
G01X1992720Y1619469D02*
G03X1993415Y1619691I0J1200D01*
G01X1992720Y1619469D02*
X1989965D01*
X1989270Y1619691D02*
G03X1989965Y1619469I695J978D01*
G01X1989270Y1619691D02*
G03X1988691I-290J-408D01*
G01X1987996Y1619469D02*
G03X1988691Y1619691I0J1200D01*
G01X1987996Y1619469D02*
X1985240D01*
X1984545Y1619691D02*
G03X1985240Y1619469I695J978D01*
G01X1984545Y1619691D02*
G03X1983966I-289J-408D01*
G01X1983272Y1619469D02*
G03X1983966Y1619691I-0J1200D01*
G01X1983272Y1619469D02*
X1980516D01*
X1979821Y1619691D02*
G03X1980516Y1619469I695J978D01*
G01X1979821Y1619691D02*
G03X1979242I-290J-408D01*
G01X1978547Y1619469D02*
G03X1979242Y1619691I0J1200D01*
G01X1978547Y1619469D02*
X1975791D01*
X1975097Y1619691D02*
G03X1975791Y1619469I694J978D01*
G01X1975097Y1619691D02*
G03X1974518I-290J-408D01*
G01X1973823Y1619469D02*
G03X1974518Y1619691I-0J1200D01*
G01X1973823Y1619469D02*
X1971067D01*
X1970372Y1619691D02*
G03X1971067Y1619469I695J978D01*
G01X1970372Y1619691D02*
G03X1969793I-289J-408D01*
G01X1969098Y1619469D02*
G03X1969793Y1619691I0J1200D01*
G01X1969098Y1619469D02*
X1966343D01*
X1965648Y1619691D02*
G03X1966343Y1619469I695J978D01*
G01X1965648Y1619691D02*
G03X1965069I-290J-408D01*
G01X1964374Y1619469D02*
G03X1965069Y1619691I0J1200D01*
G01X1964374Y1619469D02*
X1961618D01*
X1960418Y1620669D02*
G03X1961618Y1619469I1200J0D01*
G01X1960418Y1620669D02*
Y1625394D01*
X1961618Y1626594D02*
G03X1960418Y1625394I0J-1200D01*
G01X1961618Y1626594D02*
X1964374D01*
X1965069Y1626372D02*
G03X1964374Y1626594I-695J-978D01*
G01X1965069Y1626372D02*
G03X1965648I289J408D01*
G01X1965989Y1626540D02*
G03X1965648Y1626372I354J-1146D01*
G01X1965989Y1626540D02*
G03X1966115Y1627437I-148J478D01*
G01X1965837Y1627689D02*
G03X1966115Y1627437I935J752D01*
G01X1965837Y1627689D02*
G03X1965447Y1627875I-390J-314D01*
G01X1954530*
G03X1954177Y1627729I0J-500*
G01X1953895Y1627447*
G03X1954249Y1626594I354J-353*
G01X1958075*
X1959275Y1625394D02*
G03X1958075Y1626594I-1200J-0D01*
G01X1959275Y1625394D02*
Y1620669D01*
X1958778Y1619697D02*
G03X1959275Y1620669I-703J972D01*
G01X1958778Y1619697D02*
G03Y1618886I292J-406D01*
G01X1959275Y1617913D02*
G03X1958778Y1618886I-1200J0D01*
G01X1959275Y1617913D02*
Y1615157D01*
X1959053Y1614463D02*
G03X1959275Y1615157I-978J694D01*
G01X1959053Y1614463D02*
G03Y1613884I408J-290D01*
G01X1959275Y1613189D02*
G03X1959053Y1613884I-1200J-0D01*
G01X1959275Y1613189D02*
Y1610433D01*
X1959053Y1609738D02*
G03X1959275Y1610433I-978J695D01*
G01X1959053Y1609738D02*
G03Y1609159I408J-289D01*
G01X1959275Y1608465D02*
G03X1959053Y1609159I-1200J-0D01*
G01X1959275Y1608465D02*
Y1605709D01*
X1959053Y1605014D02*
G03X1959275Y1605709I-978J695D01*
G01X1959053Y1605014D02*
G03Y1604435I408J-290D01*
G01X1959275Y1603740D02*
G03X1959053Y1604435I-1200J0D01*
G01X1959275Y1603740D02*
Y1600984D01*
X1959053Y1600289D02*
G03X1959275Y1600984I-978J695D01*
G01X1959053Y1600289D02*
G03Y1599711I408J-289D01*
G01X1959275Y1599016D02*
G03X1959053Y1599711I-1200J-0D01*
G01X1959275Y1599016D02*
Y1596260D01*
X1959053Y1595565D02*
G03X1959275Y1596260I-978J695D01*
G01X1959053Y1595565D02*
G03Y1594986I408J-289D01*
G01X1959275Y1594291D02*
G03X1959053Y1594986I-1200J0D01*
G01X1959275Y1594291D02*
Y1591535D01*
X1959053Y1590841D02*
G03X1959275Y1591535I-978J694D01*
G01X1959053Y1590841D02*
G03Y1590262I408J-290D01*
G01X1959275Y1589567D02*
G03X1959053Y1590262I-1200J-0D01*
G01X1959275Y1589567D02*
Y1586811D01*
X1959053Y1586116D02*
G03X1959275Y1586811I-978J695D01*
G01X1959053Y1586116D02*
G03Y1585537I408J-289D01*
G01X1959275Y1584843D02*
G03X1959053Y1585537I-1200J-0D01*
G01X1959275Y1584843D02*
Y1582087D01*
X1958778Y1581114D02*
G03X1959275Y1582087I-703J973D01*
G01X1958778Y1581114D02*
G03Y1580303I292J-405D01*
G01X1959275Y1579331D02*
G03X1958778Y1580303I-1200J-0D01*
G01X1959275Y1579331D02*
Y1574606D01*
X1958075Y1573406D02*
G03X1959275Y1574606I-0J1200D01*
G01X1958075Y1573406D02*
X1953350D01*
X1952150Y1574606D02*
G03X1953350Y1573406I1200J0D01*
G01X1952150Y1574606D02*
Y1579331D01*
X1952648Y1580303D02*
G03X1952150Y1579331I702J-972D01*
G01X1952648Y1580303D02*
G03Y1581114I-293J406D01*
G01X1952150Y1582087D02*
G03X1952648Y1581114I1200J-0D01*
G01X1952150Y1582087D02*
Y1584843D01*
X1952309Y1585438D02*
G03X1952150Y1584843I1041J-595D01*
G01X1952309Y1585438D02*
G03X1951563Y1586077I-434J248D01*
G01X1950815Y1585816D02*
G03X1951563Y1586077I-0J1200D01*
G01X1950815Y1585816D02*
X1948846D01*
X1948430Y1585890D02*
G03X1948846Y1585816I416J1126D01*
G01X1948430Y1585890D02*
G03X1948082I-174J-468D01*
G01X1947665Y1585816D02*
G03X1948082Y1585890I0J1200D01*
G01X1947665Y1585816D02*
X1945697D01*
X1944497Y1587016D02*
G03X1945697Y1585816I1200J-0D01*
G01X1944497Y1587016D02*
Y1588984D01*
X1944997Y1589959D02*
G03X1944497Y1588984I700J-975D01*
G01X1944997Y1589959D02*
G03X1945206Y1590366I-291J407D01*
G01Y1593151*
G03X1945059Y1593504I-500J-0*
G01X1940660Y1597904*
X1940206Y1599000D02*
G03X1940660Y1597904I1550J0D01*
G01X1940206Y1599000D02*
Y1611750D01*
X1940660Y1612846D02*
G03X1940206Y1611750I1096J-1096D01*
G01X1940660Y1612846D02*
X1943059Y1615246D01*
G03X1943206Y1615599I-353J353*
G01Y1637336*
G03X1942938Y1637779I-500J0*
G01X1946031Y1645541D02*
G03X1942938Y1637779I-1145J-4041D01*
G01X1946031Y1645541D02*
G03X1946565Y1646326I137J481D01*
G01X1947975Y1649687D02*
G03X1946565Y1646326I257J-2085D01*
G01X1947975Y1649687D02*
G03X1948267Y1649829I-62J496D01*
G01X1948514Y1650076*
X1949610Y1650530D02*
G03X1948514Y1650076I0J-1550D01*
G01X1949610Y1650530D02*
X1959453D01*
X1960549Y1650076D02*
G03X1959453Y1650530I-1096J-1096D01*
G01X1960549Y1650076D02*
X1961674Y1648951D01*
G03X1962388Y1648957I354J353*
G01X1965192Y1649156D02*
G03X1962388Y1648957I-1292J-1656D01*
G01X1965192Y1649156D02*
G03X1965499Y1649050I307J394D01*
G01X1970083*
X1971152Y1648622D02*
G03X1970083Y1649050I-1069J-1122D01*
G01X1971152Y1648622D02*
X1974388Y1645539D01*
G03X1974909Y1645433I345J362*
G01X1979900Y1643794D02*
G03X1974909Y1645433I-3518J-2294D01*
G01X1979900Y1643794D02*
G03X1980738I419J273D01*
G01X1987774D02*
G03X1980738I-3518J-2294D01*
G01X1987774D02*
G03X1988612I419J273D01*
G01X1995648D02*
G03X1988612I-3518J-2294D01*
G01X1995648D02*
G03X1996486I419J273D01*
G01X2003522D02*
G03X1996486I-3518J-2294D01*
G01X2003522D02*
G03X2004360I419J273D01*
G01X2011396D02*
G03X2004360I-3518J-2294D01*
G01X2011396D02*
G03X2012234I419J273D01*
G01X2019270D02*
G03X2012234I-3518J-2294D01*
G01X2019270D02*
G03X2020108I419J273D01*
G01X2026509Y1644554D02*
G03X2020108Y1643794I-2883J-3054D01*
G01X2026509Y1644554D02*
G03X2027337Y1644795I343J364D01*
G01X2028500Y1645700D02*
G03X2027337Y1644795I-0J-1200D01*
G01X2028500Y1645700D02*
X2031740D01*
G03X2032240Y1646200I-0J500*
G01Y1675000*
G03X2031740Y1675500I-500J0*
G01X1937256*
G03X1936756Y1675000I-0J-500*
G01Y1525000*
G03X1937256Y1524500I500J0*
G01X2062756*
G03X2063256Y1525000I-0J500*
G01X2051562Y1627608D02*
G03Y1627792I-491J92D01*
G01X2051516Y1628291D02*
G03X2051562Y1627792I2700J-0D01*
G01X2051516Y1628291D02*
Y1628911D01*
G03X2051514Y1628955I-500J0*
G01X2051500Y1629275D02*
G03X2051514Y1628955I3700J-0D01*
G01X2051500Y1629275D02*
Y1630219D01*
G03X2051000Y1630719I-500J-0*
G01X2050427*
X2049227Y1631919D02*
G03X2050427Y1630719I1200J-0D01*
G01X2049227Y1631919D02*
Y1634281D01*
X2049735Y1635261D02*
G03X2049227Y1634281I692J-980D01*
G01X2049735Y1635261D02*
G03X2049447Y1636170I-288J409D01*
G01X2032740*
X2032240Y1636670D02*
G03X2032740Y1636170I500J-0D01*
G01X2032240Y1636670D02*
Y1636800D01*
G03X2031740Y1637300I-500J-0*
G01X2028500*
X2027337Y1638205D02*
G03X2028500Y1637300I1163J295D01*
G01X2027337Y1638205D02*
G03X2026509Y1638446I-485J-123D01*
G01X2025569Y1637776D02*
G03X2026509Y1638446I-1943J3724D01*
G01X2025569Y1637776D02*
G03X2025300Y1637333I231J-443D01*
G01Y1635634*
G03X2025486Y1635244I500J-0*
G01X2025934Y1634309D02*
G03X2025486Y1635244I-1200J0D01*
G01X2025934Y1634309D02*
Y1632341D01*
X2025859Y1631924D02*
G03X2025934Y1632341I-1125J417D01*
G01X2025859Y1631924D02*
G03Y1631576I469J-174D01*
G01X2025934Y1631159D02*
G03X2025859Y1631576I-1200J0D01*
G01X2025934Y1631159D02*
Y1629191D01*
X2024734Y1627991D02*
G03X2025934Y1629191I0J1200D01*
G01X2024734Y1627991D02*
X2023965D01*
G03X2023611Y1627844I-0J-500*
G01X2021171Y1625404*
X2020075Y1624950D02*
G03X2021171Y1625404I-0J1550D01*
G01X2020075Y1624950D02*
X2016861D01*
G03X2016361Y1624450I0J-500*
G01Y1620669*
X2015864Y1619697D02*
G03X2016361Y1620669I-703J972D01*
G01X2015864Y1619697D02*
G03Y1618886I293J-406D01*
G01X2016361Y1617913D02*
G03X2015864Y1618886I-1200J0D01*
G01X2016361Y1617913D02*
Y1616011D01*
G03X2016861Y1615511I500J0*
G01X2041411*
G03X2041452Y1615513I0J500*
G01X2042271Y1615489D02*
G03X2041452Y1615513I-515J-3664D01*
G01X2042271Y1615489D02*
G03X2042341Y1615484I70J495D01*
G01X2042709*
X2043208Y1615438D02*
G03X2042709Y1615484I-499J-2654D01*
G01X2043208Y1615438D02*
G03X2043392I92J491D01*
G01X2043890Y1615484D02*
G03X2043392Y1615438I0J-2700D01*
G01X2043890Y1615484D02*
X2044511D01*
G03X2044555Y1615486I0J500*
G01X2044875Y1615500D02*
G03X2044555Y1615486I-0J-3700D01*
G01X2044875Y1615500D02*
X2049500D01*
G03X2051500Y1617500I-0J2000*
G01Y1619419*
G03X2051000Y1619919I-500J-0*
G01X2050427*
X2049227Y1621119D02*
G03X2050427Y1619919I1200J-0D01*
G01X2049227Y1621119D02*
Y1623481D01*
X2050427Y1624681D02*
G03X2049227Y1623481I0J-1200D01*
G01X2050427Y1624681D02*
X2051000D01*
G03X2051500Y1625181I-0J500*
G01Y1626125*
X2051514Y1626445D02*
G03X2051500Y1626125I3686J-320D01*
G01X2051514Y1626445D02*
G03X2051516Y1626489I-498J44D01*
G01Y1627109*
X2051562Y1627608D02*
G03X2051516Y1627109I2654J-499D01*
G01X1952372Y1594986D02*
G03Y1595565I-408J290D01*
G01X1952303Y1595674D02*
G03X1952372Y1595565I1047J586D01*
G01X1952303Y1595674D02*
G03X1951557Y1595823I-436J-244D01*
G01X1950815Y1595566D02*
G03X1951557Y1595823I-0J1200D01*
G01X1950815Y1595566D02*
X1948846D01*
X1948590Y1595594D02*
G03X1948846Y1595566I256J1172D01*
G01X1948590Y1595594D02*
G03X1948061Y1594836I-107J-489D01*
G01X1948306Y1594000D02*
G03X1948061Y1594836I-1550J0D01*
G01X1948306Y1594000D02*
Y1590684D01*
G03X1948818Y1590184I500J-0*
G01X1948846D02*
G03X1948818I0J-1200D01*
G01X1948846D02*
X1950815D01*
X1951537Y1589943D02*
G03X1950815Y1590184I-722J-959D01*
G01X1951537Y1589943D02*
G03X1952282Y1590114I301J399D01*
G01X1952372Y1590262D02*
G03X1952282Y1590114I978J-695D01*
G01X1952372Y1590262D02*
G03Y1590841I-408J289D01*
G01X1952150Y1591535D02*
G03X1952372Y1590841I1200J0D01*
G01X1952150Y1591535D02*
Y1594291D01*
X1952372Y1594986D02*
G03X1952150Y1594291I978J-695D01*
G01X1998454Y1562729D02*
Y1564451D01*
G03X1998194Y1564889I-500J-0*
G01X1998143Y1564919D02*
G03X1998194Y1564889I629J1022D01*
G01X1998143Y1564919D02*
G03X1997619I-262J-426D01*
G01X1996990Y1564741D02*
G03X1997619Y1564919I0J1200D01*
G01X1996990Y1564741D02*
X1996297D01*
G03X1996243Y1564738I0J-500*
G01X1996006Y1564725D02*
G03X1996243Y1564738I-0J2200D01*
G01X1996006Y1564725D02*
X1994006D01*
X1990947*
G03X1990879Y1564721I0J-500*
G01X1990579Y1564700D02*
G03X1990879Y1564721I0J2200D01*
G01X1990579Y1564700D02*
X1988200D01*
X1987688Y1569040D02*
G03X1988200Y1564700I512J-2140D01*
G01X1987688Y1569040D02*
G03X1988072Y1569526I-116J486D01*
G01Y1571059*
X1989272Y1572259D02*
G03X1988072Y1571059I-0J-1200D01*
G01X1989272Y1572259D02*
X1991240D01*
X1992440Y1571059D02*
G03X1991240Y1572259I-1200J0D01*
G01X1992440Y1571059D02*
Y1569625D01*
G03X1992940Y1569125I500J0*
G01X1993322*
G03X1993822Y1569625I-0J500*
G01Y1571059*
X1994269Y1571994D02*
G03X1993822Y1571059I753J-935D01*
G01X1994269Y1571994D02*
G03X1994456Y1572384I-313J390D01*
G01Y1573072*
G03X1994171Y1573524I-500J0*
G01X1993994Y1573628D02*
G03X1994171Y1573524I695J978D01*
G01X1993994Y1573628D02*
G03X1993415I-289J-408D01*
G01X1992720Y1573406D02*
G03X1993415Y1573628I0J1200D01*
G01X1992720Y1573406D02*
X1989965D01*
X1989270Y1573628D02*
G03X1989965Y1573406I695J978D01*
G01X1989270Y1573628D02*
G03X1988691I-290J-408D01*
G01X1987996Y1573406D02*
G03X1988691Y1573628I0J1200D01*
G01X1987996Y1573406D02*
X1985240D01*
X1984784Y1573496D02*
G03X1985240Y1573406I456J1110D01*
G01X1984784Y1573496D02*
G03X1984094Y1573034I-190J-462D01*
G01Y1569644*
X1983449Y1568088D02*
G03X1984094Y1569644I-1555J1556D01*
G01X1983449Y1568088D02*
X1980731Y1565370D01*
X1979506Y1564750D02*
G03X1980731Y1565370I-331J2175D01*
G01X1979506Y1564750D02*
G03X1979082Y1564256I76J-494D01*
G01Y1561942*
G03X1979241Y1561576I500J0*
G01X1979900Y1560794D02*
G03X1979241Y1561576I-3518J-2294D01*
G01X1979900Y1560794D02*
G03X1980738I419J273D01*
G01X1987774D02*
G03X1980738I-3518J-2294D01*
G01X1987774D02*
G03X1988612I419J273D01*
G01X1995648D02*
G03X1988612I-3518J-2294D01*
G01X1995648D02*
G03X1996486I419J273D01*
G01X1998172Y1562279D02*
G03X1996486Y1560794I1832J-3779D01*
G01X1998172Y1562279D02*
G03X1998454Y1562729I-218J450D01*
G01X1974682Y1562653D02*
Y1565339D01*
G03X1974649Y1565516I-500J-0*
G01X1974572Y1565941D02*
G03X1974649Y1565516I1200J-0D01*
G01X1974572Y1565941D02*
Y1566634D01*
G03X1974569Y1566688I-500J0*
G01Y1567162D02*
G03Y1566688I2187J-237D01*
G01Y1567162D02*
G03X1974572Y1567216I-497J54D01*
G01Y1567909*
X1974646Y1568326D02*
G03X1974572Y1567909I1126J-417D01*
G01X1974646Y1568326D02*
G03Y1568674I-468J174D01*
G01X1974572Y1569091D02*
G03X1974646Y1568674I1200J-0D01*
G01X1974572Y1569091D02*
Y1570934D01*
G03X1973688Y1571255I-500J-0*
G01X1973596Y1571154D02*
G03X1973688Y1571255I-1096J1096D01*
G01X1973596Y1571154D02*
X1968271Y1565829D01*
X1967175Y1565375D02*
G03X1968271Y1565829I0J1550D01*
G01X1967175Y1565375D02*
X1961809D01*
G03X1961419Y1565189I-0J-500*
G01X1960484Y1564741D02*
G03X1961419Y1565189I0J1200D01*
G01X1960484Y1564741D02*
X1958516D01*
X1957788Y1564987D02*
G03X1958516Y1564741I728J954D01*
G01X1957788Y1564987D02*
G03X1957212Y1565009I-304J-397D01*
G01X1956559Y1564816D02*
G03X1957212Y1565009I-0J1200D01*
G01X1956559Y1564816D02*
X1954810D01*
G03X1954310Y1564316I-0J-500*
G01Y1562729*
G03X1954592Y1562279I500J0*
G01X1956278Y1560794D02*
G03X1954592Y1562279I-3518J-2294D01*
G01X1956278Y1560794D02*
G03X1957116I419J273D01*
G01X1964152D02*
G03X1957116I-3518J-2294D01*
G01X1964152D02*
G03X1964990I419J273D01*
G01X1972026D02*
G03X1964990I-3518J-2294D01*
G01X1972026D02*
G03X1972864I419J273D01*
G01X1974416Y1562211D02*
G03X1972864Y1560794I1966J-3711D01*
G01X1974416Y1562211D02*
G03X1974682Y1562653I-234J442D01*
G01X1979694Y1571941D02*
Y1573034D01*
G03X1979004Y1573496I-500J-0*
G01X1978547Y1573406D02*
G03X1979004Y1573496I0J1200D01*
G01X1978547Y1573406D02*
X1975791D01*
X1975097Y1573628D02*
G03X1975791Y1573406I694J978D01*
G01X1975097Y1573628D02*
G03X1974518I-290J-408D01*
G01X1974336Y1573522D02*
G03X1974518Y1573628I-513J1084D01*
G01X1974336Y1573522D02*
G03X1974050Y1573070I214J-452D01*
G01Y1572250*
Y1572243D02*
G03Y1572250I-1550J7D01*
G01Y1572243D02*
Y1572241D01*
G03X1974909Y1571893I500J0*
G01X1975772Y1572259D02*
G03X1974909Y1571893I-0J-1200D01*
G01X1975772Y1572259D02*
X1977740D01*
X1978766Y1571681D02*
G03X1977740Y1572259I-1026J-622D01*
G01X1978766Y1571681D02*
G03X1979694Y1571941I428J260D01*
G01X1970749Y1572691D02*
G03X1970593Y1573504I-354J354D01*
G01X1970372Y1573628D02*
G03X1970593Y1573504I695J978D01*
G01X1970372Y1573628D02*
G03X1969793I-289J-408D01*
G01X1969098Y1573406D02*
G03X1969793Y1573628I0J1200D01*
G01X1969098Y1573406D02*
X1966343D01*
X1965893Y1573494D02*
G03X1966343Y1573406I450J1112D01*
G01X1965893Y1573494D02*
G03X1965206Y1573024I-187J-464D01*
G01X1962336Y1570904D02*
G03X1965206Y1573024I670J2096D01*
G01X1962336Y1570904D02*
G03X1961684Y1570428I-152J-476D01*
G01Y1569091*
X1961681Y1569009D02*
G03X1961684Y1569091I-1197J82D01*
G01X1961681Y1569009D02*
G03X1962180Y1568475I499J-34D01*
G01X1966326*
G03X1966679Y1568622I-0J500*
G01X1970749Y1572691*
X2021381Y1570809D02*
Y1580051D01*
G03X2021235Y1580404I-500J-0*
G01X2019871Y1581768*
G03X2019517Y1581915I-354J-353*
G01X2016723*
G03X2016264Y1581612I-0J-500*
G01X2015864Y1581114D02*
G03X2016264Y1581612I-703J973D01*
G01X2015864Y1581114D02*
G03Y1580303I293J-405D01*
G01X2016361Y1579331D02*
G03X2015864Y1580303I-1200J-0D01*
G01X2016361Y1579331D02*
Y1574606D01*
X2015161Y1573406D02*
G03X2016361Y1574606I0J1200D01*
G01X2015161Y1573406D02*
X2013593D01*
G03X2013239Y1572553I-0J-500*
G01X2014596Y1571196*
X2014882Y1570801D02*
G03X2014596Y1571196I-1382J-701D01*
G01X2014882Y1570801D02*
G03X2015118Y1570574I446J226D01*
G01X2015815Y1569484D02*
G03X2015118Y1570574I-1200J0D01*
G01X2015815Y1569484D02*
Y1567516D01*
X2015367Y1566581D02*
G03X2015815Y1567516I-752J935D01*
G01X2015367Y1566581D02*
G03X2015181Y1566191I314J-390D01*
G01Y1563199*
G03X2015688Y1562700I500J0*
G01X2019270Y1560794D02*
G03X2015688Y1562700I-3518J-2294D01*
G01X2019270Y1560794D02*
G03X2020108I419J273D01*
G01X2021173Y1561909D02*
G03X2020108Y1560794I2453J-3409D01*
G01X2021173Y1561909D02*
G03X2021381Y1562315I-292J406D01*
G01Y1566191*
G03X2021195Y1566581I-500J0*
G01X2020747Y1567516D02*
G03X2021195Y1566581I1200J-0D01*
G01X2020747Y1567516D02*
Y1569484D01*
X2021195Y1570419D02*
G03X2020747Y1569484I752J-935D01*
G01X2021195Y1570419D02*
G03X2021381Y1570809I-314J390D01*
G01X2019659Y1542428D02*
G03Y1545296I3475J1434D01*
G01Y1542428D02*
G03X2018735I-462J-191D01*
G01Y1545296D02*
G03Y1542428I-3475J-1434D01*
G01Y1545296D02*
G03X2019659I462J191D01*
G01X2003286Y1540000D02*
G03X2003286I-3756J0D01*
G01X1980269Y1541769D02*
G03X1977311Y1544631I-1769J1131D01*
G01X1980269Y1541769D02*
G03Y1541231I422J-269D01*
G01X1977450Y1538281D02*
G03X1980269Y1541231I1050J1819D01*
G01X1977450Y1538281D02*
G03X1976950I-250J-433D01*
G01X1974931Y1538237D02*
G03X1976950Y1538281I969J1863D01*
G01X1974931Y1538237D02*
G03X1974469I-231J-444D01*
G01X1971730Y1541231D02*
G03X1974469Y1538237I1770J-1131D01*
G01X1971730Y1541231D02*
G03Y1541769I-421J269D01*
G01X1974624Y1544674D02*
G03X1971730Y1541769I-1124J-1774D01*
G01X1974624Y1544674D02*
G03X1975085Y1544636I267J422D01*
G01X1976811Y1544592D02*
G03X1975085Y1544636I-911J-1892D01*
G01X1976811Y1544592D02*
G03X1977311Y1544631I216J451D01*
G01X2023925Y1658966D02*
G03Y1661834I3475J1434D01*
G01Y1658966D02*
G03X2023001I-462J-191D01*
G01X2016051D02*
G03X2023001I3475J1434D01*
G01X2016051D02*
G03X2015127I-462J-191D01*
G01Y1661834D02*
G03Y1658966I-3475J-1434D01*
G01Y1661834D02*
G03X2016051I462J191D01*
G01X2023001D02*
G03X2016051I-3475J-1434D01*
G01X2023001D02*
G03X2023925I462J191D01*
G01X2003306Y1660000D02*
G03X2003306I-3756J0D01*
G01X1982275Y1660671D02*
G03X1985587Y1662981I1325J1629D01*
G01X1982275Y1660671D02*
G03X1981602Y1660632I-316J-388D01*
G01X1978186Y1662965D02*
G03X1981602Y1660632I1914J-865D01*
G01X1978186Y1662965D02*
G03X1978204Y1663331I-455J206D01*
G01X1978141Y1663716D02*
G03X1978204Y1663331I1200J-0D01*
G01X1978141Y1663716D02*
Y1665684D01*
X1979341Y1666884D02*
G03X1978141Y1665684I-0J-1200D01*
G01X1979341Y1666884D02*
X1981309D01*
X1981726Y1666810D02*
G03X1981309Y1666884I-417J-1126D01*
G01X1981726Y1666810D02*
G03X1982074I174J468D01*
G01X1982490Y1666884D02*
G03X1982074Y1666810I0J-1200D01*
G01X1982490Y1666884D02*
X1984459D01*
X1985659Y1665684D02*
G03X1984459Y1666884I-1200J0D01*
G01X1985659Y1665684D02*
Y1663716D01*
X1985589Y1663311D02*
G03X1985659Y1663716I-1130J405D01*
G01X1985589Y1663311D02*
G03X1985587Y1662981I471J-168D01*
G01X1945432Y1660000D02*
G03X1945432I-2969J0D01*
G01X1945412Y1540000D02*
G03X1945412I-2969J0D01*
G01X2003369Y1597638D02*
Y1588189D01*
X2002169Y1586989D02*
G03X2003369Y1588189I0J1200D01*
G01X2002169Y1586989D02*
X1994689D01*
X1993489Y1588189D02*
G03X1994689Y1586989I1200J-0D01*
G01X1993489Y1588189D02*
Y1597638D01*
X1994689Y1598838D02*
G03X1993489Y1597638I-0J-1200D01*
G01X1994689Y1598838D02*
X2002169D01*
X2003369Y1597638D02*
G03X2002169Y1598838I-1200J-0D01*
G01X2003369Y1611811D02*
Y1602362D01*
X2002169Y1601162D02*
G03X2003369Y1602362I0J1200D01*
G01X2002169Y1601162D02*
X1994689D01*
X1993489Y1602362D02*
G03X1994689Y1601162I1200J0D01*
G01X1993489Y1602362D02*
Y1611811D01*
X1994689Y1613011D02*
G03X1993489Y1611811I-0J-1200D01*
G01X1994689Y1613011D02*
X2002169D01*
X2003369Y1611811D02*
G03X2002169Y1613011I-1200J0D01*
G01X1989196Y1597638D02*
Y1588189D01*
X1987996Y1586989D02*
G03X1989196Y1588189I0J1200D01*
G01X1987996Y1586989D02*
X1980516D01*
X1979316Y1588189D02*
G03X1980516Y1586989I1200J-0D01*
G01X1979316Y1588189D02*
Y1597638D01*
X1980516Y1598838D02*
G03X1979316Y1597638I-0J-1200D01*
G01X1980516Y1598838D02*
X1987996D01*
X1989196Y1597638D02*
G03X1987996Y1598838I-1200J-0D01*
G01X1989196Y1611811D02*
Y1602362D01*
X1987996Y1601162D02*
G03X1989196Y1602362I0J1200D01*
G01X1987996Y1601162D02*
X1980516D01*
X1979316Y1602362D02*
G03X1980516Y1601162I1200J0D01*
G01X1979316Y1602362D02*
Y1611811D01*
X1980516Y1613011D02*
G03X1979316Y1611811I-0J-1200D01*
G01X1980516Y1613011D02*
X1987996D01*
X1989196Y1611811D02*
G03X1987996Y1613011I-1200J0D01*
G01X1975023Y1597638D02*
Y1588189D01*
X1973823Y1586989D02*
G03X1975023Y1588189I-0J1200D01*
G01X1973823Y1586989D02*
X1966343D01*
X1965142Y1588189D02*
G03X1966343Y1586989I1201J-0D01*
G01X1965142Y1588189D02*
Y1597638D01*
X1966343Y1598838D02*
G03X1965142Y1597638I-0J-1200D01*
G01X1966343Y1598838D02*
X1973823D01*
X1975023Y1597638D02*
G03X1973823Y1598838I-1200J-0D01*
G01X1975023Y1611811D02*
Y1602362D01*
X1973823Y1601162D02*
G03X1975023Y1602362I-0J1200D01*
G01X1973823Y1601162D02*
X1966343D01*
X1965142Y1602362D02*
G03X1966343Y1601162I1201J0D01*
G01X1965142Y1602362D02*
Y1611811D01*
X1966343Y1613011D02*
G03X1965142Y1611811I-0J-1200D01*
G01X1966343Y1613011D02*
X1973823D01*
X1975023Y1611811D02*
G03X1973823Y1613011I-1200J0D01*
G01X2016360Y1579399D02*
X2021381D01*
X2016361Y1578499D02*
X2021381D01*
X2016361Y1577599D02*
X2021381D01*
X2016361Y1576699D02*
X2021381D01*
X2016361Y1575799D02*
X2021381D01*
X2016361Y1574899D02*
X2021381D01*
X2016196Y1573999D02*
X2021381D01*
X2013131Y1573099D02*
X2021381D01*
X2013593Y1572199D02*
X2021381D01*
X2014493Y1571299D02*
X2021381D01*
X2015181Y1565899D02*
X2021381D01*
X2015181Y1564999D02*
X2021381D01*
X2015181Y1564099D02*
X2021381D01*
X2015181Y1563199D02*
X2021381D01*
X2017544Y1562299D02*
X2021381D01*
X2015871Y1580299D02*
X2021315D01*
X2015392Y1570399D02*
X2021170D01*
X2015577Y1566799D02*
X2020985D01*
X2015815Y1569499D02*
X2020747D01*
X2015815Y1568599D02*
X2020747D01*
X2015815Y1567699D02*
X2020747D01*
X2018791Y1561399D02*
X2020587D01*
X2015969Y1581199D02*
X2020440D01*
X1965210Y1573099D02*
X1970892D01*
X1965055Y1572199D02*
X1970257D01*
X1964401Y1571299D02*
X1969357D01*
X1961684Y1570399D02*
X1968457D01*
X1961684Y1569499D02*
X1967557D01*
X1961851Y1568599D02*
X1966655D01*
X1978116Y1572199D02*
X1979694D01*
X1974051Y1573099D02*
X1979689D01*
X1974052Y1572199D02*
X1975396D01*
X1961227Y1564999D02*
X1974682D01*
X1954310Y1564099D02*
X1974682D01*
X1954310Y1563199D02*
X1974682D01*
X1971041Y1568599D02*
X1974668D01*
X1968341Y1565899D02*
X1974572D01*
X1972841Y1570399D02*
X1974572D01*
X1971941Y1569499D02*
X1974572D01*
X1970141Y1567699D02*
X1974572D01*
X1969241Y1566799D02*
X1974560D01*
X1970299Y1562299D02*
X1974534D01*
X1973730Y1571299D02*
X1974414D01*
X1971547Y1561399D02*
X1973342D01*
X1962425Y1562299D02*
X1966716D01*
X1963673Y1561399D02*
X1965468D01*
X1954556Y1562299D02*
X1958842D01*
X1957196Y1564999D02*
X1957772D01*
X1955799Y1561399D02*
X1957594D01*
X1979082Y1564099D02*
X1998454D01*
X1979082Y1563199D02*
X1998454D01*
X1993922Y1562299D02*
X1998208D01*
X1995169Y1561399D02*
X1996964D01*
X1984098Y1573099D02*
X1994455D01*
X1991616Y1572199D02*
X1994420D01*
X1992416Y1571299D02*
X1993846D01*
X1992440Y1570399D02*
X1993822D01*
X1992456Y1569499D02*
X1993805D01*
X1986047Y1562299D02*
X1990338D01*
X1987295Y1561399D02*
X1989090D01*
X1984094Y1572199D02*
X1988896D01*
X1984094Y1571299D02*
X1988096D01*
X1984094Y1570399D02*
X1988072D01*
X1984089Y1569499D02*
X1988071D01*
X1980237Y1564999D02*
X1987093D01*
X1983830Y1568599D02*
X1986802D01*
X1981260Y1565899D02*
X1986241D01*
X1983060Y1567699D02*
X1986150D01*
X1982160Y1566799D02*
X1986002D01*
X1979082Y1562299D02*
X1982464D01*
X1979421Y1561399D02*
X1981216D01*
X1951094Y1595599D02*
X1952349D01*
X1948685Y1590199D02*
X1952330D01*
X1948306Y1591099D02*
X1952233D01*
X1948140Y1594699D02*
X1952222D01*
X1948306Y1593799D02*
X1952150D01*
X1948306Y1592899D02*
X1952150D01*
X1948306Y1591999D02*
X1952150D01*
X1948403Y1595599D02*
X1948563D01*
X2024870Y1627999D02*
X2051531D01*
X2025898Y1628899D02*
X2051516D01*
X2022865Y1627099D02*
X2051516D01*
X2021965Y1626199D02*
X2051501D01*
X2025934Y1629799D02*
X2051500D01*
X2021054Y1625299D02*
X2051500D01*
X2015752Y1618999D02*
X2051500D01*
X2016347Y1618099D02*
X2051500D01*
X2016361Y1617199D02*
X2051477D01*
X2025934Y1630699D02*
X2051141D01*
X2016081Y1619899D02*
X2051141D01*
X2016361Y1616299D02*
X2051099D01*
X2025300Y1636099D02*
X2049704D01*
X2025540Y1635199D02*
X2049654D01*
X2016361Y1624399D02*
X2049654D01*
X2025852Y1631599D02*
X2049271D01*
X2016361Y1620799D02*
X2049271D01*
X2025934Y1634299D02*
X2049228D01*
X2016361Y1623499D02*
X2049228D01*
X2025934Y1633399D02*
X2049227D01*
X2025934Y1632499D02*
X2049227D01*
X2016361Y1622599D02*
X2049227D01*
X2016361Y1621699D02*
X2049227D01*
X2025300Y1636999D02*
X2032199D01*
X2025787Y1637899D02*
X2027461D01*
X2058914Y1635199D02*
X2063256D01*
X2059072Y1634299D02*
X2063256D01*
X2059072Y1633399D02*
X2063256D01*
X2059072Y1632499D02*
X2063256D01*
X2059053Y1631599D02*
X2063256D01*
X2058900Y1630699D02*
X2063256D01*
X2058900Y1629799D02*
X2063256D01*
X2058884Y1628899D02*
X2063256D01*
X2058868Y1627999D02*
X2063256D01*
X2058884Y1627099D02*
X2063256D01*
X2058899Y1626199D02*
X2063256D01*
X2058900Y1625299D02*
X2063256D01*
X2058914Y1624399D02*
X2063256D01*
X2059072Y1623499D02*
X2063256D01*
X2059072Y1622599D02*
X2063256D01*
X2059072Y1621699D02*
X2063256D01*
X2059053Y1620799D02*
X2063256D01*
X2058900Y1619899D02*
X2063256D01*
X2058900Y1618999D02*
X2063256D01*
X2058900Y1618099D02*
X2063256D01*
X2058895Y1617199D02*
X2063256D01*
X2058823Y1616299D02*
X2063256D01*
X2058662Y1615399D02*
X2063256D01*
X2058408Y1614499D02*
X2063256D01*
X2058052Y1613599D02*
X2063256D01*
X2057581Y1612699D02*
X2063256D01*
X2056974Y1611799D02*
X2063256D01*
X2056192Y1610899D02*
X2063256D01*
X2055165Y1609999D02*
X2063256D01*
X2053716Y1609099D02*
X2063256D01*
X2050859Y1608199D02*
X2063256D01*
X2045400Y1607299D02*
X2063256D01*
X2045400Y1606399D02*
X2063256D01*
X2045400Y1605499D02*
X2063256D01*
X2061717Y1604599D02*
X2063256D01*
X2061791Y1603699D02*
X2063256D01*
X2061791Y1602799D02*
X2063256D01*
X2061791Y1601899D02*
X2063256D01*
X2061791Y1600999D02*
X2063256D01*
X2061791Y1600099D02*
X2063256D01*
X2061435Y1599199D02*
X2063256D01*
X2055020Y1598299D02*
X2063256D01*
X2055023Y1597399D02*
X2063256D01*
X2055023Y1596499D02*
X2063256D01*
X2055023Y1595599D02*
X2063256D01*
X2055023Y1594699D02*
X2063256D01*
X2055101Y1593799D02*
X2063256D01*
X2061670Y1592899D02*
X2063256D01*
X2061791Y1591999D02*
X2063256D01*
X2061791Y1591099D02*
X2063256D01*
X2061791Y1590199D02*
X2063256D01*
X2061791Y1589299D02*
X2063256D01*
X2061791Y1588399D02*
X2063256D01*
X2061534Y1587499D02*
X2063256D01*
X2022374Y1586599D02*
X2063256D01*
X2023274Y1585699D02*
X2063256D01*
X2024174Y1584799D02*
X2063256D01*
X2025074Y1583899D02*
X2063256D01*
X2025974Y1582999D02*
X2063256D01*
X2026418Y1582099D02*
X2063256D01*
X2026431Y1581199D02*
X2063256D01*
X2026431Y1580299D02*
X2063256D01*
X2026431Y1579399D02*
X2063256D01*
X2026431Y1578499D02*
X2063256D01*
X2026431Y1577599D02*
X2063256D01*
X2026431Y1576699D02*
X2063256D01*
X2026431Y1575799D02*
X2063256D01*
X2026431Y1574899D02*
X2063256D01*
X2026431Y1573999D02*
X2063256D01*
X2026431Y1573099D02*
X2063256D01*
X2026431Y1572199D02*
X2063256D01*
X2027093Y1571299D02*
X2063256D01*
X2027842Y1570399D02*
X2063256D01*
X2028265Y1569499D02*
X2063256D01*
X2028265Y1568599D02*
X2063256D01*
X2028265Y1567699D02*
X2063256D01*
X2028027Y1566799D02*
X2063256D01*
X2027631Y1565899D02*
X2063256D01*
X2027631Y1564999D02*
X2063256D01*
X2028074Y1564099D02*
X2063256D01*
X2028993Y1563199D02*
X2063256D01*
X2035396Y1562299D02*
X2063256D01*
X2035700Y1561399D02*
X2063256D01*
X2035700Y1560499D02*
X2063256D01*
X2035700Y1559599D02*
X2063256D01*
X2035700Y1558699D02*
X2063256D01*
X2035700Y1557799D02*
X2063256D01*
X2035700Y1556899D02*
X2063256D01*
X2035700Y1555999D02*
X2063256D01*
X2035631Y1555099D02*
X2063256D01*
X1977472Y1554199D02*
X2063256D01*
X1977456Y1553299D02*
X2063256D01*
X1977478Y1552399D02*
X2063256D01*
X1978009Y1551499D02*
X2063256D01*
X1978031Y1550599D02*
X2063256D01*
X1978031Y1549699D02*
X2063256D01*
X1978031Y1548799D02*
X2063256D01*
X1978031Y1547899D02*
X2063256D01*
X2025206Y1546999D02*
X2063256D01*
X2026155Y1546099D02*
X2063256D01*
X2026647Y1545199D02*
X2063256D01*
X2026867Y1544299D02*
X2063256D01*
X2026864Y1543399D02*
X2063256D01*
X2026637Y1542499D02*
X2063256D01*
X2026135Y1541599D02*
X2063256D01*
X2025164Y1540699D02*
X2063256D01*
X2003280Y1539799D02*
X2063256D01*
X2003121Y1538899D02*
X2063256D01*
X2002708Y1537999D02*
X2063256D01*
X2001915Y1537099D02*
X2063256D01*
X1936756Y1536199D02*
X2063256D01*
X1936756Y1535299D02*
X2063256D01*
X1936756Y1534399D02*
X2063256D01*
X1936756Y1533499D02*
X2063256D01*
X1936756Y1532599D02*
X2063256D01*
X1936756Y1531699D02*
X2063256D01*
X1936756Y1530799D02*
X2063256D01*
X1936756Y1529899D02*
X2063256D01*
X1936756Y1528999D02*
X2063256D01*
X1936756Y1528099D02*
X2063256D01*
X1936756Y1527199D02*
X2063256D01*
X1936756Y1526299D02*
X2063256D01*
X1936756Y1525399D02*
X2063256D01*
X2059143Y1636099D02*
X2063013D01*
X2021474Y1587499D02*
X2050986D01*
X2045400Y1604599D02*
X2050803D01*
X2045400Y1603699D02*
X2050729D01*
X2045400Y1602799D02*
X2050729D01*
X2045400Y1601899D02*
X2050729D01*
X2016182Y1590199D02*
X2050729D01*
X2019674Y1589299D02*
X2050729D01*
X2020574Y1588399D02*
X2050729D01*
X2016279Y1591099D02*
X2050726D01*
X2045400Y1600999D02*
X2050551D01*
X2016361Y1591999D02*
X2046690D01*
X2045682Y1600099D02*
X2046282D01*
X2016361Y1592899D02*
X2043704D01*
X2016361Y1593799D02*
X2041782D01*
X2016290Y1594699D02*
X2040618D01*
X2016163Y1595599D02*
X2039783D01*
X2016361Y1596499D02*
X2039160D01*
X2016361Y1597399D02*
X2038695D01*
X2016361Y1598299D02*
X2038360D01*
X2016347Y1599199D02*
X2038139D01*
X2016057Y1600099D02*
X2038022D01*
X2016361Y1607299D02*
X2038000D01*
X2016361Y1606399D02*
X2038000D01*
X2016343Y1605499D02*
X2038000D01*
X2016064Y1604599D02*
X2038000D01*
X2016361Y1603699D02*
X2038000D01*
X2016361Y1602799D02*
X2038000D01*
X2016361Y1601899D02*
X2038000D01*
X2016361Y1600999D02*
X2038000D01*
X1972961Y1646899D02*
X2032240D01*
X1972016Y1647799D02*
X2032240D01*
X1971065Y1648699D02*
X2032240D01*
X1963975Y1649599D02*
X2032240D01*
X1959764Y1650499D02*
X2032240D01*
X1936756Y1651399D02*
X2032240D01*
X1936756Y1652299D02*
X2032240D01*
X1936756Y1653199D02*
X2032240D01*
X1936756Y1654099D02*
X2032240D01*
X1936756Y1654999D02*
X2032240D01*
X1936756Y1655899D02*
X2032240D01*
X2028478Y1656799D02*
X2032240D01*
X2030014Y1657699D02*
X2032240D01*
X2030699Y1658599D02*
X2032240D01*
X2031049Y1659499D02*
X2032240D01*
X2031159Y1660399D02*
X2032240D01*
X2031050Y1661299D02*
X2032240D01*
X2030701Y1662199D02*
X2032240D01*
X2030017Y1663099D02*
X2032240D01*
X2028486Y1663999D02*
X2032240D01*
X1985659Y1664899D02*
X2032240D01*
X1985653Y1665799D02*
X2032240D01*
X1985100Y1666699D02*
X2032240D01*
X1936756Y1667599D02*
X2032240D01*
X1936756Y1668499D02*
X2032240D01*
X1936756Y1669399D02*
X2032240D01*
X1936756Y1670299D02*
X2032240D01*
X1936756Y1671199D02*
X2032240D01*
X1936756Y1672099D02*
X2032240D01*
X1936756Y1672999D02*
X2032240D01*
X1936756Y1673899D02*
X2032240D01*
X1936756Y1674799D02*
X2032240D01*
X1973906Y1645999D02*
X2032198D01*
X2025791Y1645099D02*
X2027460D01*
X2026090Y1555099D02*
X2027369D01*
X2020604Y1656799D02*
X2026322D01*
X2020612Y1663999D02*
X2026314D01*
X2022140Y1657699D02*
X2024786D01*
X2022143Y1663099D02*
X2024783D01*
X2022825Y1658599D02*
X2024101D01*
X2022827Y1662199D02*
X2024099D01*
X2017917Y1645099D02*
X2021460D01*
X2018216Y1555099D02*
X2021162D01*
X2017290Y1540699D02*
X2021103D01*
X2017332Y1546999D02*
X2021062D01*
X2018970Y1644199D02*
X2020408D01*
X2019126Y1555999D02*
X2020252D01*
X2018261Y1541599D02*
X2020133D01*
X2018281Y1546099D02*
X2020112D01*
X2018770Y1542499D02*
X2019623D01*
X2018788Y1545199D02*
X2019605D01*
X2012730Y1656799D02*
X2018448D01*
X2012738Y1663999D02*
X2018440D01*
X2014266Y1657699D02*
X2016912D01*
X2014269Y1663099D02*
X2016909D01*
X2014951Y1658599D02*
X2016227D01*
X2014953Y1662199D02*
X2016225D01*
X2010043Y1645099D02*
X2013586D01*
X2010342Y1555099D02*
X2013288D01*
X2003220Y1540699D02*
X2013229D01*
X1977783Y1546999D02*
X2013188D01*
X2011096Y1644199D02*
X2012534D01*
X2011252Y1555999D02*
X2012378D01*
X2002929Y1541599D02*
X2012259D01*
X1960743Y1546099D02*
X2012238D01*
X2002334Y1542499D02*
X2011757D01*
X1960859Y1545199D02*
X2011746D01*
X2001129Y1543399D02*
X2011529D01*
X1980066Y1544299D02*
X2011526D01*
X2001514Y1656799D02*
X2010574D01*
X1985659Y1663999D02*
X2010566D01*
X1958665Y1618999D02*
X2009847D01*
X2007603Y1580299D02*
X2009728D01*
X1958882Y1581199D02*
X2009630D01*
X1958971Y1600099D02*
X2009541D01*
X2003369Y1604599D02*
X2009535D01*
X1958978Y1585699D02*
X2009534D01*
X2007814Y1619899D02*
X2009517D01*
X2003369Y1595599D02*
X2009436D01*
X2003369Y1590199D02*
X2009417D01*
X2003369Y1591099D02*
X2009319D01*
X2003369Y1594699D02*
X2009308D01*
X1959256Y1586599D02*
X2009256D01*
X2003369Y1605499D02*
X2009255D01*
X1959260Y1618099D02*
X2009251D01*
X1959261Y1599199D02*
X2009251D01*
X2008092Y1579399D02*
X2009239D01*
X2008094Y1624399D02*
X2009237D01*
X2008094Y1623499D02*
X2009237D01*
X2008094Y1622599D02*
X2009237D01*
X2008094Y1621699D02*
X2009237D01*
X2008094Y1620799D02*
X2009237D01*
X1959275Y1617199D02*
X2009237D01*
X1959275Y1616299D02*
X2009237D01*
X2003369Y1607299D02*
X2009237D01*
X2003369Y1606399D02*
X2009237D01*
X2003369Y1603699D02*
X2009237D01*
X2003369Y1602799D02*
X2009237D01*
X2003276Y1601899D02*
X2009237D01*
X1959275Y1600999D02*
X2009237D01*
X2003171Y1598299D02*
X2009237D01*
X2003369Y1597399D02*
X2009237D01*
X2003369Y1596499D02*
X2009237D01*
X2003369Y1593799D02*
X2009237D01*
X2003369Y1592899D02*
X2009237D01*
X2003369Y1591999D02*
X2009237D01*
X2003369Y1589299D02*
X2009237D01*
X2003369Y1588399D02*
X2009237D01*
X2003151Y1587499D02*
X2009237D01*
X1959275Y1584799D02*
X2009237D01*
X1959275Y1583899D02*
X2009237D01*
X1959275Y1582999D02*
X2009237D01*
X1959275Y1582099D02*
X2009237D01*
X2008094Y1578499D02*
X2009237D01*
X2008094Y1577599D02*
X2009237D01*
X2008094Y1576699D02*
X2009237D01*
X2008094Y1575799D02*
X2009237D01*
X2008161Y1574899D02*
X2009169D01*
X2002518Y1657699D02*
X2009038D01*
X2001672Y1663099D02*
X2009035D01*
X2003369Y1608199D02*
X2008921D01*
X1959275Y1615399D02*
X2008885D01*
X2003035Y1658599D02*
X2008353D01*
X2002595Y1662199D02*
X2008351D01*
X2003369Y1609099D02*
X2008090D01*
X1959078Y1614499D02*
X2008076D01*
X2003272Y1659499D02*
X2008003D01*
X2003074Y1661299D02*
X2008002D01*
X2003285Y1660399D02*
X2007893D01*
X2003369Y1609999D02*
X2007772D01*
X1959203Y1613599D02*
X2007768D01*
X2002977Y1612699D02*
X2007737D01*
X2003369Y1611799D02*
X2007737D01*
X2003369Y1610899D02*
X2007737D01*
X2002169Y1645099D02*
X2005712D01*
X2002468Y1555099D02*
X2005414D01*
X2003222Y1644199D02*
X2004660D01*
X2003378Y1555999D02*
X2004504D01*
X2002879Y1580299D02*
X2003428D01*
X1998155D02*
X1998703D01*
X1980540Y1543399D02*
X1997931D01*
X1994295Y1645099D02*
X1997838D01*
X1936756Y1656799D02*
X1997586D01*
X1994594Y1555099D02*
X1997540D01*
X1985561Y1663099D02*
X1997427D01*
X1943071Y1537099D02*
X1997145D01*
X1995348Y1644199D02*
X1996786D01*
X1980561Y1542499D02*
X1996726D01*
X1995504Y1555999D02*
X1996630D01*
X1944338Y1657699D02*
X1996582D01*
X1985697Y1662199D02*
X1996505D01*
X1944636Y1537999D02*
X1996352D01*
X1980201Y1541599D02*
X1996131D01*
X1945080Y1658599D02*
X1996065D01*
X1985446Y1661299D02*
X1996026D01*
X1980222Y1538899D02*
X1995939D01*
X1980513Y1540699D02*
X1995840D01*
X1945389Y1659499D02*
X1995828D01*
X1984492Y1660399D02*
X1995815D01*
X1980578Y1539799D02*
X1995779D01*
X1993431Y1580299D02*
X1993979D01*
X1988804Y1612699D02*
X1993881D01*
X1988978Y1587499D02*
X1993707D01*
X1988998Y1598299D02*
X1993687D01*
X1989103Y1601899D02*
X1993582D01*
X1989196Y1611799D02*
X1993489D01*
X1989196Y1610899D02*
X1993489D01*
X1989196Y1609999D02*
X1993489D01*
X1989196Y1609099D02*
X1993489D01*
X1989196Y1608199D02*
X1993489D01*
X1989196Y1607299D02*
X1993489D01*
X1989196Y1606399D02*
X1993489D01*
X1989196Y1605499D02*
X1993489D01*
X1989196Y1604599D02*
X1993489D01*
X1989196Y1603699D02*
X1993489D01*
X1989196Y1602799D02*
X1993489D01*
X1989196Y1597399D02*
X1993489D01*
X1989196Y1596499D02*
X1993489D01*
X1989196Y1595599D02*
X1993489D01*
X1989196Y1594699D02*
X1993489D01*
X1989196Y1593799D02*
X1993489D01*
X1989196Y1592899D02*
X1993489D01*
X1989196Y1591999D02*
X1993489D01*
X1989196Y1591099D02*
X1993489D01*
X1989196Y1590199D02*
X1993489D01*
X1989196Y1589299D02*
X1993489D01*
X1989196Y1588399D02*
X1993489D01*
X1986421Y1645099D02*
X1989964D01*
X1986720Y1555099D02*
X1989666D01*
X1988706Y1580299D02*
X1989254D01*
X1987474Y1644199D02*
X1988912D01*
X1987630Y1555999D02*
X1988756D01*
X1983982Y1580299D02*
X1984530D01*
X1981331Y1660399D02*
X1982708D01*
X1978547Y1645099D02*
X1982090D01*
X1978846Y1555099D02*
X1981792D01*
X1979600Y1644199D02*
X1981038D01*
X1979756Y1555999D02*
X1980882D01*
X1979257Y1580299D02*
X1979806D01*
X1974630Y1612699D02*
X1979708D01*
X1974804Y1587499D02*
X1979534D01*
X1974824Y1598299D02*
X1979514D01*
X1974930Y1601899D02*
X1979409D01*
X1975023Y1611799D02*
X1979316D01*
X1975023Y1610899D02*
X1979316D01*
X1975023Y1609999D02*
X1979316D01*
X1975023Y1609099D02*
X1979316D01*
X1975023Y1608199D02*
X1979316D01*
X1975023Y1607299D02*
X1979316D01*
X1975023Y1606399D02*
X1979316D01*
X1975023Y1605499D02*
X1979316D01*
X1975023Y1604599D02*
X1979316D01*
X1975023Y1603699D02*
X1979316D01*
X1975023Y1602799D02*
X1979316D01*
X1975023Y1597399D02*
X1979316D01*
X1975023Y1596499D02*
X1979316D01*
X1975023Y1595599D02*
X1979316D01*
X1975023Y1594699D02*
X1979316D01*
X1975023Y1593799D02*
X1979316D01*
X1975023Y1592899D02*
X1979316D01*
X1975023Y1591999D02*
X1979316D01*
X1975023Y1591099D02*
X1979316D01*
X1975023Y1590199D02*
X1979316D01*
X1975023Y1589299D02*
X1979316D01*
X1975023Y1588399D02*
X1979316D01*
X1945405Y1660399D02*
X1978869D01*
X1936756Y1666699D02*
X1978700D01*
X1936756Y1663099D02*
X1978225D01*
X1945133Y1661299D02*
X1978159D01*
X1936756Y1665799D02*
X1978146D01*
X1936756Y1664899D02*
X1978141D01*
X1936756Y1663999D02*
X1978141D01*
X1944458Y1662199D02*
X1978002D01*
X1974533Y1580299D02*
X1975081D01*
X1972417Y1546999D02*
X1972583D01*
X1960859Y1544299D02*
X1971933D01*
X1960612Y1541599D02*
X1971799D01*
X1945200Y1538899D02*
X1971777D01*
X1960068Y1540699D02*
X1971487D01*
X1960839Y1543399D02*
X1971460D01*
X1960679Y1542499D02*
X1971439D01*
X1945405Y1539799D02*
X1971422D01*
X1969809Y1580299D02*
X1970357D01*
X1954310Y1553299D02*
X1967550D01*
X1954310Y1552399D02*
X1967526D01*
X1954310Y1554199D02*
X1967521D01*
X1955318Y1546999D02*
X1967216D01*
X1954310Y1551499D02*
X1966991D01*
X1954310Y1550599D02*
X1966969D01*
X1954310Y1549699D02*
X1966969D01*
X1954310Y1548799D02*
X1966969D01*
X1954422Y1547899D02*
X1966969D01*
X1953749Y1627099D02*
X1966335D01*
X1963098Y1555099D02*
X1966044D01*
X1965084Y1580299D02*
X1965632D01*
X1959275Y1612699D02*
X1965535D01*
X1959275Y1587499D02*
X1965361D01*
X1959275Y1598299D02*
X1965341D01*
X1959275Y1601899D02*
X1965236D01*
X1959275Y1611799D02*
X1965142D01*
X1959275Y1610899D02*
X1965142D01*
X1959193Y1609999D02*
X1965142D01*
X1959094Y1609099D02*
X1965142D01*
X1959275Y1608199D02*
X1965142D01*
X1959275Y1607299D02*
X1965142D01*
X1959275Y1606399D02*
X1965142D01*
X1959256Y1605499D02*
X1965142D01*
X1958977Y1604599D02*
X1965142D01*
X1959275Y1603699D02*
X1965142D01*
X1959275Y1602799D02*
X1965142D01*
X1959275Y1597399D02*
X1965142D01*
X1959275Y1596499D02*
X1965142D01*
X1959076Y1595599D02*
X1965142D01*
X1959204Y1594699D02*
X1965142D01*
X1959275Y1593799D02*
X1965142D01*
X1959275Y1592899D02*
X1965142D01*
X1959275Y1591999D02*
X1965142D01*
X1959193Y1591099D02*
X1965142D01*
X1959095Y1590199D02*
X1965142D01*
X1959275Y1589299D02*
X1965142D01*
X1959275Y1588399D02*
X1965142D01*
X1964008Y1555999D02*
X1965134D01*
X1961026Y1649599D02*
X1963825D01*
X1958784Y1580299D02*
X1960909D01*
X1936756Y1573099D02*
X1960796D01*
X1958965Y1626199D02*
X1960728D01*
X1958995Y1619899D02*
X1960698D01*
X1959110Y1573999D02*
X1960583D01*
X1959273Y1579399D02*
X1960420D01*
X1959275Y1625299D02*
X1960418D01*
X1959275Y1624399D02*
X1960418D01*
X1959275Y1623499D02*
X1960418D01*
X1959275Y1622599D02*
X1960418D01*
X1959275Y1621699D02*
X1960418D01*
X1959275Y1620799D02*
X1960418D01*
X1959275Y1578499D02*
X1960418D01*
X1959275Y1577599D02*
X1960418D01*
X1959275Y1576699D02*
X1960418D01*
X1959275Y1575799D02*
X1960418D01*
X1959275Y1574899D02*
X1960418D01*
X1955224Y1555099D02*
X1958170D01*
X1936756Y1572199D02*
X1958140D01*
X1936756Y1571299D02*
X1957340D01*
X1936756Y1570399D02*
X1957316D01*
X1936756Y1569499D02*
X1957287D01*
X1956134Y1555999D02*
X1957260D01*
X1945328Y1540699D02*
X1957132D01*
X1944945Y1541599D02*
X1956588D01*
X1944046Y1542499D02*
X1954102D01*
X1936756Y1543399D02*
X1953361D01*
X1936756Y1544299D02*
X1953341D01*
X1936756Y1545199D02*
X1952734D01*
X1936756Y1580299D02*
X1952641D01*
X1936756Y1581199D02*
X1952543D01*
X1936756Y1585699D02*
X1952374D01*
X1936756Y1573999D02*
X1952316D01*
X1936756Y1579399D02*
X1952152D01*
X1936756Y1584799D02*
X1952150D01*
X1936756Y1583899D02*
X1952150D01*
X1936756Y1582999D02*
X1952150D01*
X1936756Y1582099D02*
X1952150D01*
X1936756Y1578499D02*
X1952150D01*
X1936756Y1577599D02*
X1952150D01*
X1936756Y1576699D02*
X1952150D01*
X1936756Y1575799D02*
X1952150D01*
X1936756Y1574899D02*
X1952150D01*
X1936756Y1546099D02*
X1951834D01*
X1936756Y1546999D02*
X1951254D01*
X1936756Y1564099D02*
X1951210D01*
X1936756Y1563199D02*
X1951210D01*
X1936756Y1554199D02*
X1951210D01*
X1936756Y1553299D02*
X1951210D01*
X1936756Y1552399D02*
X1951210D01*
X1936756Y1551499D02*
X1951210D01*
X1936756Y1550599D02*
X1951210D01*
X1936756Y1549699D02*
X1951210D01*
X1936756Y1548799D02*
X1951210D01*
X1936756Y1547899D02*
X1951210D01*
X1936756Y1562299D02*
X1950964D01*
X1936756Y1564999D02*
X1950804D01*
X1936756Y1568599D02*
X1950410D01*
X1936756Y1555099D02*
X1950296D01*
X1936756Y1565899D02*
X1950247D01*
X1936756Y1567699D02*
X1950241D01*
X1936756Y1566799D02*
X1950241D01*
X1936756Y1561399D02*
X1949720D01*
X1936756Y1555999D02*
X1949386D01*
X1936756Y1650499D02*
X1949299D01*
X1936756Y1560499D02*
X1949066D01*
X1936756Y1556899D02*
X1948877D01*
X1936756Y1559599D02*
X1948706D01*
X1936756Y1557799D02*
X1948619D01*
X1936756Y1558699D02*
X1948564D01*
X1936756Y1649599D02*
X1947580D01*
X1936756Y1645999D02*
X1946667D01*
X1936756Y1648699D02*
X1946441D01*
X1936756Y1646899D02*
X1946254D01*
X1936756Y1647799D02*
X1946141D01*
X1936756Y1592899D02*
X1945206D01*
X1936756Y1591999D02*
X1945206D01*
X1936756Y1591099D02*
X1945206D01*
X1936756Y1590199D02*
X1945177D01*
X1936756Y1593799D02*
X1944765D01*
X1936756Y1586599D02*
X1944572D01*
X1936756Y1589299D02*
X1944539D01*
X1936756Y1588399D02*
X1944497D01*
X1936756Y1587499D02*
X1944497D01*
X1936756Y1594699D02*
X1943865D01*
X1936756Y1636999D02*
X1943206D01*
X1936756Y1636099D02*
X1943206D01*
X1936756Y1635199D02*
X1943206D01*
X1936756Y1634299D02*
X1943206D01*
X1936756Y1633399D02*
X1943206D01*
X1936756Y1632499D02*
X1943206D01*
X1936756Y1631599D02*
X1943206D01*
X1936756Y1630699D02*
X1943206D01*
X1936756Y1629799D02*
X1943206D01*
X1936756Y1628899D02*
X1943206D01*
X1936756Y1627999D02*
X1943206D01*
X1936756Y1627099D02*
X1943206D01*
X1936756Y1626199D02*
X1943206D01*
X1936756Y1625299D02*
X1943206D01*
X1936756Y1624399D02*
X1943206D01*
X1936756Y1623499D02*
X1943206D01*
X1936756Y1622599D02*
X1943206D01*
X1936756Y1621699D02*
X1943206D01*
X1936756Y1620799D02*
X1943206D01*
X1936756Y1619899D02*
X1943206D01*
X1936756Y1618999D02*
X1943206D01*
X1936756Y1618099D02*
X1943206D01*
X1936756Y1617199D02*
X1943206D01*
X1936756Y1616299D02*
X1943206D01*
X1936756Y1615399D02*
X1943164D01*
X1936756Y1595599D02*
X1942965D01*
X1936756Y1637899D02*
X1942725D01*
X1936756Y1645099D02*
X1942720D01*
X1936756Y1614499D02*
X1942313D01*
X1936756Y1596499D02*
X1942065D01*
X1936756Y1537099D02*
X1941815D01*
X1936756Y1638799D02*
X1941670D01*
X1936756Y1644199D02*
X1941667D01*
X1936756Y1613599D02*
X1941413D01*
X1936756Y1597399D02*
X1941165D01*
X1936756Y1639699D02*
X1941092D01*
X1936756Y1643299D02*
X1941090D01*
X1936756Y1542499D02*
X1940841D01*
X1936756Y1640599D02*
X1940784D01*
X1936756Y1642399D02*
X1940783D01*
X1936756Y1641499D02*
X1940686D01*
X1936756Y1657699D02*
X1940588D01*
X1936756Y1612699D02*
X1940530D01*
X1936756Y1662199D02*
X1940469D01*
X1936756Y1598299D02*
X1940374D01*
X1936756Y1537999D02*
X1940251D01*
X1936756Y1611799D02*
X1940207D01*
X1936756Y1610899D02*
X1940206D01*
X1936756Y1609999D02*
X1940206D01*
X1936756Y1609099D02*
X1940206D01*
X1936756Y1608199D02*
X1940206D01*
X1936756Y1607299D02*
X1940206D01*
X1936756Y1606399D02*
X1940206D01*
X1936756Y1605499D02*
X1940206D01*
X1936756Y1604599D02*
X1940206D01*
X1936756Y1603699D02*
X1940206D01*
X1936756Y1602799D02*
X1940206D01*
X1936756Y1601899D02*
X1940206D01*
X1936756Y1600999D02*
X1940206D01*
X1936756Y1600099D02*
X1940206D01*
X1936756Y1599199D02*
X1940206D01*
X1936756Y1541599D02*
X1939942D01*
X1936756Y1658599D02*
X1939846D01*
X1936756Y1661299D02*
X1939794D01*
X1936756Y1538899D02*
X1939687D01*
X1936756Y1540699D02*
X1939558D01*
X1936756Y1659499D02*
X1939537D01*
X1936756Y1660399D02*
X1939522D01*
X1936756Y1539799D02*
X1939482D01*
X1935000Y1522500D02*
X2065000D01*
Y1677500*
X1935000*
Y1522500*
G54D24*
X1976800Y1572500D02*
Y1572700D01*
X1957300Y1570100D02*
X1957325Y1570075D01*
X1959500*
X1974000Y1570100D02*
X1976729D01*
X1976756Y1570127*
Y1570075*
X1976729Y1570100D02*
X1976800Y1570171D01*
Y1572500*
X1959500Y1570075D02*
X1959600D01*
Y1572300*
X1959500Y1570075D02*
X1961700D01*
X1961900Y1569875*
Y1569700*
X1993956Y1566900D02*
Y1566925D01*
X1994006*
X1987700Y1570100D02*
Y1570075D01*
X1990256*
X1992800*
Y1570100*
X1990256Y1570075D02*
Y1572300D01*
X1991256Y1573300*
X1991300*
X2013100Y1576969D02*
X2013900D01*
Y1573300*
X2013100Y1576969D02*
X2013231Y1577100D01*
X2016800*
X2012799Y1576969D02*
X2013100D01*
X2012799Y1592913D02*
X2016750D01*
Y1593000*
X2009000Y1607000D02*
Y1607087D01*
X2012799*
Y1602362D02*
X2016750D01*
Y1602250*
X2012799Y1597638D02*
X2016750D01*
Y1597500*
X1967720Y1626750D02*
X1967750D01*
X2009000Y1616500D02*
Y1616535D01*
X2012799*
Y1623031D02*
X2016750D01*
Y1623000*
X2005516Y1623031D02*
X2008500D01*
Y1623000*
X2051000Y1633100D02*
Y1630400D01*
Y1619300D02*
Y1622300D01*
Y1625000*
X1959275Y1583465D02*
X1958075D01*
X1952150D02*
X1953350D01*
X2009237Y1576969D02*
X2010437D01*
X2012799Y1573406D02*
Y1574606D01*
X2016361Y1576969D02*
X2015161D01*
X1959275Y1623031D02*
X1958075D01*
X1955713Y1626594D02*
Y1625394D01*
X1959275Y1616535D02*
X1958075D01*
X2016361D02*
X2015161D01*
X2009237D02*
X2010437D01*
X2009237Y1623031D02*
X2010437D01*
X2016361D02*
X2015161D01*
X1952150Y1576969D02*
X1953350D01*
X1955713Y1573406D02*
Y1574606D01*
X1959275Y1576969D02*
X1958075D01*
X1967720Y1619469D02*
Y1620669D01*
X1979316Y1592913D02*
X1980516D01*
X1984256Y1586989D02*
Y1588189D01*
X1989196Y1592913D02*
X1987996D01*
X1984256Y1598838D02*
Y1597638D01*
X1979316Y1607087D02*
X1980516D01*
X1984256Y1601162D02*
Y1602362D01*
X1989196Y1607087D02*
X1987996D01*
X1984256Y1613011D02*
Y1611811D01*
X1965143Y1592913D02*
X1966343D01*
X1970083Y1586989D02*
Y1588189D01*
X1975023Y1592913D02*
X1973823D01*
X1970083Y1598838D02*
Y1597638D01*
X1965143Y1607087D02*
X1966343D01*
X1970083Y1601162D02*
Y1602362D01*
X1975023Y1607087D02*
X1973823D01*
X1970083Y1613011D02*
Y1611811D01*
X1977169Y1573406D02*
Y1574606D01*
Y1580531D02*
Y1579331D01*
X1993489Y1592913D02*
X1994689D01*
X1998429Y1586989D02*
Y1588189D01*
X2003369Y1592913D02*
X2002169D01*
X1998429Y1598838D02*
Y1597638D01*
X1993489Y1607087D02*
X1994689D01*
X1998429Y1601162D02*
Y1602362D01*
X2003369Y1607087D02*
X2002169D01*
X1998429Y1613011D02*
Y1611811D01*
X1967720Y1573406D02*
Y1574606D01*
Y1580531D02*
Y1579331D01*
X1991343Y1573406D02*
Y1574606D01*
Y1580531D02*
Y1579331D01*
X1959275Y1592913D02*
X1958075D01*
X1952150D02*
X1953350D01*
X1960418Y1623031D02*
X1961618D01*
X1962996Y1619469D02*
Y1620669D01*
Y1626594D02*
Y1625394D01*
X2005516Y1619469D02*
Y1620669D01*
X2008094Y1623031D02*
X2006894D01*
X2016361Y1602362D02*
X2015161D01*
X2009237D02*
X2010437D01*
X2016361Y1597638D02*
X2015161D01*
X2009237D02*
X2010437D01*
X2016361Y1592913D02*
X2015161D01*
X2009237D02*
X2010437D01*
X2016361Y1607087D02*
X2015161D01*
X2009237D02*
X2010437D01*
X2056260Y1587041D02*
Y1588241D01*
X2061791Y1590307D02*
X2060591D01*
X2056260Y1593574D02*
Y1592374D01*
X2050729Y1590307D02*
X2051929D01*
X2056260Y1598852D02*
Y1600052D01*
X2061791Y1602119D02*
X2060591D01*
X2056260Y1605385D02*
Y1604185D01*
X2050729Y1602119D02*
X2051929D01*
G54D137*
G54D138*
X2051510Y1633100D03*
X2055290D03*
X2051510Y1622300D03*
X2055290D03*
G54D139*
X2013631Y1568500D03*
X2010481D03*
X2026081D03*
X2022931D03*
X2015750Y1633325D03*
Y1630175D03*
X2055200Y1626125D03*
Y1629275D03*
X2044875Y1611800D03*
X2041725D03*
X2041700Y1611775D03*
Y1608625D03*
X1976756Y1566925D03*
Y1570075D03*
X1990256D03*
Y1566925D03*
X1977256Y1632575D03*
Y1629425D03*
X1972506Y1632575D03*
Y1629425D03*
X1955575Y1567000D03*
X1952425D03*
X1959500Y1570075D03*
Y1566925D03*
X1967756Y1629425D03*
Y1632575D03*
X1949831Y1607000D03*
X1946681D03*
X1949831Y1602500D03*
X1946681D03*
X1949831Y1597750D03*
X1946681D03*
X1949831Y1588000D03*
X1946681D03*
X1980325Y1664700D03*
X1983475D03*
X1955525Y1544600D03*
X1958675D03*
X2023750Y1633325D03*
Y1630175D03*
X1999756Y1570075D03*
Y1566925D03*
X2008000Y1633325D03*
Y1630175D03*
X1996006Y1566925D03*
Y1570075D03*
X1986756Y1632575D03*
Y1629425D03*
X1982006Y1632575D03*
Y1629425D03*
G54D140*
X2005516Y1623031D03*
X2000791D03*
X1996067D03*
X1991343D03*
X1986618D03*
X1981894D03*
X1977169D03*
X1972445D03*
X1967720D03*
X1962996D03*
Y1576969D03*
X1967720D03*
X1972445D03*
X1977169D03*
X1981894D03*
X1986618D03*
X1991343D03*
X1996067D03*
X2000791D03*
X2005516D03*
G54D141*
X1955713Y1616535D03*
Y1611811D03*
Y1607087D03*
Y1602362D03*
Y1597638D03*
Y1592913D03*
Y1588189D03*
Y1583465D03*
X2012799D03*
Y1588189D03*
Y1592913D03*
Y1597638D03*
Y1602362D03*
Y1607087D03*
Y1611811D03*
Y1616535D03*
G54D142*
X1998429Y1607087D03*
X1984256D03*
X1970083D03*
X1998429Y1592913D03*
X1984256D03*
X1970083D03*
G54D143*
X2012799Y1623031D03*
X1955713D03*
Y1576969D03*
X2012799D03*
G54D144*
X2015260Y1543862D03*
X2023134D03*
X2027400Y1660400D03*
X2019526D03*
X2011652D03*
G54D145*
X1969744Y1549500D03*
X1975256D03*
G54D146*
X2050256Y1596213D03*
G54D147*
X2056260Y1602119D03*
Y1590307D03*
G54D148*
X2056300Y1642969D03*
Y1670134D03*
G54D149*
X2031500Y1641500D03*
Y1558500D03*
G54D150*
X2023626Y1641500D03*
X2015752D03*
X2007878D03*
X2000004D03*
X1992130D03*
X1984256D03*
X1976382D03*
X1968508D03*
X1960634D03*
X1952760D03*
X1944886D03*
X2023626Y1558500D03*
X2015752D03*
X2007878D03*
X2000004D03*
X1992130D03*
X1984256D03*
X1976382D03*
X1968508D03*
X1960634D03*
X1952760D03*
G54D151*
X1958600Y1542200D02*
X1958675D01*
Y1544600*
X1952760Y1558500D02*
Y1547365D01*
X1955525Y1544600*
X1952425Y1567000D02*
X1952760D01*
Y1558500*
X1955575Y1567000D02*
X1959425D01*
X1959500Y1566925*
X1976800Y1572500D02*
Y1576969D01*
X1977169*
X1959500Y1566925D02*
X1967175D01*
X1972500Y1572250*
Y1576913*
X1999756Y1570075D02*
X1996006D01*
Y1576907*
X1996067Y1576969*
X2007878Y1558500D02*
X2010500Y1561122D01*
X2000756Y1574044D02*
Y1576933D01*
X2000791Y1576969*
X2000756Y1574044D02*
X2003472Y1571328D01*
X2007653*
X2010481Y1568500*
X1999756Y1566925D02*
X2000004D01*
Y1558500*
X2010481Y1568500D02*
X2010500Y1568481D01*
Y1561122*
X2013631Y1568500D02*
Y1561169D01*
X2015752Y1559048*
Y1558500*
X2022931Y1568500D02*
Y1558500D01*
X2023626*
X2026081Y1568500D02*
Y1563900D01*
X2027181Y1562800*
X2027200*
X2031500Y1558500*
X1946681Y1588000D02*
X1946756Y1588075D01*
X1949831Y1588000D02*
Y1588189D01*
X1955713*
X1972445Y1576969D02*
X1972500Y1576913D01*
X2012799Y1588189D02*
X2012810Y1588200D01*
X2018581*
X2024881Y1581900*
Y1571319*
X2026081Y1570119*
Y1568500*
X2012799Y1583465D02*
X2020367D01*
X2022931Y1580900*
Y1568500*
X2005516Y1576969D02*
X2005700Y1576784D01*
Y1573900*
X2006500Y1573100*
X2009031*
X2010500*
X2013500Y1570100*
Y1568631*
X2013631Y1568500*
X1940300Y1614544D02*
X1940756Y1615000D01*
Y1615500*
X1950756Y1613500D02*
Y1626500D01*
X1953681Y1629425*
X1967756*
X1950756Y1613500D02*
X1952506Y1611750D01*
X1955652*
X1955713Y1611811*
X1944756Y1610000D02*
Y1604425D01*
X1946681Y1602500*
X1944756Y1610000D02*
X1947756Y1613000D01*
Y1628500*
X1951756Y1632500*
X1956384*
X1960634Y1636750*
Y1641500*
X1941756Y1599000D02*
Y1611750D01*
X1944756Y1614750*
Y1641303*
X1941756Y1599000D02*
X1946756Y1594000D01*
Y1588075*
X1949831Y1597750D02*
Y1597638D01*
X1955713*
X1949831Y1602500D02*
Y1602362D01*
X1955713*
X1946681Y1607000D02*
Y1609925D01*
X1949256Y1612500*
Y1627500*
X1952756Y1631000*
X1962000*
X1967500Y1636500*
X1968500Y1637500*
Y1641492*
X1968508Y1641500*
X1949831Y1607000D02*
X1949917Y1607087D01*
X1955713*
X1943256Y1601175D02*
Y1610750D01*
X1946256Y1613750*
Y1629500*
X1952760Y1636004*
Y1641500*
X1943256Y1601175D02*
X1946681Y1597750D01*
X1940300Y1596456D02*
X1941256Y1595500D01*
X1967756Y1632575D02*
X1976382Y1641201D01*
Y1641500*
X1972506Y1632575D02*
Y1633000D01*
X1975006Y1635500*
X1981006*
X1982006Y1636500*
X1987130*
X1992130Y1641500*
X1972445Y1623031D02*
X1972506D01*
Y1629425*
X1982006Y1632575D02*
X1984331Y1634900D01*
X1993404*
X2000004Y1641500*
X1977169Y1623031D02*
X1977256D01*
Y1629425*
X1981894Y1623031D02*
X1982006D01*
Y1629425*
X1986618Y1623031D02*
Y1629425D01*
X1986756*
X1991343Y1623031D02*
Y1624087D01*
X1997006Y1629750*
X2008000*
Y1630175*
X1996067Y1623031D02*
Y1624061D01*
X2000006Y1628000*
X2013575*
X2015750Y1630175*
X2000791Y1624035D02*
X2003256Y1626500D01*
X2020075*
X2023750Y1630175*
X2015750Y1633325D02*
Y1641250D01*
X2015752Y1641500*
X2055200Y1622300D02*
X2055290D01*
X1944756Y1641303D02*
Y1641370D01*
X1944886Y1641500*
X1944756Y1641303D02*
X1945279D01*
X1950201Y1646224*
X1958468*
X1948232Y1647602D02*
X1949610Y1648980D01*
X1959453*
X1962996Y1645437*
X1964571*
X1968508Y1641500*
X1963900Y1647500D02*
X1970083D01*
X1976382Y1641500*
X2007878D02*
X2008000Y1641378D01*
Y1633325*
X2023626Y1641500D02*
X2023750Y1641376D01*
Y1633325*
X1983575Y1664600D02*
Y1662300D01*
X1983600*
X1980100Y1662100D02*
Y1664325D01*
X1980425Y1664600*
G54D152*
X1975256Y1549500D02*
Y1558671D01*
X1976552*
X1969744Y1549500D02*
X1969750D01*
Y1558500*
X1967700Y1573200D02*
X1967720D01*
Y1576969*
X1968508Y1558500D02*
X1969750D01*
X1976382D02*
X1976552Y1558671D01*
X1976882Y1566925D02*
X1976756D01*
X1979175*
X1981894Y1569644*
Y1576969*
X1976552Y1558671D02*
X1976882Y1559000D01*
Y1566925*
X1990604D02*
X1994006D01*
X1991300Y1573300D02*
X1991343D01*
Y1576969*
X1988200Y1566900D02*
X1990579D01*
X1990604Y1566925*
X1994006D02*
X1996006D01*
X1990256D02*
X1990604D01*
X1951500Y1577000D02*
Y1576969D01*
X1955713*
X1951500Y1583500D02*
Y1583465D01*
X1955713*
X1951750Y1592750D02*
X1955549D01*
X1955713Y1592913*
Y1576969D02*
Y1583465D01*
Y1592913D02*
X1959500D01*
Y1593000*
X1970083Y1592913D02*
Y1589500D01*
X1975000*
X1970083Y1592913D02*
Y1596500D01*
X1975000*
X1962996Y1576969D02*
Y1573010D01*
X1963006Y1573000*
X1984256Y1592913D02*
Y1589500D01*
X1989500*
X1984256Y1592913D02*
Y1596500D01*
X1989500*
X1998429Y1592913D02*
Y1589500D01*
X2003500*
X1998429Y1592913D02*
Y1596500D01*
X2003500*
X1970083Y1607087D02*
Y1604000D01*
X1975000*
X1970083Y1607087D02*
Y1610500D01*
X1975000*
X1984256Y1607087D02*
Y1610500D01*
X1989500*
X1984256Y1607087D02*
Y1604000D01*
X1989500*
X1998429Y1606500D02*
Y1603500D01*
X2003500*
X1998429Y1606500D02*
Y1610500D01*
X2003500*
X1998429Y1607087D02*
Y1606500D01*
X2012799Y1611811D02*
X2041656D01*
X2049500Y1611800D02*
G03X2055200Y1617500I-0J5700D01*
G01X2041700Y1600700D02*
G03X2046187Y1596213I4487J0D01*
G01X2050256*
X2041700Y1608625D02*
Y1600700D01*
X2044875Y1611800D02*
X2049500D01*
X2041756Y1611825D02*
Y1611800D01*
X2041781*
X1955713Y1623031D02*
Y1626113D01*
X1956700Y1627100*
X1955713Y1623031D02*
Y1616535D01*
X1959500*
Y1616500*
X1963000Y1626750D02*
X1967720D01*
X1962996Y1623031D02*
Y1626746D01*
X1963000Y1626750*
X1962996Y1623031D02*
Y1619254D01*
X1963000Y1619250*
X1967720Y1626750D02*
Y1623031D01*
Y1619250*
X1967750*
X2012799Y1623031D02*
Y1616535D01*
X2051000Y1633100D02*
X2051510D01*
X2051000Y1622300D02*
X2051510D01*
X2055200D02*
Y1626125D01*
Y1633100D02*
Y1633310D01*
X2055290Y1633220*
Y1633100*
X2055200D02*
Y1642969D01*
X2056300*
X2055200Y1633100D02*
Y1629275D01*
Y1617500D02*
Y1622300D01*
X2049200D02*
X2051000D01*
X2048900Y1633100D02*
X2051000D01*
X1992130Y1554300D02*
Y1555500D01*
Y1562700D02*
Y1561500D01*
X1984256Y1554300D02*
Y1555500D01*
Y1562700D02*
Y1561500D01*
Y1645700D02*
Y1644500D01*
X1960634Y1554300D02*
Y1555500D01*
Y1562700D02*
Y1561500D01*
X2031500Y1645700D02*
Y1644500D01*
Y1637300D02*
Y1638500D01*
X2027400Y1656641D02*
Y1657841D01*
X2031159Y1660400D02*
X2029959D01*
X2027400Y1664159D02*
Y1662959D01*
G54D153*
X1986756Y1632575D02*
X1989256D01*
Y1632500*
X1977256Y1632575D02*
X1979256D01*
Y1632500*
X2000791Y1623031D02*
Y1624035D01*
G54D154*
X1941500Y1531500D03*
X1993500Y1527500D03*
X2001500Y1531500D03*
X2011500D03*
X2021500D03*
X2031500D03*
X2041500D03*
X2051500D03*
X2061500D03*
X1941500Y1551500D03*
X1973500Y1540100D03*
Y1542900D03*
X1975900Y1540100D03*
Y1542700D03*
X1961900Y1540700D03*
X1968500Y1540000D03*
X1958600Y1542200D03*
X1978500Y1542900D03*
Y1540100D03*
X1988500Y1540000D03*
X1993500Y1537500D03*
X2006500Y1539000D03*
X2004000Y1551500D03*
X2011500D03*
X2021500D03*
X2031500D03*
Y1539000D03*
X2019000D03*
X2051500Y1551500D03*
Y1541500D03*
X2041500D03*
X2061500D03*
Y1551500D03*
X1944900Y1556100D03*
X1941500Y1571400D03*
Y1561500D03*
X1938000Y1567400D03*
X1957300Y1570100D03*
X1974000D03*
X1967700Y1573200D03*
X1976800Y1572700D03*
X1959600Y1572300D03*
X1961900Y1569700D03*
X1963006Y1573000D03*
X1991300Y1573300D03*
X1992800Y1570100D03*
X1993956Y1566900D03*
X1988200D03*
X1987700Y1570100D03*
X2013900Y1573300D03*
X2031500Y1571500D03*
X2051500D03*
Y1561500D03*
X2041500Y1571500D03*
X2061500Y1561500D03*
Y1571500D03*
X1941500Y1591500D03*
Y1581500D03*
X1951500Y1577000D03*
Y1583500D03*
X1951750Y1592750D03*
X1941256Y1595500D03*
X1961500Y1589000D03*
X1975000Y1589500D03*
X1966500Y1581500D03*
X1976500D03*
X1959500Y1593000D03*
X1991500Y1581500D03*
X1989500Y1589500D03*
X2001500Y1581500D03*
X2003500Y1589500D03*
X2016750Y1593000D03*
X2016800Y1577100D03*
X2026400Y1585800D03*
X2031500Y1581500D03*
Y1591500D03*
X2021500D03*
X2040000Y1594500D03*
X2045500Y1592000D03*
X2048000Y1591000D03*
X2051000D03*
X2054000Y1587000D03*
X2055500Y1593500D03*
X2051500Y1581500D03*
X2042500Y1592500D03*
X2041500Y1581500D03*
X2059000Y1587000D03*
X2058500Y1594000D03*
X2062000Y1586500D03*
Y1591500D03*
X2061500Y1581500D03*
X1940756Y1615500D03*
X1961500Y1596500D03*
Y1604000D03*
Y1611500D03*
X1975000Y1610500D03*
Y1604000D03*
Y1596500D03*
X1989500Y1610500D03*
Y1604000D03*
Y1596500D03*
X2007000Y1613500D03*
Y1610000D03*
X2009000Y1607000D03*
X2003500Y1596500D03*
Y1603500D03*
Y1610500D03*
X2016750Y1602250D03*
Y1597500D03*
X2017000Y1607500D03*
X2020000D03*
X2023000D03*
X2026000D03*
X2029000D03*
X2032000D03*
X2035000D03*
X2031500Y1601500D03*
X2021500D03*
X2046000Y1604000D03*
X2055500Y1596500D03*
X2037500Y1607500D03*
Y1604500D03*
X2038000Y1597500D03*
X2050000Y1601500D03*
X2055500Y1599000D03*
X2054900Y1609100D03*
X2052200Y1607900D03*
X2046000Y1600500D03*
Y1607500D03*
X2049200Y1607600D03*
X2037500Y1601000D03*
X2058500Y1599000D03*
X2057000Y1610900D03*
X2062000Y1596500D03*
Y1601500D03*
X2058800Y1613600D03*
X2062000Y1606500D03*
X1941500Y1631500D03*
Y1621500D03*
X1956700Y1627100D03*
X1940900Y1634500D03*
X1967750Y1626750D03*
X1974000Y1616500D03*
X1959500D03*
X1963000Y1626750D03*
Y1619250D03*
X1967750D03*
X1984000Y1616500D03*
X1996500D03*
X1979256Y1632500D03*
X1989256D03*
X2008500Y1623000D03*
X2009000Y1616500D03*
X2016750Y1623000D03*
X2035000Y1616000D03*
X2032000D03*
X2029000D03*
X2026000D03*
X2023000D03*
X2020000D03*
X2017000D03*
X2026500Y1621500D03*
Y1626500D03*
X2021500Y1621500D03*
X2051000Y1625000D03*
X2041000Y1616000D03*
X2038000D03*
X2051000Y1619300D03*
X2044000Y1616000D03*
X2047000D03*
X2051000Y1630400D03*
X2049200Y1622300D03*
X2050000Y1616000D03*
X2051000Y1627700D03*
X2048900Y1633100D03*
X2059700Y1616900D03*
Y1629800D03*
Y1623500D03*
Y1620500D03*
Y1626800D03*
Y1635500D03*
Y1632800D03*
X1943500Y1647700D03*
X1939256Y1653500D03*
X1948232Y1647602D03*
X1963900Y1647500D03*
X1958468Y1646224D03*
X2001500Y1651500D03*
X2031500Y1654000D03*
Y1637300D03*
Y1651500D03*
X2021500D03*
X2031500Y1649000D03*
X2033900Y1635800D03*
X2036600D03*
X2031500Y1646500D03*
X2042000Y1635800D03*
X2049800D03*
X2047400D03*
X2039300D03*
X2044700D03*
X1948429Y1672602D03*
X1941500Y1666500D03*
Y1671500D03*
X1948527Y1662366D03*
X1958500Y1659000D03*
X1980100Y1662100D03*
X1978500Y1659000D03*
X1988500D03*
X1993508Y1672602D03*
X1983600Y1662300D03*
X1993508Y1662268D03*
X2001500Y1671500D03*
X2011500D03*
X2031500Y1674000D03*
Y1666500D03*
Y1664000D03*
Y1661500D03*
Y1659000D03*
X2021500Y1671500D03*
X2031500D03*
Y1669000D03*
Y1656500D03*
G74*
X0Y0D02*
M02*
