%
T1C.008F0S0
X001Y-001
X00304Y-00008
X00271Y00007
X001Y001
X00134Y00146
X001Y002
X00065Y00259
X00304Y00282
X00258Y00286
X001Y00299
X00281Y00308
X002Y00355
X001Y004
X002Y0042
X003Y00475
X001Y005
X002025Y005125
X0028Y00515
X000976Y0054
X003Y0055
X003Y00625
X003Y007
X000926Y0074
X0028Y0075
X001Y008
X00252Y00856
X001Y009
X00094Y0093
X002697Y010472
X001673Y01061
X0012Y01062
X000776Y0112
X0027Y01175
X001703Y012087
X001Y0125
X001Y013
X001693Y01311
X00521Y01208
X00486Y01206
X0047Y01175
X00324Y0106
X004776Y0091
X003625Y008525
X00315Y008525
X00315Y007775
X003625Y007775
X00425Y0075
X00525Y0075
X00435Y0069
X00435Y00625
X00435Y0055
X00435Y0048
X0035Y004
X0045Y004
X00362Y00317
X003151Y00315
X00453Y00312
X00562Y00286
X00425Y00286
X0047Y00014
X0042Y00014
X00444Y00012
X0042Y-00014
X0047Y-00014
X00444Y-00014
X0037Y-00015
X0062Y-0014
X007Y-001
X008Y-001
X0062Y-0004
X0075Y-00025
X0057Y-00015
X00725Y001
X008Y001
X006246Y00254
X00567Y00254
X00613Y00286
X00598Y00318
X006Y004
X007Y004
X0072Y0048
X0058Y0048
X0072Y0055
X0058Y0055
X0072Y0062
X0058Y00625
X00775Y00655
X00755Y00685
X0058Y0069
X0072Y0069
X00755Y0072
X00775Y0075
X0065Y0075
X0077Y00815
X005776Y0091
X007Y011
X0057Y01175
X006201Y012077
X007Y013
X008Y013
X006201Y01311
X01Y01325
X009Y013
X01Y013
X01Y01275
X01Y0125
X01Y01225
X01Y012
X01Y01175
X01Y0115
X01Y01125
X01Y011
X009Y011
X01Y01075
X01Y0105
X01Y00958
X01024Y00943
X01051Y00943
X0095Y0085
X008525Y00815
X0095Y008
X009Y008
X01035Y00745
X01005Y00745
X00975Y00745
X00945Y00745
X00915Y00745
X00885Y00745
X00855Y00745
X0106Y0066
X00915Y0066
X00945Y0066
X00975Y0066
X01005Y0066
X00855Y0066
X00885Y0066
X01035Y0066
X0106Y0063
X008525Y006075
X01Y006
X009Y006
X0106Y00595
X008525Y0056
X008525Y00515
X01Y005
X009Y005
X00949Y00443
X01Y004
X00853Y00356
X00824Y00318
X01Y003
X009Y001
X01Y001
X00875Y-00025
X01Y-00025
X009Y-001
X01Y-001
X011Y-001
X012Y-001
X013Y-001
X012Y0
X011Y0
X013Y0
X012Y001
X013Y001
X012Y002
X013Y002
X013Y003
X011Y003
X012Y003
X012Y004
X011Y004
X013Y004
X01305Y0045
X01225Y00455
X01275Y00455
X01165Y00495
X01195Y00495
X01305Y005
X0114Y00505
X0111Y0051
X0124Y0052
X0127Y00525
X01085Y0053
X01305Y0055
X0124Y0055
X01065Y0056
X0127Y00575
X0124Y00575
X01145Y0059
X01305Y006
X01185Y006
X01145Y00625
X01305Y0065
X01145Y0066
X01177Y00661
X01207Y00664
X01234Y00676
X01255Y00694
X01273Y00721
X01125Y00745
X01065Y00745
X01095Y00745
X01185Y00745
X01155Y00745
X01282Y00754
X01195Y00778
X01282Y0079
X01177Y00808
X01282Y0082
X01195Y00835
X01282Y00853
X01195Y00862
X01282Y00883
X01195Y00889
X01282Y00913
X01174Y00916
X01282Y0094
X01159Y00943
X01132Y00943
X01105Y00943
X01078Y00943
X01183Y00943
T2C.0315F197S55
X009163Y000236
X008376Y000236
X00959Y01189
X008803Y01189
X008015Y01189
T3C.035F197S55
X002913Y0017
X002126Y0017
X005276Y0017
X004488Y0017
X003701Y0017
X005276Y01
X004488Y01
X003701Y01
X001339Y01
X002913Y01
X002126Y01
X006063Y01
X007638Y01
X00685Y01
X007638Y0017
X00685Y0017
X006063Y0017
X009213Y0017
X008425Y0017
X01Y0017
X009213Y01
X008425Y01
X01Y01
T4C.03937F197S55
X001094Y-00015
X001096Y01185
T5C.05512F107S55
X006803Y-00015
X006805Y01185
M30
