*
*
G04 PADS 9.3 Build Number: 433611 generated Gerber (RS-274-X) file*
G04 PC Version=2.1*
*
%IN "WG1300E00T-PCB-D01_2012"*%
*
%MOIN*%
*
%FSLAX35Y35*%
*
*
*
*
G04 PC Standard Apertures*
*
*
G04 Thermal Relief Aperture macro.*
%AMTER*
1,1,$1,0,0*
1,0,$1-$2,0,0*
21,0,$3,$4,0,0,45*
21,0,$3,$4,0,0,135*
%
*
*
G04 Annular Aperture macro.*
%AMANN*
1,1,$1,0,0*
1,0,$2,0,0*
%
*
*
G04 Odd Aperture macro.*
%AMODD*
1,1,$1,0,0*
1,0,$1-0.005,0,0*
%
*
*
G04 PC Custom Aperture Macros*
*
*
*
*
*
*
G04 PC Aperture Table*
*
%ADD010C,0.001*%
%ADD011C,0.005*%
%ADD014C,0.01*%
%ADD137C,0.00004*%
*
*
*
*
G04 PC Circuitry*
G04 Layer Name WG1300E00T-PCB-D01_2012 - circuitry*
%LPD*%
*
*
G04 PC Custom Flashes*
G04 Layer Name WG1300E00T-PCB-D01_2012 - flashes*
%LPD*%
*
*
G04 PC Circuitry*
G04 Layer Name WG1300E00T-PCB-D01_2012 - circuitry*
%LPD*%
*
G54D10*
G01X1995875Y1671500D02*
X2160875D01*
X1995875Y1656500D02*
X2160875D01*
X1995875Y1641500D02*
X2160875D01*
X1995875Y1626500D02*
X2160875D01*
X1995875Y1611500D02*
X2160875D01*
X1995875Y1596500D02*
X2160875D01*
X1995875Y1581500D02*
X2160875D01*
X1995875Y1671500D02*
Y1581500D01*
X2048375Y1671500D02*
Y1581500D01*
X2070875Y1671500D02*
Y1581500D01*
X2093375Y1671500D02*
Y1581500D01*
X2127125Y1671500D02*
Y1581500D01*
X2160875Y1671500D02*
Y1581500D01*
G54D11*
X1919635Y1540862D02*
X1922635Y1543862D01*
X1919635Y1546862*
X1916635Y1543862*
X1919635Y1540862*
Y1543862D02*
Y1546862D01*
X1927509Y1540862D02*
X1930509Y1543862D01*
X1927509Y1546862*
X1924509Y1543862*
X1927509Y1540862*
Y1543862D02*
Y1546862D01*
X1931775Y1657400D02*
X1934775Y1660400D01*
X1931775Y1663400*
X1928775Y1660400*
X1931775Y1657400*
Y1660400D02*
Y1663400D01*
X1923901Y1657400D02*
X1926901Y1660400D01*
X1923901Y1663400*
X1920901Y1660400*
X1923901Y1657400*
Y1660400D02*
Y1663400D01*
X1916027Y1657400D02*
X1919027Y1660400D01*
X1916027Y1663400*
X1913027Y1660400*
X1916027Y1657400*
Y1660400D02*
Y1663400D01*
X1932875Y1638500D02*
X1938875D01*
X1932875Y1644500*
X1938875*
X1932875Y1638500*
X1925001D02*
X1931001D01*
X1925001Y1644500*
X1931001*
X1925001Y1638500*
X1917127D02*
X1923127D01*
X1917127Y1644500*
X1923127*
X1917127Y1638500*
X1909253D02*
X1915253D01*
X1909253Y1644500*
X1915253*
X1909253Y1638500*
X1901379D02*
X1907379D01*
X1901379Y1644500*
X1907379*
X1901379Y1638500*
X1893505D02*
X1899505D01*
X1893505Y1644500*
X1899505*
X1893505Y1638500*
X1885631D02*
X1891631D01*
X1885631Y1644500*
X1891631*
X1885631Y1638500*
X1877757D02*
X1883757D01*
X1877757Y1644500*
X1883757*
X1877757Y1638500*
X1869883D02*
X1875883D01*
X1869883Y1644500*
X1875883*
X1869883Y1638500*
X1862009D02*
X1868009D01*
X1862009Y1644500*
X1868009*
X1862009Y1638500*
X1854135D02*
X1860135D01*
X1854135Y1644500*
X1860135*
X1854135Y1638500*
X1846261D02*
X1852261D01*
X1846261Y1644500*
X1852261*
X1846261Y1638500*
X1932875Y1555500D02*
X1938875D01*
X1932875Y1561500*
X1938875*
X1932875Y1555500*
X1925001D02*
X1931001D01*
X1925001Y1561500*
X1931001*
X1925001Y1555500*
X1917127D02*
X1923127D01*
X1917127Y1561500*
X1923127*
X1917127Y1555500*
X1909253D02*
X1915253D01*
X1909253Y1561500*
X1915253*
X1909253Y1555500*
X1901379D02*
X1907379D01*
X1901379Y1561500*
X1907379*
X1901379Y1555500*
X1893505D02*
X1899505D01*
X1893505Y1561500*
X1899505*
X1893505Y1555500*
X1885631D02*
X1891631D01*
X1885631Y1561500*
X1891631*
X1885631Y1555500*
X1877757D02*
X1883757D01*
X1877757Y1561500*
X1883757*
X1877757Y1555500*
X1869883D02*
X1875883D01*
X1869883Y1561500*
X1875883*
X1869883Y1555500*
X1862009D02*
X1868009D01*
X1862009Y1561500*
X1868009*
X1862009Y1555500*
X1854135D02*
X1860135D01*
X1854135Y1561500*
X1860135*
X1854135Y1555500*
X1900925Y1657000D02*
X1906925D01*
Y1663000*
X1900925*
Y1657000*
X1903925Y1660000D02*
Y1663000D01*
X1843838Y1657000D02*
X1849838Y1663000D01*
X1843838D02*
X1849838Y1657000D01*
X1900905Y1537000D02*
X1906905D01*
Y1543000*
X1900905*
Y1537000*
X1903905Y1540000D02*
Y1543000D01*
X1843818Y1537000D02*
X1849818Y1543000D01*
X1843818D02*
X1849818Y1537000D01*
X1842875Y1531500D02*
X1848875D01*
X1845875Y1528500D02*
Y1534500D01*
X1894875Y1527500D02*
X1900875D01*
X1897875Y1524500D02*
Y1530500D01*
X1902875Y1531500D02*
X1908875D01*
X1905875Y1528500D02*
Y1534500D01*
X1912875Y1531500D02*
X1918875D01*
X1915875Y1528500D02*
Y1534500D01*
X1922875Y1531500D02*
X1928875D01*
X1925875Y1528500D02*
Y1534500D01*
X1932875Y1531500D02*
X1938875D01*
X1935875Y1528500D02*
Y1534500D01*
X1942875Y1531500D02*
X1948875D01*
X1945875Y1528500D02*
Y1534500D01*
X1952875Y1531500D02*
X1958875D01*
X1955875Y1528500D02*
Y1534500D01*
X1962875Y1531500D02*
X1968875D01*
X1965875Y1528500D02*
Y1534500D01*
X1842875Y1551500D02*
X1848875D01*
X1845875Y1548500D02*
Y1554500D01*
X1874875Y1540100D02*
X1880875D01*
X1877875Y1537100D02*
Y1543100D01*
X1874875Y1542900D02*
X1880875D01*
X1877875Y1539900D02*
Y1545900D01*
X1877275Y1540100D02*
X1883275D01*
X1880275Y1537100D02*
Y1543100D01*
X1877275Y1542700D02*
X1883275D01*
X1880275Y1539700D02*
Y1545700D01*
X1863275Y1540700D02*
X1869275D01*
X1866275Y1537700D02*
Y1543700D01*
X1869875Y1540000D02*
X1875875D01*
X1872875Y1537000D02*
Y1543000D01*
X1859975Y1542200D02*
X1865975D01*
X1862975Y1539200D02*
Y1545200D01*
X1879875Y1542900D02*
X1885875D01*
X1882875Y1539900D02*
Y1545900D01*
X1879875Y1540100D02*
X1885875D01*
X1882875Y1537100D02*
Y1543100D01*
X1889875Y1540000D02*
X1895875D01*
X1892875Y1537000D02*
Y1543000D01*
X1894875Y1537500D02*
X1900875D01*
X1897875Y1534500D02*
Y1540500D01*
X1907875Y1539000D02*
X1913875D01*
X1910875Y1536000D02*
Y1542000D01*
X1905375Y1551500D02*
X1911375D01*
X1908375Y1548500D02*
Y1554500D01*
X1912875Y1551500D02*
X1918875D01*
X1915875Y1548500D02*
Y1554500D01*
X1922875Y1551500D02*
X1928875D01*
X1925875Y1548500D02*
Y1554500D01*
X1932875Y1551500D02*
X1938875D01*
X1935875Y1548500D02*
Y1554500D01*
X1932875Y1539000D02*
X1938875D01*
X1935875Y1536000D02*
Y1542000D01*
X1920375Y1539000D02*
X1926375D01*
X1923375Y1536000D02*
Y1542000D01*
X1952875Y1551500D02*
X1958875D01*
X1955875Y1548500D02*
Y1554500D01*
X1952875Y1541500D02*
X1958875D01*
X1955875Y1538500D02*
Y1544500D01*
X1942875Y1541500D02*
X1948875D01*
X1945875Y1538500D02*
Y1544500D01*
X1962875Y1541500D02*
X1968875D01*
X1965875Y1538500D02*
Y1544500D01*
X1962875Y1551500D02*
X1968875D01*
X1965875Y1548500D02*
Y1554500D01*
X1846275Y1556100D02*
X1852275D01*
X1849275Y1553100D02*
Y1559100D01*
X1842875Y1571400D02*
X1848875D01*
X1845875Y1568400D02*
Y1574400D01*
X1842875Y1561500D02*
X1848875D01*
X1845875Y1558500D02*
Y1564500D01*
X1839375Y1567400D02*
X1845375D01*
X1842375Y1564400D02*
Y1570400D01*
X1858675Y1570100D02*
X1864675D01*
X1861675Y1567100D02*
Y1573100D01*
X1875375Y1570100D02*
X1881375D01*
X1878375Y1567100D02*
Y1573100D01*
X1869075Y1573200D02*
X1875075D01*
X1872075Y1570200D02*
Y1576200D01*
X1878175Y1572700D02*
X1884175D01*
X1881175Y1569700D02*
Y1575700D01*
X1860975Y1572300D02*
X1866975D01*
X1863975Y1569300D02*
Y1575300D01*
X1863275Y1569700D02*
X1869275D01*
X1866275Y1566700D02*
Y1572700D01*
X1864381Y1573000D02*
X1870381D01*
X1867381Y1570000D02*
Y1576000D01*
X1892675Y1573300D02*
X1898675D01*
X1895675Y1570300D02*
Y1576300D01*
X1894175Y1570100D02*
X1900175D01*
X1897175Y1567100D02*
Y1573100D01*
X1895331Y1566900D02*
X1901331D01*
X1898331Y1563900D02*
Y1569900D01*
X1889575Y1566900D02*
X1895575D01*
X1892575Y1563900D02*
Y1569900D01*
X1889075Y1570100D02*
X1895075D01*
X1892075Y1567100D02*
Y1573100D01*
X1915275Y1573300D02*
X1921275D01*
X1918275Y1570300D02*
Y1576300D01*
X1932875Y1571500D02*
X1938875D01*
X1935875Y1568500D02*
Y1574500D01*
X1952875Y1571500D02*
X1958875D01*
X1955875Y1568500D02*
Y1574500D01*
X1952875Y1561500D02*
X1958875D01*
X1955875Y1558500D02*
Y1564500D01*
X1942875Y1571500D02*
X1948875D01*
X1945875Y1568500D02*
Y1574500D01*
X1962875Y1561500D02*
X1968875D01*
X1965875Y1558500D02*
Y1564500D01*
X1962875Y1571500D02*
X1968875D01*
X1965875Y1568500D02*
Y1574500D01*
X1842875Y1591500D02*
X1848875D01*
X1845875Y1588500D02*
Y1594500D01*
X1842875Y1581500D02*
X1848875D01*
X1845875Y1578500D02*
Y1584500D01*
X1852875Y1577000D02*
X1858875D01*
X1855875Y1574000D02*
Y1580000D01*
X1852875Y1583500D02*
X1858875D01*
X1855875Y1580500D02*
Y1586500D01*
X1853125Y1592750D02*
X1859125D01*
X1856125Y1589750D02*
Y1595750D01*
X1842631Y1595500D02*
X1848631D01*
X1845631Y1592500D02*
Y1598500D01*
X1862875Y1589000D02*
X1868875D01*
X1865875Y1586000D02*
Y1592000D01*
X1876375Y1589500D02*
X1882375D01*
X1879375Y1586500D02*
Y1592500D01*
X1867875Y1581500D02*
X1873875D01*
X1870875Y1578500D02*
Y1584500D01*
X1877875Y1581500D02*
X1883875D01*
X1880875Y1578500D02*
Y1584500D01*
X1860875Y1593000D02*
X1866875D01*
X1863875Y1590000D02*
Y1596000D01*
X1892875Y1581500D02*
X1898875D01*
X1895875Y1578500D02*
Y1584500D01*
X1890875Y1589500D02*
X1896875D01*
X1893875Y1586500D02*
Y1592500D01*
X1902875Y1581500D02*
X1908875D01*
X1905875Y1578500D02*
Y1584500D01*
X1904875Y1589500D02*
X1910875D01*
X1907875Y1586500D02*
Y1592500D01*
X1918125Y1593000D02*
X1924125D01*
X1921125Y1590000D02*
Y1596000D01*
X1918175Y1577100D02*
X1924175D01*
X1921175Y1574100D02*
Y1580100D01*
X1927775Y1585800D02*
X1933775D01*
X1930775Y1582800D02*
Y1588800D01*
X1932875Y1581500D02*
X1938875D01*
X1935875Y1578500D02*
Y1584500D01*
X1932875Y1591500D02*
X1938875D01*
X1935875Y1588500D02*
Y1594500D01*
X1922875Y1591500D02*
X1928875D01*
X1925875Y1588500D02*
Y1594500D01*
X1941375D02*
X1947375D01*
X1944375Y1591500D02*
Y1597500D01*
X1946875Y1592000D02*
X1952875D01*
X1949875Y1589000D02*
Y1595000D01*
X1949375Y1591000D02*
X1955375D01*
X1952375Y1588000D02*
Y1594000D01*
Y1591000D02*
X1958375D01*
X1955375Y1588000D02*
Y1594000D01*
Y1587000D02*
X1961375D01*
X1958375Y1584000D02*
Y1590000D01*
X1956875Y1593500D02*
X1962875D01*
X1959875Y1590500D02*
Y1596500D01*
X1952875Y1581500D02*
X1958875D01*
X1955875Y1578500D02*
Y1584500D01*
X1943875Y1592500D02*
X1949875D01*
X1946875Y1589500D02*
Y1595500D01*
X1942875Y1581500D02*
X1948875D01*
X1945875Y1578500D02*
Y1584500D01*
X1960375Y1587000D02*
X1966375D01*
X1963375Y1584000D02*
Y1590000D01*
X1959875Y1594000D02*
X1965875D01*
X1962875Y1591000D02*
Y1597000D01*
X1963375Y1586500D02*
X1969375D01*
X1966375Y1583500D02*
Y1589500D01*
X1963375Y1591500D02*
X1969375D01*
X1966375Y1588500D02*
Y1594500D01*
X1962875Y1581500D02*
X1968875D01*
X1965875Y1578500D02*
Y1584500D01*
X1842131Y1615500D02*
X1848131D01*
X1845131Y1612500D02*
Y1618500D01*
X1862875Y1596500D02*
X1868875D01*
X1865875Y1593500D02*
Y1599500D01*
X1862875Y1604000D02*
X1868875D01*
X1865875Y1601000D02*
Y1607000D01*
X1862875Y1611500D02*
X1868875D01*
X1865875Y1608500D02*
Y1614500D01*
X1876375Y1610500D02*
X1882375D01*
X1879375Y1607500D02*
Y1613500D01*
X1876375Y1604000D02*
X1882375D01*
X1879375Y1601000D02*
Y1607000D01*
X1876375Y1596500D02*
X1882375D01*
X1879375Y1593500D02*
Y1599500D01*
X1890875Y1610500D02*
X1896875D01*
X1893875Y1607500D02*
Y1613500D01*
X1890875Y1604000D02*
X1896875D01*
X1893875Y1601000D02*
Y1607000D01*
X1890875Y1596500D02*
X1896875D01*
X1893875Y1593500D02*
Y1599500D01*
X1908375Y1613500D02*
X1914375D01*
X1911375Y1610500D02*
Y1616500D01*
X1908375Y1610000D02*
X1914375D01*
X1911375Y1607000D02*
Y1613000D01*
X1910375Y1607000D02*
X1916375D01*
X1913375Y1604000D02*
Y1610000D01*
X1904875Y1596500D02*
X1910875D01*
X1907875Y1593500D02*
Y1599500D01*
X1904875Y1603500D02*
X1910875D01*
X1907875Y1600500D02*
Y1606500D01*
X1904875Y1610500D02*
X1910875D01*
X1907875Y1607500D02*
Y1613500D01*
X1918125Y1602250D02*
X1924125D01*
X1921125Y1599250D02*
Y1605250D01*
X1918125Y1597500D02*
X1924125D01*
X1921125Y1594500D02*
Y1600500D01*
X1918375Y1607500D02*
X1924375D01*
X1921375Y1604500D02*
Y1610500D01*
Y1607500D02*
X1927375D01*
X1924375Y1604500D02*
Y1610500D01*
Y1607500D02*
X1930375D01*
X1927375Y1604500D02*
Y1610500D01*
Y1607500D02*
X1933375D01*
X1930375Y1604500D02*
Y1610500D01*
Y1607500D02*
X1936375D01*
X1933375Y1604500D02*
Y1610500D01*
Y1607500D02*
X1939375D01*
X1936375Y1604500D02*
Y1610500D01*
Y1607500D02*
X1942375D01*
X1939375Y1604500D02*
Y1610500D01*
X1932875Y1601500D02*
X1938875D01*
X1935875Y1598500D02*
Y1604500D01*
X1922875Y1601500D02*
X1928875D01*
X1925875Y1598500D02*
Y1604500D01*
X1947375Y1604000D02*
X1953375D01*
X1950375Y1601000D02*
Y1607000D01*
X1956875Y1596500D02*
X1962875D01*
X1959875Y1593500D02*
Y1599500D01*
X1938875Y1607500D02*
X1944875D01*
X1941875Y1604500D02*
Y1610500D01*
X1938875Y1604500D02*
X1944875D01*
X1941875Y1601500D02*
Y1607500D01*
X1939375Y1597500D02*
X1945375D01*
X1942375Y1594500D02*
Y1600500D01*
X1951375Y1601500D02*
X1957375D01*
X1954375Y1598500D02*
Y1604500D01*
X1956875Y1599000D02*
X1962875D01*
X1959875Y1596000D02*
Y1602000D01*
X1956275Y1609100D02*
X1962275D01*
X1959275Y1606100D02*
Y1612100D01*
X1953575Y1607900D02*
X1959575D01*
X1956575Y1604900D02*
Y1610900D01*
X1947375Y1600500D02*
X1953375D01*
X1950375Y1597500D02*
Y1603500D01*
X1947375Y1607500D02*
X1953375D01*
X1950375Y1604500D02*
Y1610500D01*
X1950575Y1607600D02*
X1956575D01*
X1953575Y1604600D02*
Y1610600D01*
X1938875Y1601000D02*
X1944875D01*
X1941875Y1598000D02*
Y1604000D01*
X1959875Y1599000D02*
X1965875D01*
X1962875Y1596000D02*
Y1602000D01*
X1958375Y1610900D02*
X1964375D01*
X1961375Y1607900D02*
Y1613900D01*
X1963375Y1596500D02*
X1969375D01*
X1966375Y1593500D02*
Y1599500D01*
X1963375Y1601500D02*
X1969375D01*
X1966375Y1598500D02*
Y1604500D01*
X1960175Y1613600D02*
X1966175D01*
X1963175Y1610600D02*
Y1616600D01*
X1963375Y1606500D02*
X1969375D01*
X1966375Y1603500D02*
Y1609500D01*
X1842875Y1631500D02*
X1848875D01*
X1845875Y1628500D02*
Y1634500D01*
X1842875Y1621500D02*
X1848875D01*
X1845875Y1618500D02*
Y1624500D01*
X1858075Y1627100D02*
X1864075D01*
X1861075Y1624100D02*
Y1630100D01*
X1842275Y1634500D02*
X1848275D01*
X1845275Y1631500D02*
Y1637500D01*
X1869125Y1626750D02*
X1875125D01*
X1872125Y1623750D02*
Y1629750D01*
X1875375Y1616500D02*
X1881375D01*
X1878375Y1613500D02*
Y1619500D01*
X1860875Y1616500D02*
X1866875D01*
X1863875Y1613500D02*
Y1619500D01*
X1864375Y1626750D02*
X1870375D01*
X1867375Y1623750D02*
Y1629750D01*
X1864375Y1619250D02*
X1870375D01*
X1867375Y1616250D02*
Y1622250D01*
X1869125Y1619250D02*
X1875125D01*
X1872125Y1616250D02*
Y1622250D01*
X1885375Y1616500D02*
X1891375D01*
X1888375Y1613500D02*
Y1619500D01*
X1897875Y1616500D02*
X1903875D01*
X1900875Y1613500D02*
Y1619500D01*
X1880631Y1632500D02*
X1886631D01*
X1883631Y1629500D02*
Y1635500D01*
X1890631Y1632500D02*
X1896631D01*
X1893631Y1629500D02*
Y1635500D01*
X1909875Y1623000D02*
X1915875D01*
X1912875Y1620000D02*
Y1626000D01*
X1910375Y1616500D02*
X1916375D01*
X1913375Y1613500D02*
Y1619500D01*
X1918125Y1623000D02*
X1924125D01*
X1921125Y1620000D02*
Y1626000D01*
X1936375Y1616000D02*
X1942375D01*
X1939375Y1613000D02*
Y1619000D01*
X1933375Y1616000D02*
X1939375D01*
X1936375Y1613000D02*
Y1619000D01*
X1930375Y1616000D02*
X1936375D01*
X1933375Y1613000D02*
Y1619000D01*
X1927375Y1616000D02*
X1933375D01*
X1930375Y1613000D02*
Y1619000D01*
X1924375Y1616000D02*
X1930375D01*
X1927375Y1613000D02*
Y1619000D01*
X1921375Y1616000D02*
X1927375D01*
X1924375Y1613000D02*
Y1619000D01*
X1918375Y1616000D02*
X1924375D01*
X1921375Y1613000D02*
Y1619000D01*
X1927875Y1621500D02*
X1933875D01*
X1930875Y1618500D02*
Y1624500D01*
X1927875Y1626500D02*
X1933875D01*
X1930875Y1623500D02*
Y1629500D01*
X1922875Y1621500D02*
X1928875D01*
X1925875Y1618500D02*
Y1624500D01*
X1952375Y1625000D02*
X1958375D01*
X1955375Y1622000D02*
Y1628000D01*
X1942375Y1616000D02*
X1948375D01*
X1945375Y1613000D02*
Y1619000D01*
X1939375Y1616000D02*
X1945375D01*
X1942375Y1613000D02*
Y1619000D01*
X1952375Y1619300D02*
X1958375D01*
X1955375Y1616300D02*
Y1622300D01*
X1945375Y1616000D02*
X1951375D01*
X1948375Y1613000D02*
Y1619000D01*
Y1616000D02*
X1954375D01*
X1951375Y1613000D02*
Y1619000D01*
X1952375Y1630400D02*
X1958375D01*
X1955375Y1627400D02*
Y1633400D01*
X1950575Y1622300D02*
X1956575D01*
X1953575Y1619300D02*
Y1625300D01*
X1951375Y1616000D02*
X1957375D01*
X1954375Y1613000D02*
Y1619000D01*
X1952375Y1627700D02*
X1958375D01*
X1955375Y1624700D02*
Y1630700D01*
X1950275Y1633100D02*
X1956275D01*
X1953275Y1630100D02*
Y1636100D01*
X1961075Y1616900D02*
X1967075D01*
X1964075Y1613900D02*
Y1619900D01*
X1961075Y1629800D02*
X1967075D01*
X1964075Y1626800D02*
Y1632800D01*
X1961075Y1623500D02*
X1967075D01*
X1964075Y1620500D02*
Y1626500D01*
X1961075Y1620500D02*
X1967075D01*
X1964075Y1617500D02*
Y1623500D01*
X1961075Y1626800D02*
X1967075D01*
X1964075Y1623800D02*
Y1629800D01*
X1961075Y1635500D02*
X1967075D01*
X1964075Y1632500D02*
Y1638500D01*
X1961075Y1632800D02*
X1967075D01*
X1964075Y1629800D02*
Y1635800D01*
X1844875Y1647700D02*
X1850875D01*
X1847875Y1644700D02*
Y1650700D01*
X1840631Y1653500D02*
X1846631D01*
X1843631Y1650500D02*
Y1656500D01*
X1849607Y1647602D02*
X1855607D01*
X1852607Y1644602D02*
Y1650602D01*
X1865275Y1647500D02*
X1871275D01*
X1868275Y1644500D02*
Y1650500D01*
X1859843Y1646224D02*
X1865843D01*
X1862843Y1643224D02*
Y1649224D01*
X1902875Y1651500D02*
X1908875D01*
X1905875Y1648500D02*
Y1654500D01*
X1932875Y1654000D02*
X1938875D01*
X1935875Y1651000D02*
Y1657000D01*
X1932875Y1637300D02*
X1938875D01*
X1935875Y1634300D02*
Y1640300D01*
X1932875Y1651500D02*
X1938875D01*
X1935875Y1648500D02*
Y1654500D01*
X1922875Y1651500D02*
X1928875D01*
X1925875Y1648500D02*
Y1654500D01*
X1932875Y1649000D02*
X1938875D01*
X1935875Y1646000D02*
Y1652000D01*
X1935275Y1635800D02*
X1941275D01*
X1938275Y1632800D02*
Y1638800D01*
X1937975Y1635800D02*
X1943975D01*
X1940975Y1632800D02*
Y1638800D01*
X1932875Y1646500D02*
X1938875D01*
X1935875Y1643500D02*
Y1649500D01*
X1943375Y1635800D02*
X1949375D01*
X1946375Y1632800D02*
Y1638800D01*
X1951175Y1635800D02*
X1957175D01*
X1954175Y1632800D02*
Y1638800D01*
X1948775Y1635800D02*
X1954775D01*
X1951775Y1632800D02*
Y1638800D01*
X1940675Y1635800D02*
X1946675D01*
X1943675Y1632800D02*
Y1638800D01*
X1946075Y1635800D02*
X1952075D01*
X1949075Y1632800D02*
Y1638800D01*
X1849804Y1672602D02*
X1855804D01*
X1852804Y1669602D02*
Y1675602D01*
X1842875Y1666500D02*
X1848875D01*
X1845875Y1663500D02*
Y1669500D01*
X1842875Y1671500D02*
X1848875D01*
X1845875Y1668500D02*
Y1674500D01*
X1849903Y1662366D02*
X1855903D01*
X1852903Y1659366D02*
Y1665366D01*
X1859875Y1659000D02*
X1865875D01*
X1862875Y1656000D02*
Y1662000D01*
X1881475Y1662100D02*
X1887475D01*
X1884475Y1659100D02*
Y1665100D01*
X1879875Y1659000D02*
X1885875D01*
X1882875Y1656000D02*
Y1662000D01*
X1889875Y1659000D02*
X1895875D01*
X1892875Y1656000D02*
Y1662000D01*
X1894883Y1672602D02*
X1900883D01*
X1897883Y1669602D02*
Y1675602D01*
X1884975Y1662300D02*
X1890975D01*
X1887975Y1659300D02*
Y1665300D01*
X1894883Y1662268D02*
X1900883D01*
X1897883Y1659268D02*
Y1665268D01*
X1902875Y1671500D02*
X1908875D01*
X1905875Y1668500D02*
Y1674500D01*
X1912875Y1671500D02*
X1918875D01*
X1915875Y1668500D02*
Y1674500D01*
X1932875Y1674000D02*
X1938875D01*
X1935875Y1671000D02*
Y1677000D01*
X1932875Y1666500D02*
X1938875D01*
X1935875Y1663500D02*
Y1669500D01*
X1932875Y1664000D02*
X1938875D01*
X1935875Y1661000D02*
Y1667000D01*
X1932875Y1661500D02*
X1938875D01*
X1935875Y1658500D02*
Y1664500D01*
X1932875Y1659000D02*
X1938875D01*
X1935875Y1656000D02*
Y1662000D01*
X1922875Y1671500D02*
X1928875D01*
X1925875Y1668500D02*
Y1674500D01*
X1932875Y1671500D02*
X1938875D01*
X1935875Y1668500D02*
Y1674500D01*
X1932875Y1669000D02*
X1938875D01*
X1935875Y1666000D02*
Y1672000D01*
X1932875Y1656500D02*
X1938875D01*
X1935875Y1653500D02*
Y1659500D01*
X2018125Y1664469D02*
X2017784Y1664938D01*
X2017784D02*
X2017273Y1665172D01*
X2016591*
X2016079Y1664938*
X2016079D02*
X2015739Y1664469D01*
Y1664000*
X2015909Y1663531*
X2016079Y1663297*
X2016420Y1663063*
X2016420D02*
X2017443Y1662594D01*
X2017784Y1662359*
X2017954Y1662125*
X2018125Y1661656*
Y1660953*
X2017784Y1660484*
X2017273Y1660250*
X2016591*
X2016079Y1660484*
X2015739Y1660953*
X2019659Y1665172D02*
Y1660250D01*
X2023579Y1665172D02*
X2021193Y1660250D01*
Y1665172D02*
X2023579D01*
X2021193Y1660250D02*
X2023579D01*
X2025114Y1665172D02*
Y1660250D01*
Y1665172D02*
X2027329D01*
X2025114Y1662828D02*
X2026477D01*
X2025114Y1660250D02*
X2027329D01*
X2054602Y1665172D02*
X2054261Y1664938D01*
X2054261D02*
X2053920Y1664469D01*
X2053750Y1664000*
X2053579Y1663297*
Y1662125*
X2053750Y1661422*
X2053920Y1660953*
X2054261Y1660484*
X2054602Y1660250*
X2055284*
X2055625Y1660484*
X2055966Y1660953*
X2056136Y1661422*
X2056307Y1662125*
Y1663297*
X2056136Y1664000*
X2055966Y1664469*
X2055625Y1664938*
X2055625D02*
X2055284Y1665172D01*
X2054602*
X2055114Y1661188D02*
X2056136Y1659781D01*
X2059034Y1665172D02*
Y1660250D01*
X2057841Y1665172D02*
X2060227D01*
X2061761D02*
X2063125Y1662828D01*
Y1660250*
X2064489Y1665172D02*
X2063125Y1662828D01*
X2078466Y1664469D02*
X2078125Y1664938D01*
X2078125D02*
X2077614Y1665172D01*
X2076932*
X2076420Y1664938*
X2076420D02*
X2076079Y1664469D01*
Y1664000*
X2076250Y1663531*
X2076420Y1663297*
X2076761Y1663063*
X2076761D02*
X2077784Y1662594D01*
X2078125Y1662359*
X2078295Y1662125*
X2078466Y1661656*
Y1660953*
X2078125Y1660484*
X2077614Y1660250*
X2076932*
X2076420Y1660484*
X2076079Y1660953*
X2080000Y1665172D02*
X2081364Y1662828D01*
Y1660250*
X2082727Y1665172D02*
X2081364Y1662828D01*
X2084261Y1665172D02*
Y1660250D01*
Y1665172D02*
X2085625Y1660250D01*
X2086989Y1665172D02*
X2085625Y1660250D01*
X2086989Y1665172D02*
Y1660250D01*
X2100625Y1665172D02*
Y1660250D01*
Y1665172D02*
X2102159D01*
X2102670Y1664938*
X2102670D02*
X2102841Y1664703D01*
X2103011Y1664234*
Y1663531*
X2102841Y1663063*
X2102841D02*
X2102670Y1662828D01*
X2102159Y1662594*
X2100625*
X2104545Y1665172D02*
Y1660250D01*
X2106591*
X2109489Y1665172D02*
X2108125Y1660250D01*
X2109489Y1665172D02*
X2110852Y1660250D01*
X2108636Y1661891D02*
X2110341D01*
X2113579Y1665172D02*
Y1660250D01*
X2112386Y1665172D02*
X2114773D01*
X2116307D02*
Y1660250D01*
Y1665172D02*
X2118523D01*
X2116307Y1662828D02*
X2117670D01*
X2116307Y1660250D02*
X2118523D01*
X2120057Y1665172D02*
Y1660250D01*
Y1665172D02*
X2121250D01*
X2121761Y1664938*
X2121761D02*
X2122102Y1664469D01*
X2122273Y1664000*
X2122443Y1663297*
Y1662125*
X2122273Y1661422*
X2122102Y1660953*
X2121761Y1660484*
X2121250Y1660250*
X2120057*
X2139489Y1665172D02*
Y1660250D01*
X2138295Y1665172D02*
X2140682D01*
X2143239D02*
X2142898Y1664938D01*
X2142898D02*
X2142557Y1664469D01*
X2142386Y1664000*
X2142216Y1663297*
Y1662125*
X2142386Y1661422*
X2142557Y1660953*
X2142898Y1660484*
X2143239Y1660250*
X2143920*
X2144261Y1660484*
X2144602Y1660953*
X2144773Y1661422*
X2144943Y1662125*
Y1663297*
X2144773Y1664000*
X2144602Y1664469*
X2144261Y1664938*
X2144261D02*
X2143920Y1665172D01*
X2143239*
X2146477D02*
Y1660250D01*
X2148523*
X2000648Y1650172D02*
X2000136Y1649938D01*
X2000136D02*
X1999795Y1649234D01*
X1999625Y1648063*
X1999625D02*
Y1647359D01*
X1999795Y1646188*
X1999795D02*
X2000136Y1645484D01*
X2000648Y1645250*
X2000989*
X2001500Y1645484*
X2001841Y1646188*
X2001841D02*
X2002011Y1647359D01*
Y1648063*
X2002011D02*
X2001841Y1649234D01*
X2001500Y1649938*
X2001500D02*
X2000989Y1650172D01*
X2000648*
X2003716Y1645719D02*
X2003545Y1645484D01*
X2003716Y1645250*
X2003886Y1645484*
X2003716Y1645719*
X2005591Y1649000D02*
Y1649234D01*
X2005761Y1649703*
X2005932Y1649938*
X2005932D02*
X2006273Y1650172D01*
X2006954*
X2007295Y1649938*
X2007295D02*
X2007466Y1649703D01*
X2007636Y1649234*
Y1648766*
X2007466Y1648297*
X2007125Y1647594*
X2005420Y1645250*
X2007807*
X2010364Y1650172D02*
X2009852Y1649938D01*
X2009852D02*
X2009511Y1649234D01*
X2009341Y1648063*
X2009341D02*
Y1647359D01*
X2009511Y1646188*
X2009511D02*
X2009852Y1645484D01*
X2010364Y1645250*
X2010704*
X2011216Y1645484*
X2011557Y1646188*
X2011557D02*
X2011727Y1647359D01*
Y1648063*
X2011727D02*
X2011557Y1649234D01*
X2011216Y1649938*
X2011216D02*
X2010704Y1650172D01*
X2010364*
X2013602D02*
X2015477D01*
X2014454Y1648297*
X2014966*
X2015307Y1648063*
X2015307D02*
X2015477Y1647828D01*
X2015648Y1647125*
Y1646656*
X2015477Y1645953*
X2015136Y1645484*
X2014625Y1645250*
X2014114*
X2013602Y1645484*
X2013432Y1645719*
X2013261Y1646188*
X2017352Y1649000D02*
Y1649234D01*
X2017523Y1649703*
X2017693Y1649938*
X2017693D02*
X2018034Y1650172D01*
X2018716*
X2019057Y1649938*
X2019057D02*
X2019227Y1649703D01*
X2019398Y1649234*
Y1648766*
X2019227Y1648297*
X2018886Y1647594*
X2017182Y1645250*
X2019568*
X2054091Y1649000D02*
Y1649234D01*
X2054261Y1649703*
X2054432Y1649938*
X2054432D02*
X2054773Y1650172D01*
X2055454*
X2055795Y1649938*
X2055795D02*
X2055966Y1649703D01*
X2056136Y1649234*
Y1648766*
X2055966Y1648297*
X2055625Y1647594*
X2053920Y1645250*
X2056307*
X2058011Y1649000D02*
Y1649234D01*
X2058182Y1649703*
X2058352Y1649938*
X2058352D02*
X2058693Y1650172D01*
X2059375*
X2059716Y1649938*
X2059716D02*
X2059886Y1649703D01*
X2060057Y1649234*
Y1648766*
X2059886Y1648297*
X2059545Y1647594*
X2057841Y1645250*
X2060227*
X2062102Y1650172D02*
X2063977D01*
X2062954Y1648297*
X2063466*
X2063807Y1648063*
X2063807D02*
X2063977Y1647828D01*
X2064148Y1647125*
Y1646656*
X2063977Y1645953*
X2063636Y1645484*
X2063125Y1645250*
X2062614*
X2062102Y1645484*
X2061932Y1645719*
X2061761Y1646188*
X2078375Y1649000D02*
X2085875D01*
X2082125Y1645250D02*
Y1652750D01*
X2098835Y1650172D02*
X2100199Y1647828D01*
Y1645250*
X2101562Y1650172D02*
X2100199Y1647828D01*
X2103097Y1650172D02*
Y1645250D01*
Y1650172D02*
X2105312D01*
X2103097Y1647828D02*
X2104460D01*
X2103097Y1645250D02*
X2105312D01*
X2109233Y1649469D02*
X2108892Y1649938D01*
X2108892D02*
X2108381Y1650172D01*
X2107699*
X2107187Y1649938*
X2107187D02*
X2106847Y1649469D01*
Y1649000*
X2107017Y1648531*
X2107187Y1648297*
X2107528Y1648063*
X2107528D02*
X2108551Y1647594D01*
X2108892Y1647359*
X2109062Y1647125*
X2109233Y1646656*
Y1645953*
X2108892Y1645484*
X2108381Y1645250*
X2107699*
X2107187Y1645484*
X2106847Y1645953*
X2131903Y1649469D02*
Y1645250D01*
X2130369Y1647359D02*
X2133437D01*
X2138040Y1651109D02*
X2134972Y1643609D01*
X2139574Y1647359D02*
X2142642D01*
X2145199Y1650172D02*
X2144687Y1649938D01*
X2144687D02*
X2144347Y1649234D01*
X2144176Y1648063*
X2144176D02*
Y1647359D01*
X2144347Y1646188*
X2144347D02*
X2144687Y1645484D01*
X2145199Y1645250*
X2145540*
X2146051Y1645484*
X2146392Y1646188*
X2146392D02*
X2146562Y1647359D01*
Y1648063*
X2146562D02*
X2146392Y1649234D01*
X2146051Y1649938*
X2146051D02*
X2145540Y1650172D01*
X2145199*
X2148267Y1645719D02*
X2148097Y1645484D01*
X2148267Y1645250*
X2148437Y1645484*
X2148267Y1645719*
X2150994Y1650172D02*
X2150483Y1649938D01*
X2150483D02*
X2150142Y1649234D01*
X2149972Y1648063*
X2149972D02*
Y1647359D01*
X2150142Y1646188*
X2150142D02*
X2150483Y1645484D01*
X2150994Y1645250*
X2151335*
X2151847Y1645484*
X2152187Y1646188*
X2152187D02*
X2152358Y1647359D01*
Y1648063*
X2152358D02*
X2152187Y1649234D01*
X2151847Y1649938*
X2151847D02*
X2151335Y1650172D01*
X2150994*
X2156108D02*
X2154403D01*
X2154233Y1648063*
X2154233D02*
X2154403Y1648297D01*
X2154915Y1648531*
X2155426*
X2155937Y1648297*
X2156278Y1647828*
X2156449Y1647125*
X2156278Y1646656*
X2156108Y1645953*
X2155767Y1645484*
X2155256Y1645250*
X2154744*
X2154233Y1645484*
X2154062Y1645719*
X2153892Y1646188*
X1999625Y1634234D02*
X1999966Y1634469D01*
X2000477Y1635172*
Y1630250*
X2058011Y1634000D02*
Y1634234D01*
X2058182Y1634703*
X2058352Y1634938*
X2058352D02*
X2058693Y1635172D01*
X2059375*
X2059716Y1634938*
X2059716D02*
X2059886Y1634703D01*
X2060057Y1634234*
Y1633766*
X2059886Y1633297*
X2059545Y1632594*
X2057841Y1630250*
X2060227*
X2078375D02*
X2085875Y1637750D01*
X2078375D02*
X2085875Y1630250D01*
X2100710Y1635172D02*
Y1630250D01*
Y1635172D02*
X2103097Y1630250D01*
Y1635172D02*
Y1630250D01*
X2105653Y1635172D02*
X2105312Y1634938D01*
X2105312D02*
X2104972Y1634469D01*
X2104801Y1634000*
X2104631Y1633297*
Y1632125*
X2104801Y1631422*
X2104972Y1630953*
X2105312Y1630484*
X2105653Y1630250*
X2106335*
X2106676Y1630484*
X2107017Y1630953*
X2107187Y1631422*
X2107358Y1632125*
Y1633297*
X2107187Y1634000*
X2107017Y1634469*
X2106676Y1634938*
X2106676D02*
X2106335Y1635172D01*
X2105653*
X2131903Y1634469D02*
Y1630250D01*
X2130369Y1632359D02*
X2133437D01*
X2138040Y1636109D02*
X2134972Y1628609D01*
X2139574Y1632359D02*
X2142642D01*
X2145199Y1635172D02*
X2144687Y1634938D01*
X2144687D02*
X2144347Y1634234D01*
X2144176Y1633063*
X2144176D02*
Y1632359D01*
X2144347Y1631188*
X2144347D02*
X2144687Y1630484D01*
X2145199Y1630250*
X2145540*
X2146051Y1630484*
X2146392Y1631188*
X2146392D02*
X2146562Y1632359D01*
Y1633063*
X2146562D02*
X2146392Y1634234D01*
X2146051Y1634938*
X2146051D02*
X2145540Y1635172D01*
X2145199*
X2148267Y1630719D02*
X2148097Y1630484D01*
X2148267Y1630250*
X2148437Y1630484*
X2148267Y1630719*
X2150994Y1635172D02*
X2150483Y1634938D01*
X2150483D02*
X2150142Y1634234D01*
X2149972Y1633063*
X2149972D02*
Y1632359D01*
X2150142Y1631188*
X2150142D02*
X2150483Y1630484D01*
X2150994Y1630250*
X2151335*
X2151847Y1630484*
X2152187Y1631188*
X2152187D02*
X2152358Y1632359D01*
Y1633063*
X2152358D02*
X2152187Y1634234D01*
X2151847Y1634938*
X2151847D02*
X2151335Y1635172D01*
X2150994*
X2156108D02*
X2154403D01*
X2154233Y1633063*
X2154233D02*
X2154403Y1633297D01*
X2154915Y1633531*
X2155426*
X2155937Y1633297*
X2156278Y1632828*
X2156449Y1632125*
X2156278Y1631656*
X2156108Y1630953*
X2155767Y1630484*
X2155256Y1630250*
X2154744*
X2154233Y1630484*
X2154062Y1630719*
X2153892Y1631188*
X1999625Y1619234D02*
X1999966Y1619469D01*
X2000477Y1620172*
Y1615250*
X2002182Y1615719D02*
X2002011Y1615484D01*
X2002182Y1615250*
X2002352Y1615484*
X2002182Y1615719*
X2005591Y1620172D02*
X2003886Y1616891D01*
X2006443*
X2005591Y1620172D02*
Y1615250D01*
X2058011Y1619000D02*
Y1619234D01*
X2058182Y1619703*
X2058352Y1619938*
X2058352D02*
X2058693Y1620172D01*
X2059375*
X2059716Y1619938*
X2059716D02*
X2059886Y1619703D01*
X2060057Y1619234*
Y1618766*
X2059886Y1618297*
X2059545Y1617594*
X2057841Y1615250*
X2060227*
X2078375D02*
X2085875D01*
Y1622750*
X2078375*
Y1615250*
X2082125Y1619000D02*
Y1622750D01*
X2100710Y1620172D02*
Y1615250D01*
Y1620172D02*
X2103097Y1615250D01*
Y1620172D02*
Y1615250D01*
X2105653Y1620172D02*
X2105312Y1619938D01*
X2105312D02*
X2104972Y1619469D01*
X2104801Y1619000*
X2104631Y1618297*
Y1617125*
X2104801Y1616422*
X2104972Y1615953*
X2105312Y1615484*
X2105653Y1615250*
X2106335*
X2106676Y1615484*
X2107017Y1615953*
X2107187Y1616422*
X2107358Y1617125*
Y1618297*
X2107187Y1619000*
X2107017Y1619469*
X2106676Y1619938*
X2106676D02*
X2106335Y1620172D01*
X2105653*
X2131903Y1619469D02*
Y1615250D01*
X2130369Y1617359D02*
X2133437D01*
X2138040Y1621109D02*
X2134972Y1613609D01*
X2139574Y1617359D02*
X2142642D01*
X2145199Y1620172D02*
X2144687Y1619938D01*
X2144687D02*
X2144347Y1619234D01*
X2144176Y1618063*
X2144176D02*
Y1617359D01*
X2144347Y1616188*
X2144347D02*
X2144687Y1615484D01*
X2145199Y1615250*
X2145540*
X2146051Y1615484*
X2146392Y1616188*
X2146392D02*
X2146562Y1617359D01*
Y1618063*
X2146562D02*
X2146392Y1619234D01*
X2146051Y1619938*
X2146051D02*
X2145540Y1620172D01*
X2145199*
X2148267Y1615719D02*
X2148097Y1615484D01*
X2148267Y1615250*
X2148437Y1615484*
X2148267Y1615719*
X2150994Y1620172D02*
X2150483Y1619938D01*
X2150483D02*
X2150142Y1619234D01*
X2149972Y1618063*
X2149972D02*
Y1617359D01*
X2150142Y1616188*
X2150142D02*
X2150483Y1615484D01*
X2150994Y1615250*
X2151335*
X2151847Y1615484*
X2152187Y1616188*
X2152187D02*
X2152358Y1617359D01*
Y1618063*
X2152358D02*
X2152187Y1619234D01*
X2151847Y1619938*
X2151847D02*
X2151335Y1620172D01*
X2150994*
X2156108D02*
X2154403D01*
X2154233Y1618063*
X2154233D02*
X2154403Y1618297D01*
X2154915Y1618531*
X2155426*
X2155937Y1618297*
X2156278Y1617828*
X2156449Y1617125*
X2156278Y1616656*
X2156108Y1615953*
X2155767Y1615484*
X2155256Y1615250*
X2154744*
X2154233Y1615484*
X2154062Y1615719*
X2153892Y1616188*
X2000648Y1605172D02*
X2000136Y1604938D01*
X2000136D02*
X1999795Y1604234D01*
X1999625Y1603063*
X1999625D02*
Y1602359D01*
X1999795Y1601188*
X1999795D02*
X2000136Y1600484D01*
X2000648Y1600250*
X2000989*
X2001500Y1600484*
X2001841Y1601188*
X2001841D02*
X2002011Y1602359D01*
Y1603063*
X2002011D02*
X2001841Y1604234D01*
X2001500Y1604938*
X2001500D02*
X2000989Y1605172D01*
X2000648*
X2003716Y1600719D02*
X2003545Y1600484D01*
X2003716Y1600250*
X2003886Y1600484*
X2003716Y1600719*
X2006273Y1605172D02*
X2005761Y1604938D01*
X2005761D02*
X2005591Y1604469D01*
Y1604000*
X2005761Y1603531*
X2006102Y1603297*
X2006784Y1603063*
X2006784D02*
X2007295Y1602828D01*
X2007636Y1602359*
X2007807Y1601891*
Y1601188*
X2007807D02*
X2007636Y1600719D01*
X2007466Y1600484*
X2006954Y1600250*
X2006273*
X2005761Y1600484*
X2005591Y1600719*
X2005420Y1601188*
X2005420D02*
Y1601891D01*
X2005591Y1602359*
X2005932Y1602828*
X2006443Y1603063*
X2006443D02*
X2007125Y1603297D01*
X2007466Y1603531*
X2007636Y1604000*
Y1604469*
X2007466Y1604938*
X2007466D02*
X2006954Y1605172D01*
X2006273*
X2059972D02*
X2058267D01*
X2058097Y1603063*
X2058097D02*
X2058267Y1603297D01*
X2058778Y1603531*
X2059290*
X2059801Y1603297*
X2060142Y1602828*
X2060312Y1602125*
X2060142Y1601656*
X2059972Y1600953*
X2059631Y1600484*
X2059119Y1600250*
X2058608*
X2058097Y1600484*
X2057926Y1600719*
X2057756Y1601188*
X2082125Y1600250D02*
X2085875Y1604000D01*
X2082125Y1607750*
X2078375Y1604000*
X2082125Y1600250*
Y1604000D02*
Y1607750D01*
X2098835Y1605172D02*
X2100199Y1602828D01*
Y1600250*
X2101562Y1605172D02*
X2100199Y1602828D01*
X2103097Y1605172D02*
Y1600250D01*
Y1605172D02*
X2105312D01*
X2103097Y1602828D02*
X2104460D01*
X2103097Y1600250D02*
X2105312D01*
X2109233Y1604469D02*
X2108892Y1604938D01*
X2108892D02*
X2108381Y1605172D01*
X2107699*
X2107187Y1604938*
X2107187D02*
X2106847Y1604469D01*
Y1604000*
X2107017Y1603531*
X2107187Y1603297*
X2107528Y1603063*
X2107528D02*
X2108551Y1602594D01*
X2108892Y1602359*
X2109062Y1602125*
X2109233Y1601656*
Y1600953*
X2108892Y1600484*
X2108381Y1600250*
X2107699*
X2107187Y1600484*
X2106847Y1600953*
X2131903Y1604469D02*
Y1600250D01*
X2130369Y1602359D02*
X2133437D01*
X2138040Y1606109D02*
X2134972Y1598609D01*
X2139574Y1602359D02*
X2142642D01*
X2145199Y1605172D02*
X2144687Y1604938D01*
X2144687D02*
X2144347Y1604234D01*
X2144176Y1603063*
X2144176D02*
Y1602359D01*
X2144347Y1601188*
X2144347D02*
X2144687Y1600484D01*
X2145199Y1600250*
X2145540*
X2146051Y1600484*
X2146392Y1601188*
X2146392D02*
X2146562Y1602359D01*
Y1603063*
X2146562D02*
X2146392Y1604234D01*
X2146051Y1604938*
X2146051D02*
X2145540Y1605172D01*
X2145199*
X2148267Y1600719D02*
X2148097Y1600484D01*
X2148267Y1600250*
X2148437Y1600484*
X2148267Y1600719*
X2150994Y1605172D02*
X2150483Y1604938D01*
X2150483D02*
X2150142Y1604234D01*
X2149972Y1603063*
X2149972D02*
Y1602359D01*
X2150142Y1601188*
X2150142D02*
X2150483Y1600484D01*
X2150994Y1600250*
X2151335*
X2151847Y1600484*
X2152187Y1601188*
X2152187D02*
X2152358Y1602359D01*
Y1603063*
X2152358D02*
X2152187Y1604234D01*
X2151847Y1604938*
X2151847D02*
X2151335Y1605172D01*
X2150994*
X2156108D02*
X2154403D01*
X2154233Y1603063*
X2154233D02*
X2154403Y1603297D01*
X2154915Y1603531*
X2155426*
X2155937Y1603297*
X2156278Y1602828*
X2156449Y1602125*
X2156278Y1601656*
X2156108Y1600953*
X2155767Y1600484*
X2155256Y1600250*
X2154744*
X2154233Y1600484*
X2154062Y1600719*
X2153892Y1601188*
X2000648Y1590172D02*
X2000136Y1589938D01*
X2000136D02*
X1999795Y1589234D01*
X1999625Y1588063*
X1999625D02*
Y1587359D01*
X1999795Y1586188*
X1999795D02*
X2000136Y1585484D01*
X2000648Y1585250*
X2000989*
X2001500Y1585484*
X2001841Y1586188*
X2001841D02*
X2002011Y1587359D01*
Y1588063*
X2002011D02*
X2001841Y1589234D01*
X2001500Y1589938*
X2001500D02*
X2000989Y1590172D01*
X2000648*
X2003716Y1585719D02*
X2003545Y1585484D01*
X2003716Y1585250*
X2003886Y1585484*
X2003716Y1585719*
X2006273Y1590172D02*
X2005761Y1589938D01*
X2005761D02*
X2005591Y1589469D01*
Y1589000*
X2005761Y1588531*
X2006102Y1588297*
X2006784Y1588063*
X2006784D02*
X2007295Y1587828D01*
X2007636Y1587359*
X2007807Y1586891*
Y1586188*
X2007807D02*
X2007636Y1585719D01*
X2007466Y1585484*
X2006954Y1585250*
X2006273*
X2005761Y1585484*
X2005591Y1585719*
X2005420Y1586188*
X2005420D02*
Y1586891D01*
X2005591Y1587359*
X2005932Y1587828*
X2006443Y1588063*
X2006443D02*
X2007125Y1588297D01*
X2007466Y1588531*
X2007636Y1589000*
Y1589469*
X2007466Y1589938*
X2007466D02*
X2006954Y1590172D01*
X2006273*
X2010193D02*
X2009682Y1589938D01*
X2009682D02*
X2009511Y1589469D01*
Y1589000*
X2009682Y1588531*
X2010023Y1588297*
X2010704Y1588063*
X2010704D02*
X2011216Y1587828D01*
X2011557Y1587359*
X2011727Y1586891*
Y1586188*
X2011727D02*
X2011557Y1585719D01*
X2011386Y1585484*
X2010875Y1585250*
X2010193*
X2009682Y1585484*
X2009511Y1585719*
X2009341Y1586188*
X2009341D02*
Y1586891D01*
X2009511Y1587359*
X2009852Y1587828*
X2010364Y1588063*
X2010364D02*
X2011045Y1588297D01*
X2011386Y1588531*
X2011557Y1589000*
Y1589469*
X2011386Y1589938*
X2011386D02*
X2010875Y1590172D01*
X2010193*
X2015477Y1588531D02*
X2015307Y1587828D01*
X2014966Y1587359*
X2014454Y1587125*
X2014284*
X2013773Y1587359*
X2013432Y1587828*
X2013261Y1588531*
Y1588766*
X2013432Y1589469*
X2013773Y1589938*
X2013773D02*
X2014284Y1590172D01*
X2014454*
X2014966Y1589938*
X2014966D02*
X2015307Y1589469D01*
X2015477Y1588531*
Y1587359*
X2015307Y1586188*
X2015307D02*
X2014966Y1585484D01*
X2014454Y1585250*
X2014114*
X2013602Y1585484*
X2013432Y1585953*
X2056051Y1589000D02*
Y1589234D01*
X2056222Y1589703*
X2056392Y1589938*
X2056392D02*
X2056733Y1590172D01*
X2057415*
X2057756Y1589938*
X2057756D02*
X2057926Y1589703D01*
X2058097Y1589234*
Y1588766*
X2057926Y1588297*
X2057585Y1587594*
X2055881Y1585250*
X2058267*
X2060142Y1590172D02*
X2062017D01*
X2060994Y1588297*
X2061506*
X2061847Y1588063*
X2061847D02*
X2062017Y1587828D01*
X2062187Y1587125*
Y1586656*
X2062017Y1585953*
X2061676Y1585484*
X2061165Y1585250*
X2060653*
X2060142Y1585484*
X2059972Y1585719*
X2059801Y1586188*
X2078375Y1585250D02*
X2085875D01*
X2078375Y1592750*
X2085875*
X2078375Y1585250*
X2098835Y1590172D02*
X2100199Y1587828D01*
Y1585250*
X2101562Y1590172D02*
X2100199Y1587828D01*
X2103097Y1590172D02*
Y1585250D01*
Y1590172D02*
X2105312D01*
X2103097Y1587828D02*
X2104460D01*
X2103097Y1585250D02*
X2105312D01*
X2109233Y1589469D02*
X2108892Y1589938D01*
X2108892D02*
X2108381Y1590172D01*
X2107699*
X2107187Y1589938*
X2107187D02*
X2106847Y1589469D01*
Y1589000*
X2107017Y1588531*
X2107187Y1588297*
X2107528Y1588063*
X2107528D02*
X2108551Y1587594D01*
X2108892Y1587359*
X2109062Y1587125*
X2109233Y1586656*
Y1585953*
X2108892Y1585484*
X2108381Y1585250*
X2107699*
X2107187Y1585484*
X2106847Y1585953*
X2131903Y1589469D02*
Y1585250D01*
X2130369Y1587359D02*
X2133437D01*
X2138040Y1591109D02*
X2134972Y1583609D01*
X2139574Y1587359D02*
X2142642D01*
X2145199Y1590172D02*
X2144687Y1589938D01*
X2144687D02*
X2144347Y1589234D01*
X2144176Y1588063*
X2144176D02*
Y1587359D01*
X2144347Y1586188*
X2144347D02*
X2144687Y1585484D01*
X2145199Y1585250*
X2145540*
X2146051Y1585484*
X2146392Y1586188*
X2146392D02*
X2146562Y1587359D01*
Y1588063*
X2146562D02*
X2146392Y1589234D01*
X2146051Y1589938*
X2146051D02*
X2145540Y1590172D01*
X2145199*
X2148267Y1585719D02*
X2148097Y1585484D01*
X2148267Y1585250*
X2148437Y1585484*
X2148267Y1585719*
X2150994Y1590172D02*
X2150483Y1589938D01*
X2150483D02*
X2150142Y1589234D01*
X2149972Y1588063*
X2149972D02*
Y1587359D01*
X2150142Y1586188*
X2150142D02*
X2150483Y1585484D01*
X2150994Y1585250*
X2151335*
X2151847Y1585484*
X2152187Y1586188*
X2152187D02*
X2152358Y1587359D01*
Y1588063*
X2152358D02*
X2152187Y1589234D01*
X2151847Y1589938*
X2151847D02*
X2151335Y1590172D01*
X2150994*
X2156108D02*
X2154403D01*
X2154233Y1588063*
X2154233D02*
X2154403Y1588297D01*
X2154915Y1588531*
X2155426*
X2155937Y1588297*
X2156278Y1587828*
X2156449Y1587125*
X2156278Y1586656*
X2156108Y1585953*
X2155767Y1585484*
X2155256Y1585250*
X2154744*
X2154233Y1585484*
X2154062Y1585719*
X2153892Y1586188*
G54D14*
X1839375Y1522500D02*
X1969375D01*
Y1677500*
X1839375*
Y1522500*
G54D137*
X0Y0D02*
M02*
