*
*
G04 PADS 9.3 Build Number: 433611 generated Gerber (RS-274-X) file*
G04 PC Version=2.1*
*
%IN "WG1300E00T-PCB-D01_2012"*%
*
%MOIN*%
*
%FSLAX35Y35*%
*
*
*
*
G04 PC Standard Apertures*
*
*
G04 Thermal Relief Aperture macro.*
%AMTER*
1,1,$1,0,0*
1,0,$1-$2,0,0*
21,0,$3,$4,0,0,45*
21,0,$3,$4,0,0,135*
%
*
*
G04 Annular Aperture macro.*
%AMANN*
1,1,$1,0,0*
1,0,$2,0,0*
%
*
*
G04 Odd Aperture macro.*
%AMODD*
1,1,$1,0,0*
1,0,$1-0.005,0,0*
%
*
*
G04 PC Custom Aperture Macros*
*
*
*
*
*
*
G04 PC Aperture Table*
*
%ADD014C,0.01*%
%ADD137C,0.00004*%
%ADD138R,0.02165X0.02362*%
%ADD139R,0.01969X0.01969*%
%ADD140R,0.02756X0.04724*%
%ADD141R,0.04724X0.02756*%
%ADD142R,0.0748X0.09449*%
%ADD143R,0.04724X0.04724*%
%ADD145R,0.0315X0.03543*%
%ADD146R,0.04134X0.03937*%
%ADD147R,0.08661X0.04134*%
%ADD148R,0.07874X0.04921*%
*
*
*
*
G04 PC Circuitry*
G04 Layer Name WG1300E00T-PCB-D01_2012 - circuitry*
%LPD*%
*
*
G04 PC Custom Flashes*
G04 Layer Name WG1300E00T-PCB-D01_2012 - flashes*
%LPD*%
*
*
G04 PC Circuitry*
G04 Layer Name WG1300E00T-PCB-D01_2012 - circuitry*
%LPD*%
*
G54D14*
G01X1935000Y1522500D02*
X2065000D01*
Y1677500*
X1935000*
Y1522500*
G54D137*
G54D138*
X2051510Y1633100D03*
X2055290D03*
X2051510Y1622300D03*
X2055290D03*
G54D139*
X2013631Y1568500D03*
X2010481D03*
X2026081D03*
X2022931D03*
X2015750Y1633325D03*
Y1630175D03*
X2055200Y1626125D03*
Y1629275D03*
X2044875Y1611800D03*
X2041725D03*
X2041700Y1611775D03*
Y1608625D03*
X1976756Y1566925D03*
Y1570075D03*
X1990256D03*
Y1566925D03*
X1977256Y1632575D03*
Y1629425D03*
X1972506Y1632575D03*
Y1629425D03*
X1955575Y1567000D03*
X1952425D03*
X1959500Y1570075D03*
Y1566925D03*
X1967756Y1629425D03*
Y1632575D03*
X1949831Y1607000D03*
X1946681D03*
X1949831Y1602500D03*
X1946681D03*
X1949831Y1597750D03*
X1946681D03*
X1949831Y1588000D03*
X1946681D03*
X1980325Y1664700D03*
X1983475D03*
X1955525Y1544600D03*
X1958675D03*
X2023750Y1633325D03*
Y1630175D03*
X1999756Y1570075D03*
Y1566925D03*
X2008000Y1633325D03*
Y1630175D03*
X1996006Y1566925D03*
Y1570075D03*
X1986756Y1632575D03*
Y1629425D03*
X1982006Y1632575D03*
Y1629425D03*
G54D140*
X2005516Y1623031D03*
X2000791D03*
X1996067D03*
X1991343D03*
X1986618D03*
X1981894D03*
X1977169D03*
X1972445D03*
X1967720D03*
X1962996D03*
Y1576969D03*
X1967720D03*
X1972445D03*
X1977169D03*
X1981894D03*
X1986618D03*
X1991343D03*
X1996067D03*
X2000791D03*
X2005516D03*
G54D141*
X1955713Y1616535D03*
Y1611811D03*
Y1607087D03*
Y1602362D03*
Y1597638D03*
Y1592913D03*
Y1588189D03*
Y1583465D03*
X2012799D03*
Y1588189D03*
Y1592913D03*
Y1597638D03*
Y1602362D03*
Y1607087D03*
Y1611811D03*
Y1616535D03*
G54D142*
X1998429Y1607087D03*
X1984256D03*
X1970083D03*
X1998429Y1592913D03*
X1984256D03*
X1970083D03*
G54D143*
X2012799Y1623031D03*
X1955713D03*
Y1576969D03*
X2012799D03*
G54D145*
X1969744Y1549500D03*
X1975256D03*
G54D146*
X2050256Y1596213D03*
G54D147*
X2056260Y1602119D03*
Y1590307D03*
G54D148*
X2056300Y1642969D03*
Y1670134D03*
X0Y0D02*
M02*
